%TF.GenerationSoftware,KiCad,Pcbnew,(6.0.7-1)-1*%
%TF.CreationDate,2022-11-20T21:12:54+11:00*%
%TF.ProjectId,esp32-clover,65737033-322d-4636-9c6f-7665722e6b69,rev?*%
%TF.SameCoordinates,Original*%
%TF.FileFunction,Copper,L3,Inr*%
%TF.FilePolarity,Positive*%
%FSLAX46Y46*%
G04 Gerber Fmt 4.6, Leading zero omitted, Abs format (unit mm)*
G04 Created by KiCad (PCBNEW (6.0.7-1)-1) date 2022-11-20 21:12:54*
%MOMM*%
%LPD*%
G01*
G04 APERTURE LIST*
%TA.AperFunction,ComponentPad*%
%ADD10R,1.308000X1.308000*%
%TD*%
%TA.AperFunction,ComponentPad*%
%ADD11C,1.308000*%
%TD*%
%TA.AperFunction,ComponentPad*%
%ADD12C,0.650000*%
%TD*%
%TA.AperFunction,ComponentPad*%
%ADD13O,1.000000X2.000000*%
%TD*%
%TA.AperFunction,ComponentPad*%
%ADD14R,1.100000X1.100000*%
%TD*%
%TA.AperFunction,ComponentPad*%
%ADD15C,1.100000*%
%TD*%
%TA.AperFunction,ComponentPad*%
%ADD16C,0.300000*%
%TD*%
%TA.AperFunction,ComponentPad*%
%ADD17R,1.700000X1.700000*%
%TD*%
%TA.AperFunction,ComponentPad*%
%ADD18O,1.700000X1.700000*%
%TD*%
%TA.AperFunction,ViaPad*%
%ADD19C,0.450000*%
%TD*%
%TA.AperFunction,Conductor*%
%ADD20C,0.250000*%
%TD*%
G04 APERTURE END LIST*
D10*
%TO.N,/VBAT*%
%TO.C,J2*%
X108387500Y-36600000D03*
D11*
%TO.N,GND*%
X108387500Y-34600000D03*
%TD*%
D12*
%TO.N,GND*%
%TO.C,J1*%
X96250000Y-39917790D03*
%TO.N,unconnected-(J1-PadB2)*%
X96900000Y-39217790D03*
%TO.N,unconnected-(J1-PadB3)*%
X97700000Y-39217790D03*
%TO.N,unconnected-(J1-PadB4)*%
X98100000Y-39917790D03*
%TO.N,Net-(J1-PadB5)*%
X98500000Y-39217790D03*
%TO.N,unconnected-(J1-PadB6)*%
X98900000Y-39917790D03*
%TO.N,unconnected-(J1-PadB7)*%
X99700000Y-39917790D03*
%TO.N,unconnected-(J1-PadB8)*%
X100100000Y-39217790D03*
%TO.N,unconnected-(J1-PadB9)*%
X100500000Y-39917790D03*
%TO.N,unconnected-(J1-PadB10)*%
X100900000Y-39217790D03*
%TO.N,unconnected-(J1-PadB11)*%
X101700000Y-39217790D03*
%TO.N,GND*%
X102350000Y-39917790D03*
D13*
X103800000Y-40717790D03*
X94800000Y-40717790D03*
X103800000Y-35117790D03*
X94800000Y-35117790D03*
%TD*%
D14*
%TO.N,+3.3V*%
%TO.C,J4*%
X87165000Y-36460000D03*
D15*
%TO.N,/DEBUG_TMS*%
X88435000Y-36460000D03*
%TO.N,GND*%
X87165000Y-37730000D03*
%TO.N,/DEBUG_TCK*%
X88435000Y-37730000D03*
%TO.N,GND*%
X87165000Y-39000000D03*
%TO.N,/DEBUG_TDO*%
X88435000Y-39000000D03*
%TO.N,unconnected-(J4-Pad7)*%
X87165000Y-40270000D03*
%TO.N,/DEBUG_TDI*%
X88435000Y-40270000D03*
%TO.N,GND*%
X87165000Y-41540000D03*
%TO.N,unconnected-(J4-Pad10)*%
X88435000Y-41540000D03*
%TD*%
D16*
%TO.N,N/C*%
%TO.C,U4*%
X97200000Y-64740000D03*
X98600000Y-64740000D03*
X96500000Y-64040000D03*
X99300000Y-64040000D03*
X96500000Y-62640000D03*
X99300000Y-62640000D03*
X97200000Y-61940000D03*
X98600000Y-61940000D03*
%TD*%
D17*
%TO.N,DAC_VOUT*%
%TO.C,J3*%
X86800000Y-47575000D03*
D18*
%TO.N,ADC_IN1*%
X86800000Y-50115000D03*
%TO.N,TCA9534_P3*%
X86800000Y-52655000D03*
%TO.N,TCA9534_P2*%
X86800000Y-55195000D03*
%TO.N,I2C_SCL*%
X86800000Y-57735000D03*
%TO.N,I2C_SDA*%
X86800000Y-60275000D03*
%TO.N,UART_RX1*%
X86800000Y-62815000D03*
%TO.N,UART_TX1*%
X86800000Y-65355000D03*
%TD*%
D17*
%TO.N,/VBAT*%
%TO.C,J5*%
X112200000Y-42475000D03*
D18*
%TO.N,GND*%
X112200000Y-45015000D03*
%TO.N,ADC_IN3*%
X112200000Y-47555000D03*
%TO.N,GPIO17*%
X112200000Y-50095000D03*
%TO.N,SPI_SCK*%
X112200000Y-52635000D03*
%TO.N,SPI_MOSI*%
X112200000Y-55175000D03*
%TO.N,SPI_MISO*%
X112200000Y-57715000D03*
%TO.N,GPIO21{slash}TCA9534_INT*%
X112200000Y-60255000D03*
%TO.N,/UART_TX*%
X112200000Y-62795000D03*
%TO.N,/UART_RX*%
X112200000Y-65335000D03*
%TD*%
D19*
%TO.N,VBUS*%
X92800000Y-43650000D03*
X106700000Y-45100000D03*
X101350000Y-42100000D03*
X96450000Y-46650000D03*
%TO.N,GND*%
X99000000Y-33000000D03*
X95250000Y-60960000D03*
X88050000Y-67450000D03*
X101600000Y-67310000D03*
X89400000Y-43500000D03*
X100330000Y-67310000D03*
X88700000Y-46600000D03*
X87750000Y-59000000D03*
X102870000Y-71120000D03*
X99400000Y-69000000D03*
X97500000Y-57400000D03*
X99060000Y-71120000D03*
X103124000Y-60452000D03*
X108000000Y-33000000D03*
X98950000Y-58450000D03*
X102870000Y-68580000D03*
X96000000Y-36000000D03*
X105410000Y-61722000D03*
X101600000Y-71120000D03*
X96520000Y-60960000D03*
X104140000Y-64770000D03*
X106680000Y-71120000D03*
X95325000Y-54675000D03*
X105410000Y-71120000D03*
X102000000Y-36000000D03*
X104140000Y-60960000D03*
X88899998Y-69450002D03*
X102000000Y-33000000D03*
X111000000Y-36000000D03*
X87000000Y-45000000D03*
X111000000Y-33000000D03*
X92700000Y-44600000D03*
X110300000Y-69800000D03*
X100330000Y-71120000D03*
X100330000Y-68580000D03*
X108400000Y-43050000D03*
X110750000Y-45400000D03*
X88200000Y-61500000D03*
X105000000Y-33000000D03*
X93000000Y-33000000D03*
X90000000Y-33000000D03*
X91900000Y-52750000D03*
X104300000Y-69700000D03*
X91950000Y-44900000D03*
X104140000Y-66040000D03*
X101600000Y-64770000D03*
X95050000Y-62700000D03*
X96000000Y-33000000D03*
X90000000Y-36000000D03*
X99250000Y-55950000D03*
X91350000Y-47250000D03*
X101600000Y-68580000D03*
X105410000Y-66040000D03*
X93100000Y-65050000D03*
X92450000Y-56800000D03*
X87700000Y-53950000D03*
X100330000Y-64770000D03*
X87000000Y-33000000D03*
X97050000Y-50150000D03*
X91200000Y-39100000D03*
X106000000Y-55350000D03*
X102870000Y-67310000D03*
X87650000Y-64000000D03*
X104140000Y-59690000D03*
X99000000Y-36000000D03*
X101450000Y-61850000D03*
X104140000Y-71120000D03*
%TO.N,+3.3V*%
X90350000Y-47450000D03*
X91850000Y-54550000D03*
X92250000Y-65100000D03*
X92250000Y-60200500D03*
X96450000Y-45900000D03*
X103749500Y-46600000D03*
X91750000Y-69800000D03*
X102750000Y-59350000D03*
%TO.N,Net-(C9-Pad1)*%
X88000000Y-66450000D03*
%TO.N,Net-(C12-Pad1)*%
X88200000Y-62700000D03*
%TO.N,Net-(C13-Pad1)*%
X89100000Y-61850000D03*
%TO.N,Net-(D2-Pad4)*%
X96691912Y-44058088D03*
X95550000Y-48800000D03*
%TO.N,/UART_RX*%
X100850000Y-50050000D03*
X109450000Y-67300000D03*
X105550000Y-65000000D03*
%TO.N,/UART_TX*%
X101650000Y-50400000D03*
X106650000Y-65100000D03*
X109750000Y-65700000D03*
%TO.N,/DEBUG_TMS*%
X89250000Y-42750000D03*
%TO.N,/DEBUG_TCK*%
X91150000Y-45050000D03*
X96600000Y-50700000D03*
X90855000Y-40150000D03*
%TO.N,/DEBUG_TDI*%
X89050000Y-47300000D03*
X88849500Y-53250000D03*
%TO.N,Net-(JP1-Pad1)*%
X100250000Y-51250000D03*
%TO.N,GPIO21{slash}TCA9534_INT*%
X109750000Y-63500000D03*
X100550000Y-63350000D03*
X100000000Y-58500000D03*
X102250000Y-52000000D03*
%TO.N,I2C_SCL*%
X92950000Y-52050000D03*
X103550000Y-67950000D03*
X100675000Y-61575000D03*
X94900000Y-56950000D03*
%TO.N,Net-(JP2-Pad2)*%
X104700000Y-46600000D03*
%TO.N,I2C_SDA*%
X93900000Y-56950500D03*
X93850000Y-54750000D03*
X98800000Y-57600000D03*
%TO.N,Net-(JP3-Pad2)*%
X89050000Y-49650000D03*
%TO.N,TCA9534_P0*%
X110100500Y-50335898D03*
X100250000Y-52050000D03*
%TO.N,Net-(JP4-Pad2)*%
X108161444Y-53361444D03*
%TO.N,GPIO27{slash}PIEZO*%
X91850000Y-68200000D03*
X88400000Y-58150000D03*
%TO.N,Net-(R13-Pad1)*%
X106150000Y-57000000D03*
%TO.N,/GPI34{slash}BTN*%
X92700000Y-58600000D03*
X92951056Y-64201056D03*
%TO.N,/ESP32_BOOT*%
X110850000Y-56450000D03*
%TO.N,UART_RX1*%
X88699500Y-59750000D03*
%TO.N,GPIO4{slash}ADC_CS*%
X106850000Y-56400000D03*
X106850000Y-58100000D03*
%TO.N,GPIO17*%
X106200000Y-56100000D03*
%TO.N,SPI_SCK*%
X109650000Y-56350000D03*
X104550000Y-59150000D03*
%TO.N,SPI_MOSI*%
X110300500Y-57700000D03*
X105800000Y-60200000D03*
%TO.N,SPI_MISO*%
X105250000Y-59650000D03*
%TO.N,UART_TX1*%
X105000000Y-68450000D03*
%TO.N,TCA9534_P2*%
X97859267Y-56609267D03*
%TO.N,TCA9534_P3*%
X97400000Y-56150000D03*
%TO.N,ADC_IN3*%
X109500000Y-54250000D03*
%TO.N,ADC_IN1*%
X99250000Y-56950000D03*
%TO.N,DAC_VOUT*%
X96600000Y-52125498D03*
%TD*%
D20*
%TO.N,+3.3V*%
X91900000Y-45900000D02*
X90350000Y-47450000D01*
X96450000Y-45900000D02*
X91900000Y-45900000D01*
%TO.N,GPIO21{slash}TCA9534_INT*%
X100000000Y-54250000D02*
X100000000Y-58500000D01*
X102250000Y-52000000D02*
X100000000Y-54250000D01*
%TO.N,TCA9534_P0*%
X100250000Y-52050000D02*
X100850000Y-51450000D01*
X100850000Y-51450000D02*
X108986398Y-51450000D01*
X108986398Y-51450000D02*
X110100500Y-50335898D01*
%TO.N,UART_RX1*%
X88699500Y-59750000D02*
X88699500Y-60172682D01*
X88699500Y-60172682D02*
X86800000Y-62072182D01*
X86800000Y-62072182D02*
X86800000Y-62815000D01*
%TO.N,UART_TX1*%
X87345000Y-65900000D02*
X86800000Y-65355000D01*
X102450000Y-65900000D02*
X87345000Y-65900000D01*
X105000000Y-68450000D02*
X102450000Y-65900000D01*
%TO.N,TCA9534_P2*%
X96250000Y-56700000D02*
X95550000Y-56000000D01*
X88250000Y-55400000D02*
X88045000Y-55195000D01*
X95550000Y-56000000D02*
X94650000Y-56000000D01*
X97768534Y-56700000D02*
X96250000Y-56700000D01*
X94050000Y-55400000D02*
X88250000Y-55400000D01*
X88045000Y-55195000D02*
X86800000Y-55195000D01*
X97859267Y-56609267D02*
X97768534Y-56700000D01*
X94650000Y-56000000D02*
X94050000Y-55400000D01*
%TO.N,TCA9534_P3*%
X94775000Y-54902818D02*
X94775000Y-54447182D01*
X94775000Y-54447182D02*
X93627818Y-53300000D01*
X95322182Y-55450000D02*
X94775000Y-54902818D01*
X91027182Y-52655000D02*
X86800000Y-52655000D01*
X96650000Y-56150000D02*
X95950000Y-55450000D01*
X91672182Y-53300000D02*
X91027182Y-52655000D01*
X93627818Y-53300000D02*
X91672182Y-53300000D01*
X97400000Y-56150000D02*
X96650000Y-56150000D01*
X95950000Y-55450000D02*
X95322182Y-55450000D01*
%TO.N,ADC_IN1*%
X99222182Y-56950000D02*
X93237182Y-50965000D01*
X87650000Y-50965000D02*
X86800000Y-50115000D01*
X99250000Y-56950000D02*
X99222182Y-56950000D01*
X93237182Y-50965000D02*
X87650000Y-50965000D01*
%TO.N,DAC_VOUT*%
X87225000Y-48000000D02*
X86800000Y-47575000D01*
X96600000Y-51800000D02*
X92800000Y-48000000D01*
X96600000Y-52125498D02*
X96600000Y-51800000D01*
X92800000Y-48000000D02*
X87225000Y-48000000D01*
%TD*%
%TA.AperFunction,Conductor*%
%TO.N,GND*%
G36*
X113791621Y-32570502D02*
G01*
X113838114Y-32624158D01*
X113849500Y-32676500D01*
X113849500Y-72224000D01*
X113829498Y-72292121D01*
X113775842Y-72338614D01*
X113723500Y-72350000D01*
X85276500Y-72350000D01*
X85208379Y-72329998D01*
X85161886Y-72276342D01*
X85150500Y-72224000D01*
X85150500Y-69794131D01*
X91269646Y-69794131D01*
X91270810Y-69803033D01*
X91270810Y-69803036D01*
X91271948Y-69811737D01*
X91287306Y-69929186D01*
X91342162Y-70053856D01*
X91347939Y-70060729D01*
X91347940Y-70060730D01*
X91360180Y-70075291D01*
X91429804Y-70158119D01*
X91543187Y-70233593D01*
X91673195Y-70274210D01*
X91809377Y-70276706D01*
X91852542Y-70264938D01*
X91932124Y-70243242D01*
X91932127Y-70243241D01*
X91940786Y-70240880D01*
X91948436Y-70236183D01*
X91948438Y-70236182D01*
X92049206Y-70174311D01*
X92049209Y-70174308D01*
X92056858Y-70169612D01*
X92148261Y-70068631D01*
X92155420Y-70053856D01*
X92203734Y-69954135D01*
X92203734Y-69954134D01*
X92207649Y-69946054D01*
X92230247Y-69811737D01*
X92230390Y-69800000D01*
X92211081Y-69665171D01*
X92154706Y-69541180D01*
X92065796Y-69437996D01*
X92052494Y-69429374D01*
X91959032Y-69368794D01*
X91959030Y-69368793D01*
X91951501Y-69363913D01*
X91942904Y-69361342D01*
X91942902Y-69361341D01*
X91865973Y-69338335D01*
X91821006Y-69324887D01*
X91812030Y-69324832D01*
X91812029Y-69324832D01*
X91755036Y-69324484D01*
X91684804Y-69324055D01*
X91676172Y-69326522D01*
X91562473Y-69359017D01*
X91562471Y-69359018D01*
X91553842Y-69361484D01*
X91438650Y-69434165D01*
X91348487Y-69536255D01*
X91290601Y-69659548D01*
X91269646Y-69794131D01*
X85150500Y-69794131D01*
X85150500Y-68194131D01*
X91369646Y-68194131D01*
X91370810Y-68203033D01*
X91370810Y-68203036D01*
X91378476Y-68261659D01*
X91387306Y-68329186D01*
X91442162Y-68453856D01*
X91447939Y-68460729D01*
X91447940Y-68460730D01*
X91524024Y-68551243D01*
X91529804Y-68558119D01*
X91643187Y-68633593D01*
X91773195Y-68674210D01*
X91909377Y-68676706D01*
X91952542Y-68664938D01*
X92032124Y-68643242D01*
X92032127Y-68643241D01*
X92040786Y-68640880D01*
X92048436Y-68636183D01*
X92048438Y-68636182D01*
X92149206Y-68574311D01*
X92149209Y-68574308D01*
X92156858Y-68569612D01*
X92173106Y-68551662D01*
X92242233Y-68475291D01*
X92242234Y-68475290D01*
X92248261Y-68468631D01*
X92253956Y-68456878D01*
X92303734Y-68354135D01*
X92303734Y-68354134D01*
X92307649Y-68346054D01*
X92327967Y-68225291D01*
X92329441Y-68216530D01*
X92329441Y-68216525D01*
X92330247Y-68211737D01*
X92330390Y-68200000D01*
X92314350Y-68087996D01*
X92312354Y-68074057D01*
X92312353Y-68074054D01*
X92311081Y-68065171D01*
X92254706Y-67941180D01*
X92165796Y-67837996D01*
X92152494Y-67829374D01*
X92059032Y-67768794D01*
X92059030Y-67768793D01*
X92051501Y-67763913D01*
X92042904Y-67761342D01*
X92042902Y-67761341D01*
X91950117Y-67733593D01*
X91921006Y-67724887D01*
X91912030Y-67724832D01*
X91912029Y-67724832D01*
X91855036Y-67724484D01*
X91784804Y-67724055D01*
X91776172Y-67726522D01*
X91662473Y-67759017D01*
X91662471Y-67759018D01*
X91653842Y-67761484D01*
X91646252Y-67766273D01*
X91590540Y-67801425D01*
X91538650Y-67834165D01*
X91448487Y-67936255D01*
X91444673Y-67944378D01*
X91444672Y-67944380D01*
X91416865Y-68003607D01*
X91390601Y-68059548D01*
X91389221Y-68068412D01*
X91389220Y-68068415D01*
X91371165Y-68184378D01*
X91369646Y-68194131D01*
X85150500Y-68194131D01*
X85150500Y-65326069D01*
X85695164Y-65326069D01*
X85708392Y-65527894D01*
X85727047Y-65601350D01*
X85753099Y-65703928D01*
X85758178Y-65723928D01*
X85842856Y-65907607D01*
X85846189Y-65912323D01*
X85949227Y-66058119D01*
X85959588Y-66072780D01*
X86104466Y-66213913D01*
X86272637Y-66326282D01*
X86277940Y-66328560D01*
X86277943Y-66328562D01*
X86414886Y-66387397D01*
X86458470Y-66406122D01*
X86655740Y-66450760D01*
X86661509Y-66450987D01*
X86661512Y-66450987D01*
X86737683Y-66453979D01*
X86857842Y-66458700D01*
X86944132Y-66446189D01*
X87052286Y-66430508D01*
X87052291Y-66430507D01*
X87058007Y-66429678D01*
X87063479Y-66427820D01*
X87063481Y-66427820D01*
X87244067Y-66366519D01*
X87244069Y-66366518D01*
X87249531Y-66364664D01*
X87318789Y-66325878D01*
X87333546Y-66317614D01*
X87402755Y-66301781D01*
X87469537Y-66325878D01*
X87512690Y-66382255D01*
X87521103Y-66429088D01*
X87521028Y-66435256D01*
X87519646Y-66444131D01*
X87537306Y-66579186D01*
X87592162Y-66703856D01*
X87597939Y-66710729D01*
X87597940Y-66710730D01*
X87610180Y-66725291D01*
X87679804Y-66808119D01*
X87708860Y-66827460D01*
X87767168Y-66866273D01*
X87793187Y-66883593D01*
X87923195Y-66924210D01*
X88059377Y-66926706D01*
X88102542Y-66914938D01*
X88182124Y-66893242D01*
X88182127Y-66893241D01*
X88190786Y-66890880D01*
X88198436Y-66886183D01*
X88198438Y-66886182D01*
X88299206Y-66824311D01*
X88299209Y-66824308D01*
X88306858Y-66819612D01*
X88398261Y-66718631D01*
X88405420Y-66703856D01*
X88453734Y-66604135D01*
X88453734Y-66604134D01*
X88457649Y-66596054D01*
X88480247Y-66461737D01*
X88480390Y-66450000D01*
X88476002Y-66419362D01*
X88486144Y-66349095D01*
X88532666Y-66295465D01*
X88600729Y-66275500D01*
X102242273Y-66275500D01*
X102310394Y-66295502D01*
X102331368Y-66312405D01*
X103350617Y-67331654D01*
X103384643Y-67393966D01*
X103379578Y-67464781D01*
X103337031Y-67521617D01*
X103328760Y-67527310D01*
X103238650Y-67584165D01*
X103148487Y-67686255D01*
X103144673Y-67694378D01*
X103144672Y-67694380D01*
X103126262Y-67733593D01*
X103090601Y-67809548D01*
X103089221Y-67818412D01*
X103089220Y-67818415D01*
X103071165Y-67934378D01*
X103069646Y-67944131D01*
X103070810Y-67953033D01*
X103070810Y-67953036D01*
X103077494Y-68004149D01*
X103087306Y-68079186D01*
X103142162Y-68203856D01*
X103147939Y-68210729D01*
X103147940Y-68210730D01*
X103160180Y-68225291D01*
X103229804Y-68308119D01*
X103343187Y-68383593D01*
X103473195Y-68424210D01*
X103609377Y-68426706D01*
X103652542Y-68414938D01*
X103732124Y-68393242D01*
X103732127Y-68393241D01*
X103740786Y-68390880D01*
X103748436Y-68386183D01*
X103748438Y-68386182D01*
X103849206Y-68324311D01*
X103849209Y-68324308D01*
X103856858Y-68319612D01*
X103948261Y-68218631D01*
X103965457Y-68183138D01*
X104013160Y-68130555D01*
X104081718Y-68112110D01*
X104149366Y-68133658D01*
X104167944Y-68148982D01*
X104497866Y-68478904D01*
X104531892Y-68541216D01*
X104533706Y-68551657D01*
X104537306Y-68579186D01*
X104592162Y-68703856D01*
X104597939Y-68710729D01*
X104597940Y-68710730D01*
X104610180Y-68725291D01*
X104679804Y-68808119D01*
X104793187Y-68883593D01*
X104923195Y-68924210D01*
X105059377Y-68926706D01*
X105102542Y-68914938D01*
X105182124Y-68893242D01*
X105182127Y-68893241D01*
X105190786Y-68890880D01*
X105198436Y-68886183D01*
X105198438Y-68886182D01*
X105299206Y-68824311D01*
X105299209Y-68824308D01*
X105306858Y-68819612D01*
X105398261Y-68718631D01*
X105405420Y-68703856D01*
X105453734Y-68604135D01*
X105453734Y-68604134D01*
X105457649Y-68596054D01*
X105477967Y-68475291D01*
X105479441Y-68466530D01*
X105479441Y-68466525D01*
X105480247Y-68461737D01*
X105480390Y-68450000D01*
X105465504Y-68346054D01*
X105462354Y-68324057D01*
X105462353Y-68324054D01*
X105461081Y-68315171D01*
X105454749Y-68301243D01*
X105416232Y-68216530D01*
X105404706Y-68191180D01*
X105397777Y-68183138D01*
X105321657Y-68094798D01*
X105315796Y-68087996D01*
X105288465Y-68070281D01*
X105209032Y-68018794D01*
X105209030Y-68018793D01*
X105201501Y-68013913D01*
X105192904Y-68011342D01*
X105192902Y-68011341D01*
X105079978Y-67977570D01*
X105026985Y-67945948D01*
X104375168Y-67294131D01*
X108969646Y-67294131D01*
X108970810Y-67303033D01*
X108970810Y-67303036D01*
X108978476Y-67361658D01*
X108987306Y-67429186D01*
X108990923Y-67437406D01*
X109027977Y-67521617D01*
X109042162Y-67553856D01*
X109047939Y-67560729D01*
X109047940Y-67560730D01*
X109060180Y-67575291D01*
X109129804Y-67658119D01*
X109137281Y-67663096D01*
X109233974Y-67727460D01*
X109243187Y-67733593D01*
X109274072Y-67743242D01*
X109332004Y-67761341D01*
X109373195Y-67774210D01*
X109509377Y-67776706D01*
X109552542Y-67764938D01*
X109632124Y-67743242D01*
X109632127Y-67743241D01*
X109640786Y-67740880D01*
X109648436Y-67736183D01*
X109648438Y-67736182D01*
X109749206Y-67674311D01*
X109749209Y-67674308D01*
X109756858Y-67669612D01*
X109834201Y-67584165D01*
X109842233Y-67575291D01*
X109842234Y-67575290D01*
X109848261Y-67568631D01*
X109855420Y-67553856D01*
X109903734Y-67454135D01*
X109903734Y-67454134D01*
X109907649Y-67446054D01*
X109930247Y-67311737D01*
X109930390Y-67300000D01*
X109911081Y-67165171D01*
X109854706Y-67041180D01*
X109765796Y-66937996D01*
X109693106Y-66890880D01*
X109659032Y-66868794D01*
X109659030Y-66868793D01*
X109651501Y-66863913D01*
X109642904Y-66861342D01*
X109642902Y-66861341D01*
X109565973Y-66838335D01*
X109521006Y-66824887D01*
X109512030Y-66824832D01*
X109512029Y-66824832D01*
X109455036Y-66824484D01*
X109384804Y-66824055D01*
X109376172Y-66826522D01*
X109262473Y-66859017D01*
X109262471Y-66859018D01*
X109253842Y-66861484D01*
X109246252Y-66866273D01*
X109154428Y-66924210D01*
X109138650Y-66934165D01*
X109048487Y-67036255D01*
X108990601Y-67159548D01*
X108969646Y-67294131D01*
X104375168Y-67294131D01*
X102775168Y-65694131D01*
X109269646Y-65694131D01*
X109270810Y-65703033D01*
X109270810Y-65703036D01*
X109273542Y-65723928D01*
X109287306Y-65829186D01*
X109342162Y-65953856D01*
X109347939Y-65960729D01*
X109347940Y-65960730D01*
X109424024Y-66051243D01*
X109429804Y-66058119D01*
X109543187Y-66133593D01*
X109673195Y-66174210D01*
X109809377Y-66176706D01*
X109852542Y-66164938D01*
X109932124Y-66143242D01*
X109932127Y-66143241D01*
X109940786Y-66140880D01*
X109948436Y-66136183D01*
X109948438Y-66136182D01*
X110049206Y-66074311D01*
X110049209Y-66074308D01*
X110056858Y-66069612D01*
X110068442Y-66056815D01*
X110142233Y-65975291D01*
X110142234Y-65975290D01*
X110148261Y-65968631D01*
X110155420Y-65953856D01*
X110203734Y-65854135D01*
X110203734Y-65854134D01*
X110207649Y-65846054D01*
X110228196Y-65723928D01*
X110229441Y-65716530D01*
X110229441Y-65716525D01*
X110230247Y-65711737D01*
X110230390Y-65700000D01*
X110218845Y-65619383D01*
X110212354Y-65574057D01*
X110212353Y-65574054D01*
X110211081Y-65565171D01*
X110154706Y-65441180D01*
X110065796Y-65337996D01*
X110016539Y-65306069D01*
X111095164Y-65306069D01*
X111108392Y-65507894D01*
X111123116Y-65565871D01*
X111153437Y-65685259D01*
X111158178Y-65703928D01*
X111242856Y-65887607D01*
X111246189Y-65892323D01*
X111304825Y-65975291D01*
X111359588Y-66052780D01*
X111504466Y-66193913D01*
X111672637Y-66306282D01*
X111677940Y-66308560D01*
X111677943Y-66308562D01*
X111849469Y-66382255D01*
X111858470Y-66386122D01*
X112055740Y-66430760D01*
X112061509Y-66430987D01*
X112061512Y-66430987D01*
X112137683Y-66433979D01*
X112257842Y-66438700D01*
X112344132Y-66426189D01*
X112452286Y-66410508D01*
X112452291Y-66410507D01*
X112458007Y-66409678D01*
X112463479Y-66407820D01*
X112463481Y-66407820D01*
X112644067Y-66346519D01*
X112644069Y-66346518D01*
X112649531Y-66344664D01*
X112826001Y-66245837D01*
X112888433Y-66193913D01*
X112977073Y-66120191D01*
X112981505Y-66116505D01*
X113110837Y-65961001D01*
X113114839Y-65953856D01*
X113180053Y-65837406D01*
X113209664Y-65784531D01*
X113232748Y-65716530D01*
X113272820Y-65598481D01*
X113272820Y-65598479D01*
X113274678Y-65593007D01*
X113275507Y-65587291D01*
X113275508Y-65587286D01*
X113295232Y-65451243D01*
X113303700Y-65392842D01*
X113305215Y-65335000D01*
X113286708Y-65133591D01*
X113277235Y-65100000D01*
X113237623Y-64959548D01*
X113231807Y-64938926D01*
X113142351Y-64757527D01*
X113126467Y-64736255D01*
X113024788Y-64600091D01*
X113024787Y-64600090D01*
X113021335Y-64595467D01*
X113017099Y-64591551D01*
X112877053Y-64462094D01*
X112877051Y-64462092D01*
X112872812Y-64458174D01*
X112842762Y-64439214D01*
X112706637Y-64353325D01*
X112701757Y-64350246D01*
X112513898Y-64275298D01*
X112315526Y-64235839D01*
X112309752Y-64235763D01*
X112309748Y-64235763D01*
X112207257Y-64234422D01*
X112113286Y-64233192D01*
X112107589Y-64234171D01*
X112107588Y-64234171D01*
X111919646Y-64266465D01*
X111919645Y-64266465D01*
X111913949Y-64267444D01*
X111724193Y-64337449D01*
X111719232Y-64340401D01*
X111719231Y-64340401D01*
X111606532Y-64407450D01*
X111550371Y-64440862D01*
X111398305Y-64574220D01*
X111273089Y-64733057D01*
X111178914Y-64912053D01*
X111118937Y-65105213D01*
X111095164Y-65306069D01*
X110016539Y-65306069D01*
X109959032Y-65268794D01*
X109959030Y-65268793D01*
X109951501Y-65263913D01*
X109942904Y-65261342D01*
X109942902Y-65261341D01*
X109862867Y-65237406D01*
X109821006Y-65224887D01*
X109812030Y-65224832D01*
X109812029Y-65224832D01*
X109755036Y-65224484D01*
X109684804Y-65224055D01*
X109676172Y-65226522D01*
X109562473Y-65259017D01*
X109562471Y-65259018D01*
X109553842Y-65261484D01*
X109438650Y-65334165D01*
X109432707Y-65340894D01*
X109432706Y-65340895D01*
X109407344Y-65369612D01*
X109348487Y-65436255D01*
X109290601Y-65559548D01*
X109289221Y-65568412D01*
X109289220Y-65568415D01*
X109281285Y-65619383D01*
X109269646Y-65694131D01*
X102775168Y-65694131D01*
X102753348Y-65672311D01*
X102738623Y-65654080D01*
X102737222Y-65652540D01*
X102731572Y-65643790D01*
X102705535Y-65623264D01*
X102701168Y-65619383D01*
X102701102Y-65619461D01*
X102697144Y-65616107D01*
X102693462Y-65612425D01*
X102689231Y-65609402D01*
X102689228Y-65609399D01*
X102684409Y-65605956D01*
X102677948Y-65601339D01*
X102673212Y-65597783D01*
X102659897Y-65587286D01*
X102633400Y-65566397D01*
X102624851Y-65563395D01*
X102617481Y-65558128D01*
X102584203Y-65548176D01*
X102568930Y-65543608D01*
X102563286Y-65541774D01*
X102522935Y-65527604D01*
X102522929Y-65527603D01*
X102515452Y-65524977D01*
X102509945Y-65524500D01*
X102507238Y-65524500D01*
X102504665Y-65524389D01*
X102504506Y-65524341D01*
X102504512Y-65524197D01*
X102503892Y-65524158D01*
X102497713Y-65522310D01*
X102444445Y-65524403D01*
X102439498Y-65524500D01*
X92773799Y-65524500D01*
X92705678Y-65504498D01*
X92659185Y-65450842D01*
X92649081Y-65380568D01*
X92660407Y-65343562D01*
X92703734Y-65254135D01*
X92703734Y-65254134D01*
X92707649Y-65246054D01*
X92723205Y-65153591D01*
X92729441Y-65116530D01*
X92729441Y-65116525D01*
X92730247Y-65111737D01*
X92730318Y-65105899D01*
X92730331Y-65104860D01*
X92730331Y-65104857D01*
X92730390Y-65100000D01*
X92716069Y-65000000D01*
X92712354Y-64974057D01*
X92712353Y-64974054D01*
X92711081Y-64965171D01*
X92654706Y-64841180D01*
X92651161Y-64837065D01*
X92631808Y-64770616D01*
X92651960Y-64702539D01*
X92705718Y-64656164D01*
X92776014Y-64646215D01*
X92795382Y-64650626D01*
X92829679Y-64661341D01*
X92874251Y-64675266D01*
X93010433Y-64677762D01*
X93061231Y-64663913D01*
X93133180Y-64644298D01*
X93133183Y-64644297D01*
X93141842Y-64641936D01*
X93149492Y-64637239D01*
X93149494Y-64637238D01*
X93250262Y-64575367D01*
X93250265Y-64575364D01*
X93257914Y-64570668D01*
X93264029Y-64563913D01*
X93343289Y-64476347D01*
X93343290Y-64476346D01*
X93349317Y-64469687D01*
X93356476Y-64454912D01*
X93404790Y-64355191D01*
X93404790Y-64355190D01*
X93408705Y-64347110D01*
X93424074Y-64255763D01*
X93430497Y-64217586D01*
X93430497Y-64217581D01*
X93431303Y-64212793D01*
X93431446Y-64201056D01*
X93412137Y-64066227D01*
X93400212Y-64040000D01*
X96094508Y-64040000D01*
X96114354Y-64165304D01*
X96171950Y-64278342D01*
X96261658Y-64368050D01*
X96374696Y-64425646D01*
X96384485Y-64427196D01*
X96384487Y-64427197D01*
X96490207Y-64443941D01*
X96500000Y-64445492D01*
X96509793Y-64443941D01*
X96615513Y-64427197D01*
X96615515Y-64427196D01*
X96625304Y-64425646D01*
X96665225Y-64405305D01*
X96735001Y-64392201D01*
X96800786Y-64418901D01*
X96841693Y-64476928D01*
X96844734Y-64547860D01*
X96834695Y-64574774D01*
X96814354Y-64614696D01*
X96812804Y-64624485D01*
X96812803Y-64624487D01*
X96804365Y-64677762D01*
X96794508Y-64740000D01*
X96796059Y-64749793D01*
X96811828Y-64849353D01*
X96814354Y-64865304D01*
X96871950Y-64978342D01*
X96961658Y-65068050D01*
X97074696Y-65125646D01*
X97084485Y-65127196D01*
X97084487Y-65127197D01*
X97190207Y-65143941D01*
X97200000Y-65145492D01*
X97209793Y-65143941D01*
X97315513Y-65127197D01*
X97315515Y-65127196D01*
X97325304Y-65125646D01*
X97438342Y-65068050D01*
X97528050Y-64978342D01*
X97585646Y-64865304D01*
X97588173Y-64849353D01*
X97603941Y-64749793D01*
X97605492Y-64740000D01*
X98194508Y-64740000D01*
X98196059Y-64749793D01*
X98211828Y-64849353D01*
X98214354Y-64865304D01*
X98271950Y-64978342D01*
X98361658Y-65068050D01*
X98474696Y-65125646D01*
X98484485Y-65127196D01*
X98484487Y-65127197D01*
X98590207Y-65143941D01*
X98600000Y-65145492D01*
X98609793Y-65143941D01*
X98715513Y-65127197D01*
X98715515Y-65127196D01*
X98725304Y-65125646D01*
X98838342Y-65068050D01*
X98912261Y-64994131D01*
X105069646Y-64994131D01*
X105087306Y-65129186D01*
X105100578Y-65159348D01*
X105136456Y-65240887D01*
X105142162Y-65253856D01*
X105147939Y-65260729D01*
X105147940Y-65260730D01*
X105219311Y-65345636D01*
X105229804Y-65358119D01*
X105343187Y-65433593D01*
X105393635Y-65449354D01*
X105458478Y-65469612D01*
X105473195Y-65474210D01*
X105609377Y-65476706D01*
X105659298Y-65463096D01*
X105732124Y-65443242D01*
X105732127Y-65443241D01*
X105740786Y-65440880D01*
X105748436Y-65436183D01*
X105748438Y-65436182D01*
X105849206Y-65374311D01*
X105849209Y-65374308D01*
X105856858Y-65369612D01*
X105865064Y-65360547D01*
X105942233Y-65275291D01*
X105942234Y-65275290D01*
X105948261Y-65268631D01*
X105955285Y-65254135D01*
X105963734Y-65236695D01*
X106011437Y-65184111D01*
X106079995Y-65165666D01*
X106147643Y-65187214D01*
X106192454Y-65240886D01*
X106203625Y-65266273D01*
X106237633Y-65343562D01*
X106242162Y-65353856D01*
X106247939Y-65360729D01*
X106247940Y-65360730D01*
X106318255Y-65444380D01*
X106329804Y-65458119D01*
X106354224Y-65474374D01*
X106434626Y-65527894D01*
X106443187Y-65533593D01*
X106500264Y-65551425D01*
X106553568Y-65568078D01*
X106573195Y-65574210D01*
X106709377Y-65576706D01*
X106752699Y-65564895D01*
X106832124Y-65543242D01*
X106832127Y-65543241D01*
X106840786Y-65540880D01*
X106848436Y-65536183D01*
X106848438Y-65536182D01*
X106949206Y-65474311D01*
X106949209Y-65474308D01*
X106956858Y-65469612D01*
X106982594Y-65441180D01*
X107042233Y-65375291D01*
X107042234Y-65375290D01*
X107048261Y-65368631D01*
X107055420Y-65353856D01*
X107103734Y-65254135D01*
X107103734Y-65254134D01*
X107107649Y-65246054D01*
X107123205Y-65153591D01*
X107129441Y-65116530D01*
X107129441Y-65116525D01*
X107130247Y-65111737D01*
X107130318Y-65105899D01*
X107130331Y-65104860D01*
X107130331Y-65104857D01*
X107130390Y-65100000D01*
X107116069Y-65000000D01*
X107112354Y-64974057D01*
X107112353Y-64974054D01*
X107111081Y-64965171D01*
X107054706Y-64841180D01*
X106965796Y-64737996D01*
X106911093Y-64702539D01*
X106859032Y-64668794D01*
X106859030Y-64668793D01*
X106851501Y-64663913D01*
X106842904Y-64661342D01*
X106842902Y-64661341D01*
X106752030Y-64634165D01*
X106721006Y-64624887D01*
X106712030Y-64624832D01*
X106712029Y-64624832D01*
X106655036Y-64624484D01*
X106584804Y-64624055D01*
X106576172Y-64626522D01*
X106462473Y-64659017D01*
X106462471Y-64659018D01*
X106453842Y-64661484D01*
X106338650Y-64734165D01*
X106332707Y-64740894D01*
X106332706Y-64740895D01*
X106304440Y-64772900D01*
X106248487Y-64836255D01*
X106239446Y-64855513D01*
X106237092Y-64860526D01*
X106190037Y-64913689D01*
X106121709Y-64932973D01*
X106053803Y-64912255D01*
X106008335Y-64859131D01*
X105993130Y-64825689D01*
X105954706Y-64741180D01*
X105865796Y-64637996D01*
X105848094Y-64626522D01*
X105759032Y-64568794D01*
X105759030Y-64568793D01*
X105751501Y-64563913D01*
X105742904Y-64561342D01*
X105742902Y-64561341D01*
X105665973Y-64538335D01*
X105621006Y-64524887D01*
X105612030Y-64524832D01*
X105612029Y-64524832D01*
X105555036Y-64524484D01*
X105484804Y-64524055D01*
X105476172Y-64526522D01*
X105362473Y-64559017D01*
X105362471Y-64559018D01*
X105353842Y-64561484D01*
X105346252Y-64566273D01*
X105253355Y-64624887D01*
X105238650Y-64634165D01*
X105232707Y-64640894D01*
X105232706Y-64640895D01*
X105204715Y-64672589D01*
X105148487Y-64736255D01*
X105144673Y-64744378D01*
X105144672Y-64744380D01*
X105131282Y-64772900D01*
X105090601Y-64859548D01*
X105089221Y-64868412D01*
X105089220Y-64868415D01*
X105072772Y-64974057D01*
X105069646Y-64994131D01*
X98912261Y-64994131D01*
X98928050Y-64978342D01*
X98985646Y-64865304D01*
X98988173Y-64849353D01*
X99003941Y-64749793D01*
X99005492Y-64740000D01*
X98995635Y-64677762D01*
X98987197Y-64624487D01*
X98987196Y-64624485D01*
X98985646Y-64614696D01*
X98965305Y-64574775D01*
X98952201Y-64504999D01*
X98978901Y-64439214D01*
X99036928Y-64398307D01*
X99107860Y-64395266D01*
X99134774Y-64405305D01*
X99174696Y-64425646D01*
X99184485Y-64427196D01*
X99184487Y-64427197D01*
X99290207Y-64443941D01*
X99300000Y-64445492D01*
X99309793Y-64443941D01*
X99415513Y-64427197D01*
X99415515Y-64427196D01*
X99425304Y-64425646D01*
X99538342Y-64368050D01*
X99628050Y-64278342D01*
X99685646Y-64165304D01*
X99705492Y-64040000D01*
X99694648Y-63971533D01*
X99687197Y-63924487D01*
X99687196Y-63924485D01*
X99685646Y-63914696D01*
X99628050Y-63801658D01*
X99538342Y-63711950D01*
X99425304Y-63654354D01*
X99415515Y-63652804D01*
X99415513Y-63652803D01*
X99309793Y-63636059D01*
X99300000Y-63634508D01*
X99290207Y-63636059D01*
X99184487Y-63652803D01*
X99184485Y-63652804D01*
X99174696Y-63654354D01*
X99061658Y-63711950D01*
X98971950Y-63801658D01*
X98914354Y-63914696D01*
X98912804Y-63924485D01*
X98912803Y-63924487D01*
X98905352Y-63971533D01*
X98894508Y-64040000D01*
X98914354Y-64165304D01*
X98918855Y-64174137D01*
X98934695Y-64205225D01*
X98947799Y-64275001D01*
X98921099Y-64340786D01*
X98863072Y-64381693D01*
X98792140Y-64384734D01*
X98765225Y-64374695D01*
X98725304Y-64354354D01*
X98715515Y-64352804D01*
X98715513Y-64352803D01*
X98609793Y-64336059D01*
X98600000Y-64334508D01*
X98590207Y-64336059D01*
X98484487Y-64352803D01*
X98484485Y-64352804D01*
X98474696Y-64354354D01*
X98361658Y-64411950D01*
X98271950Y-64501658D01*
X98214354Y-64614696D01*
X98212804Y-64624485D01*
X98212803Y-64624487D01*
X98204365Y-64677762D01*
X98194508Y-64740000D01*
X97605492Y-64740000D01*
X97595635Y-64677762D01*
X97587197Y-64624487D01*
X97587196Y-64624485D01*
X97585646Y-64614696D01*
X97528050Y-64501658D01*
X97438342Y-64411950D01*
X97325304Y-64354354D01*
X97315515Y-64352804D01*
X97315513Y-64352803D01*
X97209793Y-64336059D01*
X97200000Y-64334508D01*
X97190207Y-64336059D01*
X97084487Y-64352803D01*
X97084485Y-64352804D01*
X97074696Y-64354354D01*
X97034775Y-64374695D01*
X96964999Y-64387799D01*
X96899214Y-64361099D01*
X96858307Y-64303072D01*
X96855266Y-64232140D01*
X96865305Y-64205225D01*
X96881145Y-64174137D01*
X96885646Y-64165304D01*
X96905492Y-64040000D01*
X96894648Y-63971533D01*
X96887197Y-63924487D01*
X96887196Y-63924485D01*
X96885646Y-63914696D01*
X96828050Y-63801658D01*
X96738342Y-63711950D01*
X96625304Y-63654354D01*
X96615515Y-63652804D01*
X96615513Y-63652803D01*
X96509793Y-63636059D01*
X96500000Y-63634508D01*
X96490207Y-63636059D01*
X96384487Y-63652803D01*
X96384485Y-63652804D01*
X96374696Y-63654354D01*
X96261658Y-63711950D01*
X96171950Y-63801658D01*
X96114354Y-63914696D01*
X96112804Y-63924485D01*
X96112803Y-63924487D01*
X96105352Y-63971533D01*
X96094508Y-64040000D01*
X93400212Y-64040000D01*
X93355762Y-63942236D01*
X93266852Y-63839052D01*
X93216660Y-63806519D01*
X93160088Y-63769850D01*
X93160086Y-63769849D01*
X93152557Y-63764969D01*
X93143960Y-63762398D01*
X93143958Y-63762397D01*
X93031140Y-63728658D01*
X93022062Y-63725943D01*
X93013086Y-63725888D01*
X93013085Y-63725888D01*
X92956092Y-63725540D01*
X92885860Y-63725111D01*
X92877228Y-63727578D01*
X92763529Y-63760073D01*
X92763527Y-63760074D01*
X92754898Y-63762540D01*
X92747308Y-63767329D01*
X92660906Y-63821845D01*
X92639706Y-63835221D01*
X92633763Y-63841950D01*
X92633762Y-63841951D01*
X92590455Y-63890987D01*
X92549543Y-63937311D01*
X92545729Y-63945434D01*
X92545728Y-63945436D01*
X92531047Y-63976706D01*
X92491657Y-64060604D01*
X92490277Y-64069468D01*
X92490276Y-64069471D01*
X92473980Y-64174137D01*
X92470702Y-64195187D01*
X92471866Y-64204089D01*
X92471866Y-64204092D01*
X92476008Y-64235763D01*
X92488362Y-64330242D01*
X92543218Y-64454912D01*
X92548993Y-64461782D01*
X92549911Y-64463257D01*
X92568927Y-64531660D01*
X92547943Y-64599484D01*
X92493621Y-64645197D01*
X92423208Y-64654284D01*
X92406838Y-64650556D01*
X92392322Y-64646215D01*
X92321006Y-64624887D01*
X92312030Y-64624832D01*
X92312029Y-64624832D01*
X92255036Y-64624484D01*
X92184804Y-64624055D01*
X92176172Y-64626522D01*
X92062473Y-64659017D01*
X92062471Y-64659018D01*
X92053842Y-64661484D01*
X91938650Y-64734165D01*
X91932707Y-64740894D01*
X91932706Y-64740895D01*
X91904440Y-64772900D01*
X91848487Y-64836255D01*
X91844673Y-64844378D01*
X91844672Y-64844380D01*
X91833388Y-64868415D01*
X91790601Y-64959548D01*
X91789221Y-64968412D01*
X91789220Y-64968415D01*
X91773707Y-65068050D01*
X91769646Y-65094131D01*
X91770810Y-65103033D01*
X91770810Y-65103036D01*
X91777421Y-65153591D01*
X91787306Y-65229186D01*
X91802586Y-65263913D01*
X91839477Y-65347754D01*
X91848605Y-65418162D01*
X91818218Y-65482327D01*
X91757964Y-65519877D01*
X91724148Y-65524500D01*
X88030119Y-65524500D01*
X87961998Y-65504498D01*
X87915505Y-65450842D01*
X87904162Y-65395201D01*
X87905118Y-65358704D01*
X87905215Y-65355000D01*
X87886708Y-65153591D01*
X87884583Y-65146054D01*
X87839260Y-64985353D01*
X87831807Y-64958926D01*
X87742351Y-64777527D01*
X87724079Y-64753057D01*
X87624788Y-64620091D01*
X87624787Y-64620090D01*
X87621335Y-64615467D01*
X87617099Y-64611551D01*
X87477053Y-64482094D01*
X87477051Y-64482092D01*
X87472812Y-64478174D01*
X87441114Y-64458174D01*
X87306637Y-64373325D01*
X87301757Y-64370246D01*
X87113898Y-64295298D01*
X86915526Y-64255839D01*
X86909752Y-64255763D01*
X86909748Y-64255763D01*
X86807257Y-64254422D01*
X86713286Y-64253192D01*
X86707589Y-64254171D01*
X86707588Y-64254171D01*
X86519646Y-64286465D01*
X86519645Y-64286465D01*
X86513949Y-64287444D01*
X86324193Y-64357449D01*
X86319232Y-64360401D01*
X86319231Y-64360401D01*
X86176206Y-64445492D01*
X86150371Y-64460862D01*
X85998305Y-64594220D01*
X85873089Y-64753057D01*
X85778914Y-64932053D01*
X85718937Y-65125213D01*
X85695164Y-65326069D01*
X85150500Y-65326069D01*
X85150500Y-62786069D01*
X85695164Y-62786069D01*
X85708392Y-62987894D01*
X85725462Y-63055108D01*
X85755752Y-63174374D01*
X85758178Y-63183928D01*
X85842856Y-63367607D01*
X85846189Y-63372323D01*
X85948104Y-63516530D01*
X85959588Y-63532780D01*
X86104466Y-63673913D01*
X86272637Y-63786282D01*
X86277940Y-63788560D01*
X86277943Y-63788562D01*
X86451427Y-63863096D01*
X86458470Y-63866122D01*
X86568357Y-63890987D01*
X86634099Y-63905863D01*
X86655740Y-63910760D01*
X86661509Y-63910987D01*
X86661512Y-63910987D01*
X86737683Y-63913979D01*
X86857842Y-63918700D01*
X86946379Y-63905863D01*
X87052286Y-63890508D01*
X87052291Y-63890507D01*
X87058007Y-63889678D01*
X87063479Y-63887820D01*
X87063481Y-63887820D01*
X87244067Y-63826519D01*
X87244069Y-63826518D01*
X87249531Y-63824664D01*
X87426001Y-63725837D01*
X87434269Y-63718961D01*
X87508620Y-63657123D01*
X87581505Y-63596505D01*
X87710837Y-63441001D01*
X87722038Y-63421001D01*
X87754875Y-63362364D01*
X87765086Y-63344131D01*
X100069646Y-63344131D01*
X100070810Y-63353033D01*
X100070810Y-63353036D01*
X100072821Y-63368415D01*
X100087306Y-63479186D01*
X100142162Y-63603856D01*
X100147939Y-63610729D01*
X100147940Y-63610730D01*
X100177633Y-63646054D01*
X100229804Y-63708119D01*
X100254129Y-63724311D01*
X100315209Y-63764969D01*
X100343187Y-63783593D01*
X100473195Y-63824210D01*
X100609377Y-63826706D01*
X100652542Y-63814938D01*
X100732124Y-63793242D01*
X100732127Y-63793241D01*
X100740786Y-63790880D01*
X100748436Y-63786183D01*
X100748438Y-63786182D01*
X100849206Y-63724311D01*
X100849209Y-63724308D01*
X100856858Y-63719612D01*
X100863794Y-63711950D01*
X100942233Y-63625291D01*
X100942234Y-63625290D01*
X100948261Y-63618631D01*
X100955420Y-63603856D01*
X101003734Y-63504135D01*
X101003734Y-63504134D01*
X101007649Y-63496054D01*
X101007973Y-63494131D01*
X109269646Y-63494131D01*
X109270810Y-63503033D01*
X109270810Y-63503036D01*
X109274700Y-63532780D01*
X109287306Y-63629186D01*
X109342162Y-63753856D01*
X109347939Y-63760729D01*
X109347940Y-63760730D01*
X109416213Y-63841951D01*
X109429804Y-63858119D01*
X109477214Y-63889678D01*
X109520814Y-63918700D01*
X109543187Y-63933593D01*
X109673195Y-63974210D01*
X109809377Y-63976706D01*
X109852542Y-63964938D01*
X109932124Y-63943242D01*
X109932127Y-63943241D01*
X109940786Y-63940880D01*
X109948436Y-63936183D01*
X109948438Y-63936182D01*
X110049206Y-63874311D01*
X110049209Y-63874308D01*
X110056858Y-63869612D01*
X110081896Y-63841951D01*
X110142233Y-63775291D01*
X110142234Y-63775290D01*
X110148261Y-63768631D01*
X110152408Y-63760073D01*
X110203734Y-63654135D01*
X110203734Y-63654134D01*
X110207649Y-63646054D01*
X110230247Y-63511737D01*
X110230390Y-63500000D01*
X110219712Y-63425439D01*
X110212354Y-63374057D01*
X110212353Y-63374054D01*
X110211081Y-63365171D01*
X110207311Y-63356878D01*
X110165323Y-63264531D01*
X110154706Y-63241180D01*
X110065796Y-63137996D01*
X110045285Y-63124701D01*
X109959032Y-63068794D01*
X109959030Y-63068793D01*
X109951501Y-63063913D01*
X109942904Y-63061342D01*
X109942902Y-63061341D01*
X109865973Y-63038335D01*
X109821006Y-63024887D01*
X109812030Y-63024832D01*
X109812029Y-63024832D01*
X109755036Y-63024484D01*
X109684804Y-63024055D01*
X109676172Y-63026522D01*
X109562473Y-63059017D01*
X109562471Y-63059018D01*
X109553842Y-63061484D01*
X109438650Y-63134165D01*
X109432707Y-63140894D01*
X109432706Y-63140895D01*
X109401225Y-63176541D01*
X109348487Y-63236255D01*
X109290601Y-63359548D01*
X109289221Y-63368412D01*
X109289220Y-63368415D01*
X109273360Y-63470281D01*
X109269646Y-63494131D01*
X101007973Y-63494131D01*
X101021124Y-63415964D01*
X101029441Y-63366530D01*
X101029441Y-63366525D01*
X101030247Y-63361737D01*
X101030390Y-63350000D01*
X101018150Y-63264531D01*
X101012354Y-63224057D01*
X101012353Y-63224054D01*
X101011081Y-63215171D01*
X100954706Y-63091180D01*
X100865796Y-62987996D01*
X100846195Y-62975291D01*
X100759032Y-62918794D01*
X100759030Y-62918793D01*
X100751501Y-62913913D01*
X100742904Y-62911342D01*
X100742902Y-62911341D01*
X100656002Y-62885353D01*
X100621006Y-62874887D01*
X100612030Y-62874832D01*
X100612029Y-62874832D01*
X100555036Y-62874484D01*
X100484804Y-62874055D01*
X100476172Y-62876522D01*
X100362473Y-62909017D01*
X100362471Y-62909018D01*
X100353842Y-62911484D01*
X100346252Y-62916273D01*
X100257059Y-62972550D01*
X100238650Y-62984165D01*
X100232707Y-62990894D01*
X100232706Y-62990895D01*
X100184488Y-63045492D01*
X100148487Y-63086255D01*
X100144673Y-63094378D01*
X100144672Y-63094380D01*
X100121732Y-63143242D01*
X100090601Y-63209548D01*
X100089221Y-63218412D01*
X100089220Y-63218415D01*
X100082891Y-63259067D01*
X100069646Y-63344131D01*
X87765086Y-63344131D01*
X87809664Y-63264531D01*
X87816505Y-63244380D01*
X87828326Y-63209555D01*
X87869163Y-63151479D01*
X87934916Y-63124701D01*
X87992823Y-63134757D01*
X87993187Y-63133593D01*
X88107079Y-63169175D01*
X88123195Y-63174210D01*
X88259377Y-63176706D01*
X88302542Y-63164938D01*
X88382124Y-63143242D01*
X88382127Y-63143241D01*
X88390786Y-63140880D01*
X88398436Y-63136183D01*
X88398438Y-63136182D01*
X88499206Y-63074311D01*
X88499209Y-63074308D01*
X88506858Y-63069612D01*
X88514345Y-63061341D01*
X88592233Y-62975291D01*
X88592234Y-62975290D01*
X88598261Y-62968631D01*
X88625949Y-62911484D01*
X88653734Y-62854135D01*
X88653734Y-62854134D01*
X88657649Y-62846054D01*
X88680247Y-62711737D01*
X88680390Y-62700000D01*
X88671797Y-62640000D01*
X96094508Y-62640000D01*
X96114354Y-62765304D01*
X96171950Y-62878342D01*
X96261658Y-62968050D01*
X96374696Y-63025646D01*
X96384485Y-63027196D01*
X96384487Y-63027197D01*
X96490207Y-63043941D01*
X96500000Y-63045492D01*
X96509793Y-63043941D01*
X96615513Y-63027197D01*
X96615515Y-63027196D01*
X96625304Y-63025646D01*
X96738342Y-62968050D01*
X96828050Y-62878342D01*
X96885646Y-62765304D01*
X96905492Y-62640000D01*
X96903941Y-62630207D01*
X96887197Y-62524487D01*
X96887196Y-62524485D01*
X96885646Y-62514696D01*
X96865305Y-62474775D01*
X96852201Y-62404999D01*
X96878901Y-62339214D01*
X96936928Y-62298307D01*
X97007860Y-62295266D01*
X97034774Y-62305305D01*
X97074696Y-62325646D01*
X97084485Y-62327196D01*
X97084487Y-62327197D01*
X97190207Y-62343941D01*
X97200000Y-62345492D01*
X97209793Y-62343941D01*
X97315513Y-62327197D01*
X97315515Y-62327196D01*
X97325304Y-62325646D01*
X97438342Y-62268050D01*
X97528050Y-62178342D01*
X97585646Y-62065304D01*
X97587825Y-62051551D01*
X97603941Y-61949793D01*
X97605492Y-61940000D01*
X98194508Y-61940000D01*
X98196059Y-61949793D01*
X98212176Y-62051551D01*
X98214354Y-62065304D01*
X98271950Y-62178342D01*
X98361658Y-62268050D01*
X98474696Y-62325646D01*
X98484485Y-62327196D01*
X98484487Y-62327197D01*
X98590207Y-62343941D01*
X98600000Y-62345492D01*
X98609793Y-62343941D01*
X98715513Y-62327197D01*
X98715515Y-62327196D01*
X98725304Y-62325646D01*
X98765225Y-62305305D01*
X98835001Y-62292201D01*
X98900786Y-62318901D01*
X98941693Y-62376928D01*
X98944734Y-62447860D01*
X98934695Y-62474774D01*
X98914354Y-62514696D01*
X98912804Y-62524485D01*
X98912803Y-62524487D01*
X98896059Y-62630207D01*
X98894508Y-62640000D01*
X98914354Y-62765304D01*
X98971950Y-62878342D01*
X99061658Y-62968050D01*
X99174696Y-63025646D01*
X99184485Y-63027196D01*
X99184487Y-63027197D01*
X99290207Y-63043941D01*
X99300000Y-63045492D01*
X99309793Y-63043941D01*
X99415513Y-63027197D01*
X99415515Y-63027196D01*
X99425304Y-63025646D01*
X99538342Y-62968050D01*
X99628050Y-62878342D01*
X99685256Y-62766069D01*
X111095164Y-62766069D01*
X111108392Y-62967894D01*
X111114894Y-62993496D01*
X111153320Y-63144798D01*
X111158178Y-63163928D01*
X111242856Y-63347607D01*
X111246189Y-63352323D01*
X111353991Y-63504860D01*
X111359588Y-63512780D01*
X111504466Y-63653913D01*
X111672637Y-63766282D01*
X111677940Y-63768560D01*
X111677943Y-63768562D01*
X111812894Y-63826541D01*
X111858470Y-63846122D01*
X112055740Y-63890760D01*
X112061509Y-63890987D01*
X112061512Y-63890987D01*
X112137683Y-63893979D01*
X112257842Y-63898700D01*
X112344132Y-63886189D01*
X112452286Y-63870508D01*
X112452291Y-63870507D01*
X112458007Y-63869678D01*
X112463479Y-63867820D01*
X112463481Y-63867820D01*
X112644067Y-63806519D01*
X112644069Y-63806518D01*
X112649531Y-63804664D01*
X112791486Y-63725166D01*
X112820964Y-63708658D01*
X112820965Y-63708657D01*
X112826001Y-63705837D01*
X112888433Y-63653913D01*
X112918163Y-63629186D01*
X112981505Y-63576505D01*
X113110837Y-63421001D01*
X113209664Y-63244531D01*
X113212474Y-63236255D01*
X113272820Y-63058481D01*
X113272820Y-63058479D01*
X113274678Y-63053007D01*
X113275507Y-63047291D01*
X113275508Y-63047286D01*
X113300003Y-62878342D01*
X113303700Y-62852842D01*
X113305215Y-62795000D01*
X113286708Y-62593591D01*
X113231807Y-62398926D01*
X113145953Y-62224832D01*
X113144906Y-62222708D01*
X113142351Y-62217527D01*
X113124079Y-62193057D01*
X113024788Y-62060091D01*
X113024787Y-62060090D01*
X113021335Y-62055467D01*
X113017088Y-62051541D01*
X112877053Y-61922094D01*
X112877051Y-61922092D01*
X112872812Y-61918174D01*
X112845374Y-61900862D01*
X112706637Y-61813325D01*
X112701757Y-61810246D01*
X112513898Y-61735298D01*
X112315526Y-61695839D01*
X112309752Y-61695763D01*
X112309748Y-61695763D01*
X112207257Y-61694422D01*
X112113286Y-61693192D01*
X112107589Y-61694171D01*
X112107588Y-61694171D01*
X111919646Y-61726465D01*
X111919645Y-61726465D01*
X111913949Y-61727444D01*
X111724193Y-61797449D01*
X111719232Y-61800401D01*
X111719231Y-61800401D01*
X111624302Y-61856878D01*
X111550371Y-61900862D01*
X111398305Y-62034220D01*
X111273089Y-62193057D01*
X111178914Y-62372053D01*
X111118937Y-62565213D01*
X111095164Y-62766069D01*
X99685256Y-62766069D01*
X99685646Y-62765304D01*
X99705492Y-62640000D01*
X99703941Y-62630207D01*
X99687197Y-62524487D01*
X99687196Y-62524485D01*
X99685646Y-62514696D01*
X99628050Y-62401658D01*
X99538342Y-62311950D01*
X99425304Y-62254354D01*
X99415515Y-62252804D01*
X99415513Y-62252803D01*
X99309793Y-62236059D01*
X99300000Y-62234508D01*
X99290207Y-62236059D01*
X99184487Y-62252803D01*
X99184485Y-62252804D01*
X99174696Y-62254354D01*
X99146356Y-62268794D01*
X99134775Y-62274695D01*
X99064999Y-62287799D01*
X98999214Y-62261099D01*
X98958307Y-62203072D01*
X98955266Y-62132140D01*
X98965305Y-62105225D01*
X98970191Y-62095636D01*
X98985646Y-62065304D01*
X98987825Y-62051551D01*
X99003941Y-61949793D01*
X99005492Y-61940000D01*
X98993856Y-61866530D01*
X98987197Y-61824487D01*
X98987196Y-61824485D01*
X98985646Y-61814696D01*
X98928050Y-61701658D01*
X98838342Y-61611950D01*
X98754305Y-61569131D01*
X100194646Y-61569131D01*
X100195810Y-61578033D01*
X100195810Y-61578036D01*
X100200245Y-61611950D01*
X100212306Y-61704186D01*
X100222109Y-61726465D01*
X100254642Y-61800401D01*
X100267162Y-61828856D01*
X100272939Y-61835729D01*
X100272940Y-61835730D01*
X100349024Y-61926243D01*
X100354804Y-61933119D01*
X100468187Y-62008593D01*
X100499072Y-62018242D01*
X100550215Y-62034220D01*
X100598195Y-62049210D01*
X100734377Y-62051706D01*
X100781855Y-62038762D01*
X100857124Y-62018242D01*
X100857127Y-62018241D01*
X100865786Y-62015880D01*
X100873436Y-62011183D01*
X100873438Y-62011182D01*
X100974206Y-61949311D01*
X100974209Y-61949308D01*
X100981858Y-61944612D01*
X100990406Y-61935169D01*
X101067233Y-61850291D01*
X101067234Y-61850290D01*
X101073261Y-61843631D01*
X101077318Y-61835259D01*
X101128734Y-61729135D01*
X101128734Y-61729134D01*
X101132649Y-61721054D01*
X101151762Y-61607450D01*
X101154441Y-61591530D01*
X101154441Y-61591525D01*
X101155247Y-61586737D01*
X101155390Y-61575000D01*
X101142930Y-61487996D01*
X101137354Y-61449057D01*
X101137353Y-61449054D01*
X101136081Y-61440171D01*
X101079706Y-61316180D01*
X100990796Y-61212996D01*
X100977494Y-61204374D01*
X100884032Y-61143794D01*
X100884030Y-61143793D01*
X100876501Y-61138913D01*
X100867904Y-61136342D01*
X100867902Y-61136341D01*
X100790973Y-61113335D01*
X100746006Y-61099887D01*
X100737030Y-61099832D01*
X100737029Y-61099832D01*
X100680036Y-61099484D01*
X100609804Y-61099055D01*
X100601172Y-61101522D01*
X100487473Y-61134017D01*
X100487471Y-61134018D01*
X100478842Y-61136484D01*
X100363650Y-61209165D01*
X100357707Y-61215894D01*
X100357706Y-61215895D01*
X100285326Y-61297849D01*
X100273487Y-61311255D01*
X100269673Y-61319378D01*
X100269672Y-61319380D01*
X100246148Y-61369485D01*
X100215601Y-61434548D01*
X100214221Y-61443412D01*
X100214220Y-61443415D01*
X100196947Y-61554354D01*
X100194646Y-61569131D01*
X98754305Y-61569131D01*
X98725304Y-61554354D01*
X98715515Y-61552804D01*
X98715513Y-61552803D01*
X98609793Y-61536059D01*
X98600000Y-61534508D01*
X98590207Y-61536059D01*
X98484487Y-61552803D01*
X98484485Y-61552804D01*
X98474696Y-61554354D01*
X98361658Y-61611950D01*
X98271950Y-61701658D01*
X98214354Y-61814696D01*
X98212804Y-61824485D01*
X98212803Y-61824487D01*
X98206144Y-61866530D01*
X98194508Y-61940000D01*
X97605492Y-61940000D01*
X97593856Y-61866530D01*
X97587197Y-61824487D01*
X97587196Y-61824485D01*
X97585646Y-61814696D01*
X97528050Y-61701658D01*
X97438342Y-61611950D01*
X97325304Y-61554354D01*
X97315515Y-61552804D01*
X97315513Y-61552803D01*
X97209793Y-61536059D01*
X97200000Y-61534508D01*
X97190207Y-61536059D01*
X97084487Y-61552803D01*
X97084485Y-61552804D01*
X97074696Y-61554354D01*
X96961658Y-61611950D01*
X96871950Y-61701658D01*
X96814354Y-61814696D01*
X96812804Y-61824485D01*
X96812803Y-61824487D01*
X96806144Y-61866530D01*
X96794508Y-61940000D01*
X96796059Y-61949793D01*
X96812176Y-62051551D01*
X96814354Y-62065304D01*
X96829809Y-62095636D01*
X96834695Y-62105225D01*
X96847799Y-62175001D01*
X96821099Y-62240786D01*
X96763072Y-62281693D01*
X96692140Y-62284734D01*
X96665225Y-62274695D01*
X96653644Y-62268794D01*
X96625304Y-62254354D01*
X96615515Y-62252804D01*
X96615513Y-62252803D01*
X96509793Y-62236059D01*
X96500000Y-62234508D01*
X96490207Y-62236059D01*
X96384487Y-62252803D01*
X96384485Y-62252804D01*
X96374696Y-62254354D01*
X96261658Y-62311950D01*
X96171950Y-62401658D01*
X96114354Y-62514696D01*
X96112804Y-62524485D01*
X96112803Y-62524487D01*
X96096059Y-62630207D01*
X96094508Y-62640000D01*
X88671797Y-62640000D01*
X88664773Y-62590950D01*
X88662354Y-62574057D01*
X88662353Y-62574054D01*
X88661081Y-62565171D01*
X88604706Y-62441180D01*
X88515796Y-62337996D01*
X88497898Y-62326395D01*
X88409032Y-62268794D01*
X88409030Y-62268793D01*
X88401501Y-62263913D01*
X88392904Y-62261342D01*
X88392902Y-62261341D01*
X88308363Y-62236059D01*
X88271006Y-62224887D01*
X88262030Y-62224832D01*
X88262029Y-62224832D01*
X88205036Y-62224484D01*
X88134804Y-62224055D01*
X88126172Y-62226522D01*
X88012473Y-62259017D01*
X88012471Y-62259018D01*
X88003842Y-62261484D01*
X87996250Y-62266274D01*
X87996246Y-62266276D01*
X87931766Y-62306960D01*
X87863481Y-62326395D01*
X87795529Y-62305826D01*
X87751525Y-62256130D01*
X87749884Y-62252803D01*
X87742351Y-62237527D01*
X87724108Y-62213096D01*
X87624788Y-62080091D01*
X87624787Y-62080090D01*
X87621335Y-62075467D01*
X87565007Y-62023398D01*
X87528562Y-61962469D01*
X87530843Y-61891509D01*
X87559993Y-61844131D01*
X88619646Y-61844131D01*
X88620810Y-61853033D01*
X88620810Y-61853036D01*
X88621948Y-61861737D01*
X88637306Y-61979186D01*
X88663520Y-62038762D01*
X88679671Y-62075467D01*
X88692162Y-62103856D01*
X88697939Y-62110729D01*
X88697940Y-62110730D01*
X88710180Y-62125291D01*
X88779804Y-62208119D01*
X88893187Y-62283593D01*
X88920740Y-62292201D01*
X89006202Y-62318901D01*
X89023195Y-62324210D01*
X89159377Y-62326706D01*
X89230008Y-62307450D01*
X89282124Y-62293242D01*
X89282127Y-62293241D01*
X89290786Y-62290880D01*
X89298436Y-62286183D01*
X89298438Y-62286182D01*
X89399206Y-62224311D01*
X89399209Y-62224308D01*
X89406858Y-62219612D01*
X89412934Y-62212900D01*
X89492233Y-62125291D01*
X89492234Y-62125290D01*
X89498261Y-62118631D01*
X89505420Y-62103856D01*
X89553734Y-62004135D01*
X89553734Y-62004134D01*
X89557649Y-61996054D01*
X89571270Y-61915093D01*
X89579441Y-61866530D01*
X89579441Y-61866525D01*
X89580247Y-61861737D01*
X89580390Y-61850000D01*
X89572578Y-61795451D01*
X89562354Y-61724057D01*
X89562353Y-61724054D01*
X89561081Y-61715171D01*
X89556087Y-61704186D01*
X89508422Y-61599354D01*
X89504706Y-61591180D01*
X89415796Y-61487996D01*
X89402494Y-61479374D01*
X89309032Y-61418794D01*
X89309030Y-61418793D01*
X89301501Y-61413913D01*
X89292904Y-61411342D01*
X89292902Y-61411341D01*
X89215973Y-61388335D01*
X89171006Y-61374887D01*
X89162030Y-61374832D01*
X89162029Y-61374832D01*
X89105036Y-61374484D01*
X89034804Y-61374055D01*
X89026172Y-61376522D01*
X88912473Y-61409017D01*
X88912471Y-61409018D01*
X88903842Y-61411484D01*
X88788650Y-61484165D01*
X88698487Y-61586255D01*
X88694673Y-61594378D01*
X88694672Y-61594380D01*
X88666865Y-61653607D01*
X88640601Y-61709548D01*
X88639221Y-61718412D01*
X88639220Y-61718415D01*
X88622705Y-61824487D01*
X88619646Y-61844131D01*
X87559993Y-61844131D01*
X87561441Y-61841778D01*
X88234562Y-61168658D01*
X88927192Y-60476028D01*
X88945409Y-60461315D01*
X88946960Y-60459904D01*
X88955710Y-60454254D01*
X88962158Y-60446074D01*
X88962161Y-60446072D01*
X88976234Y-60428221D01*
X88980121Y-60423847D01*
X88980043Y-60423781D01*
X88983398Y-60419822D01*
X88987076Y-60416144D01*
X88990095Y-60411920D01*
X88990102Y-60411911D01*
X88998179Y-60400608D01*
X89001743Y-60395862D01*
X89026654Y-60364262D01*
X89033103Y-60356082D01*
X89036105Y-60347534D01*
X89041372Y-60340163D01*
X89044506Y-60329686D01*
X89055896Y-60291599D01*
X89057731Y-60285952D01*
X89071895Y-60245618D01*
X89071895Y-60245617D01*
X89074523Y-60238134D01*
X89075000Y-60232627D01*
X89075000Y-60229920D01*
X89075111Y-60227350D01*
X89075159Y-60227188D01*
X89075304Y-60227194D01*
X89075343Y-60226574D01*
X89077191Y-60220395D01*
X89076179Y-60194631D01*
X91769646Y-60194631D01*
X91770810Y-60203533D01*
X91770810Y-60203536D01*
X91775622Y-60240334D01*
X91787306Y-60329686D01*
X91842162Y-60454356D01*
X91847939Y-60461229D01*
X91847940Y-60461230D01*
X91923604Y-60551243D01*
X91929804Y-60558619D01*
X91937281Y-60563596D01*
X92019501Y-60618326D01*
X92043187Y-60634093D01*
X92173195Y-60674710D01*
X92309377Y-60677206D01*
X92352542Y-60665438D01*
X92432124Y-60643742D01*
X92432127Y-60643741D01*
X92440786Y-60641380D01*
X92448436Y-60636683D01*
X92448438Y-60636682D01*
X92549206Y-60574811D01*
X92549209Y-60574808D01*
X92556858Y-60570112D01*
X92563337Y-60562955D01*
X92642233Y-60475791D01*
X92642234Y-60475790D01*
X92648261Y-60469131D01*
X92652332Y-60460730D01*
X92703734Y-60354635D01*
X92703734Y-60354634D01*
X92707649Y-60346554D01*
X92722429Y-60258704D01*
X92729441Y-60217030D01*
X92729441Y-60217025D01*
X92730247Y-60212237D01*
X92730390Y-60200500D01*
X92719488Y-60124374D01*
X92712354Y-60074557D01*
X92712353Y-60074554D01*
X92711081Y-60065671D01*
X92707140Y-60057002D01*
X92684914Y-60008119D01*
X92654706Y-59941680D01*
X92628038Y-59910730D01*
X92571657Y-59845298D01*
X92565796Y-59838496D01*
X92547963Y-59826937D01*
X92459032Y-59769294D01*
X92459030Y-59769293D01*
X92451501Y-59764413D01*
X92442904Y-59761842D01*
X92442902Y-59761841D01*
X92354016Y-59735259D01*
X92321006Y-59725387D01*
X92312030Y-59725332D01*
X92312029Y-59725332D01*
X92255036Y-59724984D01*
X92184804Y-59724555D01*
X92176172Y-59727022D01*
X92062473Y-59759517D01*
X92062471Y-59759518D01*
X92053842Y-59761984D01*
X92046252Y-59766773D01*
X91951526Y-59826541D01*
X91938650Y-59834665D01*
X91932707Y-59841394D01*
X91932706Y-59841395D01*
X91923293Y-59852053D01*
X91848487Y-59936755D01*
X91844673Y-59944878D01*
X91844672Y-59944880D01*
X91842337Y-59949854D01*
X91790601Y-60060048D01*
X91789221Y-60068912D01*
X91789220Y-60068915D01*
X91774317Y-60164633D01*
X91769646Y-60194631D01*
X89076179Y-60194631D01*
X89075097Y-60167101D01*
X89075000Y-60162155D01*
X89075000Y-60088621D01*
X89095703Y-60020904D01*
X89097761Y-60018631D01*
X89125377Y-59961631D01*
X89153234Y-59904135D01*
X89153234Y-59904134D01*
X89157149Y-59896054D01*
X89169687Y-59821533D01*
X89178941Y-59766530D01*
X89178941Y-59766525D01*
X89179747Y-59761737D01*
X89179890Y-59750000D01*
X89173117Y-59702708D01*
X89161854Y-59624057D01*
X89161853Y-59624054D01*
X89160581Y-59615171D01*
X89155437Y-59603856D01*
X89122561Y-59531551D01*
X89104206Y-59491180D01*
X89015296Y-59387996D01*
X88973434Y-59360862D01*
X88947622Y-59344131D01*
X102269646Y-59344131D01*
X102270810Y-59353033D01*
X102270810Y-59353036D01*
X102274254Y-59379374D01*
X102287306Y-59479186D01*
X102293921Y-59494220D01*
X102325355Y-59565658D01*
X102342162Y-59603856D01*
X102347939Y-59610729D01*
X102347940Y-59610730D01*
X102424024Y-59701243D01*
X102429804Y-59708119D01*
X102543187Y-59783593D01*
X102673195Y-59824210D01*
X102809377Y-59826706D01*
X102852542Y-59814938D01*
X102932124Y-59793242D01*
X102932127Y-59793241D01*
X102940786Y-59790880D01*
X102948436Y-59786183D01*
X102948438Y-59786182D01*
X103049206Y-59724311D01*
X103049209Y-59724308D01*
X103056858Y-59719612D01*
X103070684Y-59704338D01*
X103142233Y-59625291D01*
X103142234Y-59625290D01*
X103148261Y-59618631D01*
X103153896Y-59607002D01*
X103203734Y-59504135D01*
X103203734Y-59504134D01*
X103207649Y-59496054D01*
X103224685Y-59394798D01*
X103229441Y-59366530D01*
X103229441Y-59366525D01*
X103230247Y-59361737D01*
X103230390Y-59350000D01*
X103224521Y-59309017D01*
X103212354Y-59224057D01*
X103212353Y-59224054D01*
X103211081Y-59215171D01*
X103178781Y-59144131D01*
X104069646Y-59144131D01*
X104070810Y-59153033D01*
X104070810Y-59153036D01*
X104075571Y-59189445D01*
X104087306Y-59279186D01*
X104100432Y-59309017D01*
X104132587Y-59382094D01*
X104142162Y-59403856D01*
X104147939Y-59410729D01*
X104147940Y-59410730D01*
X104212393Y-59487406D01*
X104229804Y-59508119D01*
X104343187Y-59583593D01*
X104381735Y-59595636D01*
X104455338Y-59618631D01*
X104473195Y-59624210D01*
X104609377Y-59626706D01*
X104622578Y-59623107D01*
X104693561Y-59624487D01*
X104752530Y-59664024D01*
X104780656Y-59728332D01*
X104781562Y-59735259D01*
X104787306Y-59779186D01*
X104793491Y-59793242D01*
X104831193Y-59878926D01*
X104842162Y-59903856D01*
X104847939Y-59910729D01*
X104847940Y-59910730D01*
X104869816Y-59936755D01*
X104929804Y-60008119D01*
X104937281Y-60013096D01*
X105021137Y-60068915D01*
X105043187Y-60083593D01*
X105051757Y-60086270D01*
X105051756Y-60086270D01*
X105162258Y-60120793D01*
X105173195Y-60124210D01*
X105202282Y-60124743D01*
X105270025Y-60145990D01*
X105315527Y-60200488D01*
X105324910Y-60234385D01*
X105327605Y-60255000D01*
X105335169Y-60312842D01*
X105337306Y-60329186D01*
X105392162Y-60453856D01*
X105397939Y-60460729D01*
X105397940Y-60460730D01*
X105441883Y-60513007D01*
X105479804Y-60558119D01*
X105593187Y-60633593D01*
X105723195Y-60674210D01*
X105859377Y-60676706D01*
X105902542Y-60664938D01*
X105982124Y-60643242D01*
X105982127Y-60643241D01*
X105990786Y-60640880D01*
X105998436Y-60636183D01*
X105998438Y-60636182D01*
X106099206Y-60574311D01*
X106099209Y-60574308D01*
X106106858Y-60569612D01*
X106116809Y-60558619D01*
X106192233Y-60475291D01*
X106192234Y-60475290D01*
X106198261Y-60468631D01*
X106204777Y-60455183D01*
X106253734Y-60354135D01*
X106253734Y-60354134D01*
X106257649Y-60346054D01*
X106275806Y-60238134D01*
X106277836Y-60226069D01*
X111095164Y-60226069D01*
X111108392Y-60427894D01*
X111128555Y-60507286D01*
X111144511Y-60570112D01*
X111158178Y-60623928D01*
X111242856Y-60807607D01*
X111359588Y-60972780D01*
X111504466Y-61113913D01*
X111672637Y-61226282D01*
X111677940Y-61228560D01*
X111677943Y-61228562D01*
X111766291Y-61266519D01*
X111858470Y-61306122D01*
X112055740Y-61350760D01*
X112061509Y-61350987D01*
X112061512Y-61350987D01*
X112137683Y-61353979D01*
X112257842Y-61358700D01*
X112344132Y-61346189D01*
X112452286Y-61330508D01*
X112452291Y-61330507D01*
X112458007Y-61329678D01*
X112463479Y-61327820D01*
X112463481Y-61327820D01*
X112644067Y-61266519D01*
X112644069Y-61266518D01*
X112649531Y-61264664D01*
X112826001Y-61165837D01*
X112888433Y-61113913D01*
X112977073Y-61040191D01*
X112981505Y-61036505D01*
X113110837Y-60881001D01*
X113209664Y-60704531D01*
X113219110Y-60676706D01*
X113272820Y-60518481D01*
X113272820Y-60518479D01*
X113274678Y-60513007D01*
X113275507Y-60507291D01*
X113275508Y-60507286D01*
X113292809Y-60387956D01*
X113303700Y-60312842D01*
X113305215Y-60255000D01*
X113286708Y-60053591D01*
X113279225Y-60027056D01*
X113244557Y-59904135D01*
X113231807Y-59858926D01*
X113142351Y-59677527D01*
X113124079Y-59653057D01*
X113024788Y-59520091D01*
X113024787Y-59520090D01*
X113021335Y-59515467D01*
X113017099Y-59511551D01*
X112877053Y-59382094D01*
X112877051Y-59382092D01*
X112872812Y-59378174D01*
X112867929Y-59375093D01*
X112706637Y-59273325D01*
X112701757Y-59270246D01*
X112513898Y-59195298D01*
X112315526Y-59155839D01*
X112309752Y-59155763D01*
X112309748Y-59155763D01*
X112207257Y-59154422D01*
X112113286Y-59153192D01*
X112107589Y-59154171D01*
X112107588Y-59154171D01*
X111919646Y-59186465D01*
X111919645Y-59186465D01*
X111913949Y-59187444D01*
X111724193Y-59257449D01*
X111719232Y-59260401D01*
X111719231Y-59260401D01*
X111557068Y-59356878D01*
X111550371Y-59360862D01*
X111398305Y-59494220D01*
X111273089Y-59653057D01*
X111178914Y-59832053D01*
X111118937Y-60025213D01*
X111095164Y-60226069D01*
X106277836Y-60226069D01*
X106279441Y-60216530D01*
X106279441Y-60216525D01*
X106280247Y-60211737D01*
X106280390Y-60200000D01*
X106272655Y-60145990D01*
X106262354Y-60074057D01*
X106262353Y-60074054D01*
X106261081Y-60065171D01*
X106255059Y-60051925D01*
X106237404Y-60013096D01*
X106204706Y-59941180D01*
X106115796Y-59837996D01*
X106037746Y-59787406D01*
X106009032Y-59768794D01*
X106009030Y-59768793D01*
X106001501Y-59763913D01*
X105992904Y-59761342D01*
X105992902Y-59761341D01*
X105905688Y-59735259D01*
X105871006Y-59724887D01*
X105862030Y-59724832D01*
X105862029Y-59724832D01*
X105849567Y-59724756D01*
X105781570Y-59704338D01*
X105735406Y-59650399D01*
X105725610Y-59616621D01*
X105714650Y-59540091D01*
X105711081Y-59515171D01*
X105704749Y-59501243D01*
X105690671Y-59470281D01*
X105654706Y-59391180D01*
X105565796Y-59287996D01*
X105558261Y-59283112D01*
X105459032Y-59218794D01*
X105459030Y-59218793D01*
X105451501Y-59213913D01*
X105442904Y-59211342D01*
X105442902Y-59211341D01*
X105359720Y-59186465D01*
X105321006Y-59174887D01*
X105312030Y-59174832D01*
X105312029Y-59174832D01*
X105255036Y-59174484D01*
X105184804Y-59174055D01*
X105176172Y-59176522D01*
X105167281Y-59177740D01*
X105167006Y-59175730D01*
X105107658Y-59175304D01*
X105048208Y-59136493D01*
X105019295Y-59072528D01*
X105012354Y-59024057D01*
X105012353Y-59024054D01*
X105011081Y-59015171D01*
X105000044Y-58990895D01*
X104965042Y-58913913D01*
X104954706Y-58891180D01*
X104865796Y-58787996D01*
X104823448Y-58760547D01*
X104759032Y-58718794D01*
X104759030Y-58718793D01*
X104751501Y-58713913D01*
X104742904Y-58711342D01*
X104742902Y-58711341D01*
X104665973Y-58688335D01*
X104621006Y-58674887D01*
X104612030Y-58674832D01*
X104612029Y-58674832D01*
X104555036Y-58674484D01*
X104484804Y-58674055D01*
X104476172Y-58676522D01*
X104362473Y-58709017D01*
X104362471Y-58709018D01*
X104353842Y-58711484D01*
X104346252Y-58716273D01*
X104265226Y-58767397D01*
X104238650Y-58784165D01*
X104232707Y-58790894D01*
X104232706Y-58790895D01*
X104179409Y-58851243D01*
X104148487Y-58886255D01*
X104144673Y-58894378D01*
X104144672Y-58894380D01*
X104126262Y-58933593D01*
X104090601Y-59009548D01*
X104089221Y-59018412D01*
X104089220Y-59018415D01*
X104077891Y-59091180D01*
X104069646Y-59144131D01*
X103178781Y-59144131D01*
X103154706Y-59091180D01*
X103065796Y-58987996D01*
X103037433Y-58969612D01*
X102959032Y-58918794D01*
X102959030Y-58918793D01*
X102951501Y-58913913D01*
X102942904Y-58911342D01*
X102942902Y-58911341D01*
X102836521Y-58879527D01*
X102821006Y-58874887D01*
X102812030Y-58874832D01*
X102812029Y-58874832D01*
X102755036Y-58874484D01*
X102684804Y-58874055D01*
X102676172Y-58876522D01*
X102562473Y-58909017D01*
X102562471Y-58909018D01*
X102553842Y-58911484D01*
X102546252Y-58916273D01*
X102454268Y-58974311D01*
X102438650Y-58984165D01*
X102432707Y-58990894D01*
X102432706Y-58990895D01*
X102392710Y-59036182D01*
X102348487Y-59086255D01*
X102290601Y-59209548D01*
X102289221Y-59218412D01*
X102289220Y-59218415D01*
X102273984Y-59316273D01*
X102269646Y-59344131D01*
X88947622Y-59344131D01*
X88908532Y-59318794D01*
X88908530Y-59318793D01*
X88901001Y-59313913D01*
X88892404Y-59311342D01*
X88892402Y-59311341D01*
X88812367Y-59287406D01*
X88770506Y-59274887D01*
X88761530Y-59274832D01*
X88761529Y-59274832D01*
X88704536Y-59274484D01*
X88634304Y-59274055D01*
X88625672Y-59276522D01*
X88511973Y-59309017D01*
X88511971Y-59309018D01*
X88503342Y-59311484D01*
X88495752Y-59316273D01*
X88398067Y-59377908D01*
X88388150Y-59384165D01*
X88382207Y-59390894D01*
X88382206Y-59390895D01*
X88312095Y-59470281D01*
X88297987Y-59486255D01*
X88294173Y-59494378D01*
X88294172Y-59494380D01*
X88274882Y-59535467D01*
X88240101Y-59609548D01*
X88238721Y-59618412D01*
X88238720Y-59618415D01*
X88221569Y-59728571D01*
X88219146Y-59744131D01*
X88220310Y-59753033D01*
X88220310Y-59753036D01*
X88224656Y-59786270D01*
X88236806Y-59879186D01*
X88240423Y-59887406D01*
X88270890Y-59956648D01*
X88280018Y-60027056D01*
X88249631Y-60091221D01*
X88244656Y-60096489D01*
X88108740Y-60232405D01*
X88046428Y-60266431D01*
X87975613Y-60261366D01*
X87918777Y-60218819D01*
X87894174Y-60154840D01*
X87887237Y-60079347D01*
X87887237Y-60079346D01*
X87886708Y-60073591D01*
X87884475Y-60065671D01*
X87846219Y-59930027D01*
X87831807Y-59878926D01*
X87742351Y-59697527D01*
X87724079Y-59673057D01*
X87624788Y-59540091D01*
X87624787Y-59540090D01*
X87621335Y-59535467D01*
X87608991Y-59524056D01*
X87477053Y-59402094D01*
X87477051Y-59402092D01*
X87472812Y-59398174D01*
X87441114Y-59378174D01*
X87306637Y-59293325D01*
X87301757Y-59290246D01*
X87113898Y-59215298D01*
X86915526Y-59175839D01*
X86909752Y-59175763D01*
X86909748Y-59175763D01*
X86807257Y-59174422D01*
X86713286Y-59173192D01*
X86707589Y-59174171D01*
X86707588Y-59174171D01*
X86519646Y-59206465D01*
X86519645Y-59206465D01*
X86513949Y-59207444D01*
X86324193Y-59277449D01*
X86319232Y-59280401D01*
X86319231Y-59280401D01*
X86190685Y-59356878D01*
X86150371Y-59380862D01*
X85998305Y-59514220D01*
X85873089Y-59673057D01*
X85778914Y-59852053D01*
X85718937Y-60045213D01*
X85695164Y-60246069D01*
X85708392Y-60447894D01*
X85726319Y-60518481D01*
X85756338Y-60636682D01*
X85758178Y-60643928D01*
X85842856Y-60827607D01*
X85959588Y-60992780D01*
X86104466Y-61133913D01*
X86272637Y-61246282D01*
X86277940Y-61248560D01*
X86277943Y-61248562D01*
X86453163Y-61323842D01*
X86458470Y-61326122D01*
X86655740Y-61370760D01*
X86661509Y-61370987D01*
X86661512Y-61370987D01*
X86670654Y-61371346D01*
X86737936Y-61394008D01*
X86782287Y-61449448D01*
X86789623Y-61520064D01*
X86754801Y-61586344D01*
X86638554Y-61702591D01*
X86570796Y-61737676D01*
X86513949Y-61747444D01*
X86324193Y-61817449D01*
X86319232Y-61820401D01*
X86319231Y-61820401D01*
X86261311Y-61854860D01*
X86150371Y-61920862D01*
X85998305Y-62054220D01*
X85873089Y-62213057D01*
X85778914Y-62392053D01*
X85718937Y-62585213D01*
X85695164Y-62786069D01*
X85150500Y-62786069D01*
X85150500Y-57706069D01*
X85695164Y-57706069D01*
X85708392Y-57907894D01*
X85725195Y-57974057D01*
X85753437Y-58085259D01*
X85758178Y-58103928D01*
X85842856Y-58287607D01*
X85846189Y-58292323D01*
X85904825Y-58375291D01*
X85959588Y-58452780D01*
X85963730Y-58456815D01*
X86025004Y-58516505D01*
X86104466Y-58593913D01*
X86109270Y-58597123D01*
X86143928Y-58620281D01*
X86272637Y-58706282D01*
X86277940Y-58708560D01*
X86277943Y-58708562D01*
X86451464Y-58783112D01*
X86458470Y-58786122D01*
X86655740Y-58830760D01*
X86661509Y-58830987D01*
X86661512Y-58830987D01*
X86737683Y-58833979D01*
X86857842Y-58838700D01*
X86944132Y-58826189D01*
X87052286Y-58810508D01*
X87052291Y-58810507D01*
X87058007Y-58809678D01*
X87063479Y-58807820D01*
X87063481Y-58807820D01*
X87244067Y-58746519D01*
X87244069Y-58746518D01*
X87249531Y-58744664D01*
X87426001Y-58645837D01*
X87486906Y-58595183D01*
X87577073Y-58520191D01*
X87581505Y-58516505D01*
X87710837Y-58361001D01*
X87713659Y-58355961D01*
X87713663Y-58355956D01*
X87734339Y-58319037D01*
X87785076Y-58269375D01*
X87854607Y-58255028D01*
X87920858Y-58280549D01*
X87959601Y-58329856D01*
X87992162Y-58403856D01*
X87997939Y-58410729D01*
X87997940Y-58410730D01*
X88051172Y-58474057D01*
X88079804Y-58508119D01*
X88087281Y-58513096D01*
X88175070Y-58571533D01*
X88193187Y-58583593D01*
X88230285Y-58595183D01*
X88298613Y-58616530D01*
X88323195Y-58624210D01*
X88459377Y-58626706D01*
X88539508Y-58604860D01*
X88578863Y-58594131D01*
X92219646Y-58594131D01*
X92220810Y-58603033D01*
X92220810Y-58603036D01*
X92226776Y-58648658D01*
X92237306Y-58729186D01*
X92244544Y-58745636D01*
X92282000Y-58830760D01*
X92292162Y-58853856D01*
X92297939Y-58860729D01*
X92297940Y-58860730D01*
X92374024Y-58951243D01*
X92379804Y-58958119D01*
X92493187Y-59033593D01*
X92623195Y-59074210D01*
X92759377Y-59076706D01*
X92802542Y-59064938D01*
X92882124Y-59043242D01*
X92882127Y-59043241D01*
X92890786Y-59040880D01*
X92898436Y-59036183D01*
X92898438Y-59036182D01*
X92999206Y-58974311D01*
X92999209Y-58974308D01*
X93006858Y-58969612D01*
X93037118Y-58936182D01*
X93092233Y-58875291D01*
X93092234Y-58875290D01*
X93098261Y-58868631D01*
X93105420Y-58853856D01*
X93153734Y-58754135D01*
X93153734Y-58754134D01*
X93157649Y-58746054D01*
X93174035Y-58648658D01*
X93179441Y-58616530D01*
X93179441Y-58616525D01*
X93180247Y-58611737D01*
X93180390Y-58600000D01*
X93169551Y-58524311D01*
X93162354Y-58474057D01*
X93162353Y-58474054D01*
X93161081Y-58465171D01*
X93154749Y-58451243D01*
X93133203Y-58403856D01*
X93104706Y-58341180D01*
X93015796Y-58237996D01*
X92968415Y-58207285D01*
X92909032Y-58168794D01*
X92909030Y-58168793D01*
X92901501Y-58163913D01*
X92892904Y-58161342D01*
X92892902Y-58161341D01*
X92800117Y-58133593D01*
X92771006Y-58124887D01*
X92762030Y-58124832D01*
X92762029Y-58124832D01*
X92705036Y-58124484D01*
X92634804Y-58124055D01*
X92626172Y-58126522D01*
X92512473Y-58159017D01*
X92512471Y-58159018D01*
X92503842Y-58161484D01*
X92496252Y-58166273D01*
X92396971Y-58228915D01*
X92388650Y-58234165D01*
X92382707Y-58240894D01*
X92382706Y-58240895D01*
X92337286Y-58292323D01*
X92298487Y-58336255D01*
X92294673Y-58344378D01*
X92294672Y-58344380D01*
X92270608Y-58395636D01*
X92240601Y-58459548D01*
X92239221Y-58468412D01*
X92239220Y-58468415D01*
X92221287Y-58583593D01*
X92219646Y-58594131D01*
X88578863Y-58594131D01*
X88582124Y-58593242D01*
X88582127Y-58593241D01*
X88590786Y-58590880D01*
X88598436Y-58586183D01*
X88598438Y-58586182D01*
X88699206Y-58524311D01*
X88699209Y-58524308D01*
X88706858Y-58519612D01*
X88718385Y-58506878D01*
X88792233Y-58425291D01*
X88792234Y-58425290D01*
X88798261Y-58418631D01*
X88805420Y-58403856D01*
X88853734Y-58304135D01*
X88853734Y-58304134D01*
X88857649Y-58296054D01*
X88877729Y-58176706D01*
X88879441Y-58166530D01*
X88879441Y-58166525D01*
X88880247Y-58161737D01*
X88880390Y-58150000D01*
X88873664Y-58103036D01*
X88862354Y-58024057D01*
X88862353Y-58024054D01*
X88861081Y-58015171D01*
X88804706Y-57891180D01*
X88796905Y-57882126D01*
X88721657Y-57794798D01*
X88715796Y-57787996D01*
X88708261Y-57783112D01*
X88609032Y-57718794D01*
X88609030Y-57718793D01*
X88601501Y-57713913D01*
X88592904Y-57711342D01*
X88592902Y-57711341D01*
X88505688Y-57685259D01*
X88471006Y-57674887D01*
X88462030Y-57674832D01*
X88462029Y-57674832D01*
X88405036Y-57674484D01*
X88334804Y-57674055D01*
X88326172Y-57676522D01*
X88212473Y-57709017D01*
X88212471Y-57709018D01*
X88203842Y-57711484D01*
X88135159Y-57754820D01*
X88093430Y-57781149D01*
X88025145Y-57800583D01*
X87957193Y-57780014D01*
X87911148Y-57725973D01*
X87900723Y-57686116D01*
X87899842Y-57676522D01*
X87886708Y-57533591D01*
X87881068Y-57513591D01*
X87855859Y-57424210D01*
X87831807Y-57338926D01*
X87742351Y-57157527D01*
X87724079Y-57133057D01*
X87624788Y-57000091D01*
X87624787Y-57000090D01*
X87621335Y-56995467D01*
X87616071Y-56990601D01*
X87477053Y-56862094D01*
X87477051Y-56862092D01*
X87472812Y-56858174D01*
X87441114Y-56838174D01*
X87306637Y-56753325D01*
X87301757Y-56750246D01*
X87113898Y-56675298D01*
X86915526Y-56635839D01*
X86909752Y-56635763D01*
X86909748Y-56635763D01*
X86807257Y-56634422D01*
X86713286Y-56633192D01*
X86707589Y-56634171D01*
X86707588Y-56634171D01*
X86519646Y-56666465D01*
X86519645Y-56666465D01*
X86513949Y-56667444D01*
X86324193Y-56737449D01*
X86319232Y-56740401D01*
X86319231Y-56740401D01*
X86178361Y-56824210D01*
X86150371Y-56840862D01*
X85998305Y-56974220D01*
X85873089Y-57133057D01*
X85778914Y-57312053D01*
X85718937Y-57505213D01*
X85695164Y-57706069D01*
X85150500Y-57706069D01*
X85150500Y-55166069D01*
X85695164Y-55166069D01*
X85708392Y-55367894D01*
X85726319Y-55438481D01*
X85753099Y-55543928D01*
X85758178Y-55563928D01*
X85842856Y-55747607D01*
X85846189Y-55752323D01*
X85933964Y-55876522D01*
X85959588Y-55912780D01*
X85963730Y-55916815D01*
X85976987Y-55929729D01*
X86104466Y-56053913D01*
X86272637Y-56166282D01*
X86277940Y-56168560D01*
X86277943Y-56168562D01*
X86438183Y-56237406D01*
X86458470Y-56246122D01*
X86655740Y-56290760D01*
X86661509Y-56290987D01*
X86661512Y-56290987D01*
X86737683Y-56293979D01*
X86857842Y-56298700D01*
X86944132Y-56286189D01*
X87052286Y-56270508D01*
X87052291Y-56270507D01*
X87058007Y-56269678D01*
X87063479Y-56267820D01*
X87063481Y-56267820D01*
X87244067Y-56206519D01*
X87244069Y-56206518D01*
X87249531Y-56204664D01*
X87426001Y-56105837D01*
X87439777Y-56094380D01*
X87499392Y-56044798D01*
X87581505Y-55976505D01*
X87710837Y-55821001D01*
X87722038Y-55801001D01*
X87781667Y-55694524D01*
X87832404Y-55644862D01*
X87901936Y-55630514D01*
X87969609Y-55657141D01*
X87994462Y-55676734D01*
X87998835Y-55680621D01*
X87998901Y-55680543D01*
X88002860Y-55683898D01*
X88006538Y-55687576D01*
X88010762Y-55690595D01*
X88010771Y-55690602D01*
X88022074Y-55698679D01*
X88026820Y-55702243D01*
X88043822Y-55715646D01*
X88066600Y-55733603D01*
X88075148Y-55736605D01*
X88082519Y-55741872D01*
X88092492Y-55744855D01*
X88092495Y-55744856D01*
X88131083Y-55756396D01*
X88136730Y-55758231D01*
X88177064Y-55772395D01*
X88177065Y-55772395D01*
X88184548Y-55775023D01*
X88190055Y-55775500D01*
X88192762Y-55775500D01*
X88195332Y-55775611D01*
X88195494Y-55775659D01*
X88195488Y-55775804D01*
X88196108Y-55775843D01*
X88202287Y-55777691D01*
X88255581Y-55775597D01*
X88260527Y-55775500D01*
X93842273Y-55775500D01*
X93910394Y-55795502D01*
X93931368Y-55812405D01*
X94346652Y-56227689D01*
X94361377Y-56245920D01*
X94362778Y-56247460D01*
X94368428Y-56256210D01*
X94376606Y-56262657D01*
X94394465Y-56276736D01*
X94398832Y-56280617D01*
X94398898Y-56280539D01*
X94402856Y-56283893D01*
X94406538Y-56287575D01*
X94410769Y-56290598D01*
X94410772Y-56290601D01*
X94415591Y-56294044D01*
X94422052Y-56298661D01*
X94426781Y-56302212D01*
X94466600Y-56333603D01*
X94475149Y-56336605D01*
X94482519Y-56341872D01*
X94531078Y-56356394D01*
X94536702Y-56358221D01*
X94546715Y-56361737D01*
X94555854Y-56364947D01*
X94613498Y-56406393D01*
X94639583Y-56472424D01*
X94625828Y-56542076D01*
X94595932Y-56579570D01*
X94588650Y-56584165D01*
X94498487Y-56686255D01*
X94497208Y-56685125D01*
X94451100Y-56724276D01*
X94380728Y-56733674D01*
X94316447Y-56703535D01*
X94304457Y-56691391D01*
X94221657Y-56595298D01*
X94215796Y-56588496D01*
X94187694Y-56570281D01*
X94109032Y-56519294D01*
X94109030Y-56519293D01*
X94101501Y-56514413D01*
X94092904Y-56511842D01*
X94092902Y-56511841D01*
X93983709Y-56479186D01*
X93971006Y-56475387D01*
X93962030Y-56475332D01*
X93962029Y-56475332D01*
X93905036Y-56474984D01*
X93834804Y-56474555D01*
X93826172Y-56477022D01*
X93712473Y-56509517D01*
X93712471Y-56509518D01*
X93703842Y-56511984D01*
X93696252Y-56516773D01*
X93596391Y-56579781D01*
X93588650Y-56584665D01*
X93582707Y-56591394D01*
X93582706Y-56591395D01*
X93524377Y-56657440D01*
X93498487Y-56686755D01*
X93494673Y-56694878D01*
X93494672Y-56694880D01*
X93475624Y-56735451D01*
X93440601Y-56810048D01*
X93439221Y-56818912D01*
X93439220Y-56818915D01*
X93422463Y-56926541D01*
X93419646Y-56944631D01*
X93420810Y-56953533D01*
X93420810Y-56953536D01*
X93428421Y-57011737D01*
X93437306Y-57079686D01*
X93492162Y-57204356D01*
X93497939Y-57211229D01*
X93497940Y-57211230D01*
X93546191Y-57268631D01*
X93579804Y-57308619D01*
X93693187Y-57384093D01*
X93823195Y-57424710D01*
X93959377Y-57427206D01*
X94002542Y-57415438D01*
X94082124Y-57393742D01*
X94082127Y-57393741D01*
X94090786Y-57391380D01*
X94098436Y-57386683D01*
X94098438Y-57386682D01*
X94199206Y-57324811D01*
X94199209Y-57324808D01*
X94206858Y-57320112D01*
X94213337Y-57312955D01*
X94284653Y-57234165D01*
X94298261Y-57219131D01*
X94298923Y-57217765D01*
X94350706Y-57174869D01*
X94421187Y-57166328D01*
X94485097Y-57197248D01*
X94496939Y-57209539D01*
X94540483Y-57261341D01*
X94570938Y-57297571D01*
X94579804Y-57308119D01*
X94618298Y-57333743D01*
X94683998Y-57377476D01*
X94693187Y-57383593D01*
X94823195Y-57424210D01*
X94959377Y-57426706D01*
X95027055Y-57408255D01*
X95082124Y-57393242D01*
X95082127Y-57393241D01*
X95090786Y-57390880D01*
X95098436Y-57386183D01*
X95098438Y-57386182D01*
X95199206Y-57324311D01*
X95199209Y-57324308D01*
X95206858Y-57319612D01*
X95216809Y-57308619D01*
X95292233Y-57225291D01*
X95292234Y-57225290D01*
X95298261Y-57218631D01*
X95305178Y-57204356D01*
X95353734Y-57104135D01*
X95353734Y-57104134D01*
X95357649Y-57096054D01*
X95373299Y-57003036D01*
X95379441Y-56966530D01*
X95379441Y-56966525D01*
X95380247Y-56961737D01*
X95380390Y-56950000D01*
X95370064Y-56877898D01*
X95362354Y-56824057D01*
X95362353Y-56824054D01*
X95361081Y-56815171D01*
X95355059Y-56801925D01*
X95332961Y-56753325D01*
X95304706Y-56691180D01*
X95215796Y-56587996D01*
X95217320Y-56586683D01*
X95185367Y-56536601D01*
X95185600Y-56465604D01*
X95224180Y-56406005D01*
X95288858Y-56376724D01*
X95306379Y-56375500D01*
X95342273Y-56375500D01*
X95410394Y-56395502D01*
X95431368Y-56412405D01*
X95946652Y-56927689D01*
X95961377Y-56945920D01*
X95962778Y-56947460D01*
X95968428Y-56956210D01*
X95976606Y-56962657D01*
X95994465Y-56976736D01*
X95998832Y-56980617D01*
X95998898Y-56980539D01*
X96002856Y-56983893D01*
X96006538Y-56987575D01*
X96010769Y-56990598D01*
X96010772Y-56990601D01*
X96012102Y-56991551D01*
X96022052Y-56998661D01*
X96026781Y-57002212D01*
X96066600Y-57033603D01*
X96075149Y-57036605D01*
X96082519Y-57041872D01*
X96131078Y-57056394D01*
X96136719Y-57058227D01*
X96172468Y-57070781D01*
X96184548Y-57075023D01*
X96190055Y-57075500D01*
X96192762Y-57075500D01*
X96195334Y-57075611D01*
X96195494Y-57075659D01*
X96195488Y-57075803D01*
X96196106Y-57075842D01*
X96202286Y-57077690D01*
X96255555Y-57075597D01*
X96260501Y-57075500D01*
X97715038Y-57075500D01*
X97738334Y-57077979D01*
X97740419Y-57078077D01*
X97750600Y-57080269D01*
X97759875Y-57079171D01*
X97770993Y-57080329D01*
X97773888Y-57080798D01*
X97782462Y-57083477D01*
X97791438Y-57083642D01*
X97791441Y-57083642D01*
X97848133Y-57084681D01*
X97918644Y-57085973D01*
X97974368Y-57070781D01*
X98041391Y-57052509D01*
X98041394Y-57052508D01*
X98050053Y-57050147D01*
X98057703Y-57045450D01*
X98057705Y-57045449D01*
X98158473Y-56983578D01*
X98158476Y-56983575D01*
X98166125Y-56978879D01*
X98180809Y-56962657D01*
X98251500Y-56884558D01*
X98251501Y-56884557D01*
X98257528Y-56877898D01*
X98262123Y-56868415D01*
X98288924Y-56813096D01*
X98298283Y-56793780D01*
X98345984Y-56741198D01*
X98414542Y-56722752D01*
X98482190Y-56744299D01*
X98500769Y-56759624D01*
X98684811Y-56943666D01*
X98718837Y-57005978D01*
X98713772Y-57076793D01*
X98671225Y-57133629D01*
X98630343Y-57153910D01*
X98603842Y-57161484D01*
X98596252Y-57166273D01*
X98503355Y-57224887D01*
X98488650Y-57234165D01*
X98482707Y-57240894D01*
X98482706Y-57240895D01*
X98419065Y-57312955D01*
X98398487Y-57336255D01*
X98394673Y-57344378D01*
X98394672Y-57344380D01*
X98374770Y-57386770D01*
X98340601Y-57459548D01*
X98339221Y-57468412D01*
X98339220Y-57468415D01*
X98322772Y-57574057D01*
X98319646Y-57594131D01*
X98320810Y-57603033D01*
X98320810Y-57603036D01*
X98323881Y-57626522D01*
X98337306Y-57729186D01*
X98392162Y-57853856D01*
X98397939Y-57860729D01*
X98397940Y-57860730D01*
X98469311Y-57945636D01*
X98479804Y-57958119D01*
X98593187Y-58033593D01*
X98624072Y-58043242D01*
X98708478Y-58069612D01*
X98723195Y-58074210D01*
X98859377Y-58076706D01*
X98909298Y-58063096D01*
X98982124Y-58043242D01*
X98982127Y-58043241D01*
X98990786Y-58040880D01*
X98998436Y-58036183D01*
X98998438Y-58036182D01*
X99099206Y-57974311D01*
X99099209Y-57974308D01*
X99106858Y-57969612D01*
X99115064Y-57960547D01*
X99192233Y-57875291D01*
X99192234Y-57875290D01*
X99198261Y-57868631D01*
X99205285Y-57854135D01*
X99253734Y-57754135D01*
X99253734Y-57754134D01*
X99257649Y-57746054D01*
X99271877Y-57661484D01*
X99279441Y-57616530D01*
X99279441Y-57616525D01*
X99280247Y-57611737D01*
X99280390Y-57600000D01*
X99273369Y-57550976D01*
X99283513Y-57480710D01*
X99330036Y-57427081D01*
X99364955Y-57411554D01*
X99391139Y-57404415D01*
X99440786Y-57390880D01*
X99448439Y-57386181D01*
X99448460Y-57386172D01*
X99518922Y-57377476D01*
X99582900Y-57408255D01*
X99620082Y-57468737D01*
X99624500Y-57501810D01*
X99624500Y-58161290D01*
X99603920Y-58230103D01*
X99598487Y-58236255D01*
X99540601Y-58359548D01*
X99539221Y-58368412D01*
X99539220Y-58368415D01*
X99522772Y-58474057D01*
X99519646Y-58494131D01*
X99520810Y-58503033D01*
X99520810Y-58503036D01*
X99525156Y-58536270D01*
X99537306Y-58629186D01*
X99592162Y-58753856D01*
X99597939Y-58760729D01*
X99597940Y-58760730D01*
X99645972Y-58817871D01*
X99679804Y-58858119D01*
X99708860Y-58877460D01*
X99767168Y-58916273D01*
X99793187Y-58933593D01*
X99824072Y-58943242D01*
X99908478Y-58969612D01*
X99923195Y-58974210D01*
X100059377Y-58976706D01*
X100109298Y-58963096D01*
X100182124Y-58943242D01*
X100182127Y-58943241D01*
X100190786Y-58940880D01*
X100198436Y-58936183D01*
X100198438Y-58936182D01*
X100299206Y-58874311D01*
X100299209Y-58874308D01*
X100306858Y-58869612D01*
X100315064Y-58860547D01*
X100392233Y-58775291D01*
X100392234Y-58775290D01*
X100398261Y-58768631D01*
X100405285Y-58754135D01*
X100453734Y-58654135D01*
X100453734Y-58654134D01*
X100457649Y-58646054D01*
X100470465Y-58569880D01*
X100479441Y-58516530D01*
X100479441Y-58516525D01*
X100480247Y-58511737D01*
X100480390Y-58500000D01*
X100473434Y-58451425D01*
X100462354Y-58374057D01*
X100462353Y-58374054D01*
X100461081Y-58365171D01*
X100455937Y-58353856D01*
X100433330Y-58304135D01*
X100404706Y-58241180D01*
X100398844Y-58234377D01*
X100395351Y-58228915D01*
X100375500Y-58161029D01*
X100375500Y-58094131D01*
X106369646Y-58094131D01*
X106370810Y-58103033D01*
X106370810Y-58103036D01*
X106377587Y-58154860D01*
X106387306Y-58229186D01*
X106442162Y-58353856D01*
X106447939Y-58360729D01*
X106447940Y-58360730D01*
X106524024Y-58451243D01*
X106529804Y-58458119D01*
X106643187Y-58533593D01*
X106773195Y-58574210D01*
X106909377Y-58576706D01*
X106952542Y-58564938D01*
X107032124Y-58543242D01*
X107032127Y-58543241D01*
X107040786Y-58540880D01*
X107048436Y-58536183D01*
X107048438Y-58536182D01*
X107149206Y-58474311D01*
X107149209Y-58474308D01*
X107156858Y-58469612D01*
X107165968Y-58459548D01*
X107242233Y-58375291D01*
X107242234Y-58375290D01*
X107248261Y-58368631D01*
X107253896Y-58357002D01*
X107303734Y-58254135D01*
X107303734Y-58254134D01*
X107307649Y-58246054D01*
X107321877Y-58161484D01*
X107329441Y-58116530D01*
X107329441Y-58116525D01*
X107330247Y-58111737D01*
X107330390Y-58100000D01*
X107324392Y-58058119D01*
X107312354Y-57974057D01*
X107312353Y-57974054D01*
X107311081Y-57965171D01*
X107305937Y-57953856D01*
X107281156Y-57899354D01*
X107254706Y-57841180D01*
X107165796Y-57737996D01*
X107136171Y-57718794D01*
X107098121Y-57694131D01*
X109820146Y-57694131D01*
X109821310Y-57703033D01*
X109821310Y-57703036D01*
X109827992Y-57754135D01*
X109837806Y-57829186D01*
X109892662Y-57953856D01*
X109898439Y-57960729D01*
X109898440Y-57960730D01*
X109974524Y-58051243D01*
X109980304Y-58058119D01*
X110004724Y-58074374D01*
X110084474Y-58127460D01*
X110093687Y-58133593D01*
X110130785Y-58145183D01*
X110199113Y-58166530D01*
X110223695Y-58174210D01*
X110359877Y-58176706D01*
X110404535Y-58164531D01*
X110482624Y-58143242D01*
X110482627Y-58143241D01*
X110491286Y-58140880D01*
X110498936Y-58136183D01*
X110498938Y-58136182D01*
X110599706Y-58074311D01*
X110599709Y-58074308D01*
X110607358Y-58069612D01*
X110637618Y-58036182D01*
X110692733Y-57975291D01*
X110692734Y-57975290D01*
X110698761Y-57968631D01*
X110704396Y-57957002D01*
X110754234Y-57854135D01*
X110754234Y-57854134D01*
X110758149Y-57846054D01*
X110773614Y-57754135D01*
X110779941Y-57716530D01*
X110779941Y-57716525D01*
X110780747Y-57711737D01*
X110780890Y-57700000D01*
X110778895Y-57686069D01*
X111095164Y-57686069D01*
X111108392Y-57887894D01*
X111130339Y-57974311D01*
X111155752Y-58074374D01*
X111158178Y-58083928D01*
X111242856Y-58267607D01*
X111253285Y-58282364D01*
X111349589Y-58418631D01*
X111359588Y-58432780D01*
X111363730Y-58436815D01*
X111396169Y-58468415D01*
X111504466Y-58573913D01*
X111672637Y-58686282D01*
X111677940Y-58688560D01*
X111677943Y-58688562D01*
X111829920Y-58753856D01*
X111858470Y-58766122D01*
X112055740Y-58810760D01*
X112061509Y-58810987D01*
X112061512Y-58810987D01*
X112137683Y-58813979D01*
X112257842Y-58818700D01*
X112344132Y-58806189D01*
X112452286Y-58790508D01*
X112452291Y-58790507D01*
X112458007Y-58789678D01*
X112463479Y-58787820D01*
X112463481Y-58787820D01*
X112644067Y-58726519D01*
X112644069Y-58726518D01*
X112649531Y-58724664D01*
X112826001Y-58625837D01*
X112874791Y-58585259D01*
X112936912Y-58533593D01*
X112981505Y-58496505D01*
X113082318Y-58375291D01*
X113107146Y-58345439D01*
X113110837Y-58341001D01*
X113209664Y-58164531D01*
X113217693Y-58140880D01*
X113272820Y-57978481D01*
X113272820Y-57978479D01*
X113274678Y-57973007D01*
X113275507Y-57967291D01*
X113275508Y-57967286D01*
X113299678Y-57800583D01*
X113303700Y-57772842D01*
X113305215Y-57715000D01*
X113286708Y-57513591D01*
X113283386Y-57501810D01*
X113244224Y-57362955D01*
X113231807Y-57318926D01*
X113142351Y-57137527D01*
X113136123Y-57129186D01*
X113024788Y-56980091D01*
X113024787Y-56980090D01*
X113021335Y-56975467D01*
X113017099Y-56971551D01*
X112877053Y-56842094D01*
X112877051Y-56842092D01*
X112872812Y-56838174D01*
X112850841Y-56824311D01*
X112706637Y-56733325D01*
X112701757Y-56730246D01*
X112513898Y-56655298D01*
X112315526Y-56615839D01*
X112309752Y-56615763D01*
X112309748Y-56615763D01*
X112207257Y-56614422D01*
X112113286Y-56613192D01*
X112107589Y-56614171D01*
X112107588Y-56614171D01*
X111919646Y-56646465D01*
X111919645Y-56646465D01*
X111913949Y-56647444D01*
X111724193Y-56717449D01*
X111719232Y-56720401D01*
X111719231Y-56720401D01*
X111559937Y-56815171D01*
X111550371Y-56820862D01*
X111398305Y-56954220D01*
X111273089Y-57113057D01*
X111178914Y-57292053D01*
X111118937Y-57485213D01*
X111095164Y-57686069D01*
X110778895Y-57686069D01*
X110775021Y-57659017D01*
X110762854Y-57574057D01*
X110762853Y-57574054D01*
X110761581Y-57565171D01*
X110705206Y-57441180D01*
X110691687Y-57425490D01*
X110622157Y-57344798D01*
X110616296Y-57337996D01*
X110586875Y-57318926D01*
X110509532Y-57268794D01*
X110509530Y-57268793D01*
X110502001Y-57263913D01*
X110493404Y-57261342D01*
X110493402Y-57261341D01*
X110402530Y-57234165D01*
X110371506Y-57224887D01*
X110362530Y-57224832D01*
X110362529Y-57224832D01*
X110305536Y-57224484D01*
X110235304Y-57224055D01*
X110226672Y-57226522D01*
X110112973Y-57259017D01*
X110112971Y-57259018D01*
X110104342Y-57261484D01*
X110096752Y-57266273D01*
X110004768Y-57324311D01*
X109989150Y-57334165D01*
X109983207Y-57340894D01*
X109983206Y-57340895D01*
X109945055Y-57384093D01*
X109898987Y-57436255D01*
X109895173Y-57444378D01*
X109895172Y-57444380D01*
X109888051Y-57459548D01*
X109841101Y-57559548D01*
X109839721Y-57568412D01*
X109839720Y-57568415D01*
X109822742Y-57677460D01*
X109820146Y-57694131D01*
X107098121Y-57694131D01*
X107059032Y-57668794D01*
X107059030Y-57668793D01*
X107051501Y-57663913D01*
X107042904Y-57661342D01*
X107042902Y-57661341D01*
X106965973Y-57638335D01*
X106921006Y-57624887D01*
X106912030Y-57624832D01*
X106912029Y-57624832D01*
X106855036Y-57624484D01*
X106784804Y-57624055D01*
X106776172Y-57626522D01*
X106662473Y-57659017D01*
X106662471Y-57659018D01*
X106653842Y-57661484D01*
X106646252Y-57666273D01*
X106569025Y-57715000D01*
X106538650Y-57734165D01*
X106532707Y-57740894D01*
X106532706Y-57740895D01*
X106462595Y-57820281D01*
X106448487Y-57836255D01*
X106444673Y-57844378D01*
X106444672Y-57844380D01*
X106422700Y-57891180D01*
X106390601Y-57959548D01*
X106389221Y-57968412D01*
X106389220Y-57968415D01*
X106371235Y-58083928D01*
X106369646Y-58094131D01*
X100375500Y-58094131D01*
X100375500Y-56994131D01*
X105669646Y-56994131D01*
X105670810Y-57003033D01*
X105670810Y-57003036D01*
X105674807Y-57033603D01*
X105687306Y-57129186D01*
X105690923Y-57137406D01*
X105730548Y-57227460D01*
X105742162Y-57253856D01*
X105747939Y-57260729D01*
X105747940Y-57260730D01*
X105824024Y-57351243D01*
X105829804Y-57358119D01*
X105837281Y-57363096D01*
X105930089Y-57424874D01*
X105943187Y-57433593D01*
X105993635Y-57449354D01*
X106044263Y-57465171D01*
X106073195Y-57474210D01*
X106209377Y-57476706D01*
X106252542Y-57464938D01*
X106332124Y-57443242D01*
X106332127Y-57443241D01*
X106340786Y-57440880D01*
X106348436Y-57436183D01*
X106348438Y-57436182D01*
X106449206Y-57374311D01*
X106449209Y-57374308D01*
X106456858Y-57369612D01*
X106479319Y-57344798D01*
X106542233Y-57275291D01*
X106542234Y-57275290D01*
X106548261Y-57268631D01*
X106555420Y-57253856D01*
X106603734Y-57154135D01*
X106603734Y-57154134D01*
X106607649Y-57146054D01*
X106622734Y-57056392D01*
X106629441Y-57016530D01*
X106629441Y-57016525D01*
X106630247Y-57011737D01*
X106630390Y-57000000D01*
X106631742Y-57000016D01*
X106645941Y-56936705D01*
X106696465Y-56886826D01*
X106765935Y-56872181D01*
X106767177Y-56872330D01*
X106773195Y-56874210D01*
X106782170Y-56874374D01*
X106782173Y-56874375D01*
X106840100Y-56875436D01*
X106909377Y-56876706D01*
X106962974Y-56862094D01*
X107032124Y-56843242D01*
X107032127Y-56843241D01*
X107040786Y-56840880D01*
X107048436Y-56836183D01*
X107048438Y-56836182D01*
X107149206Y-56774311D01*
X107149209Y-56774308D01*
X107156858Y-56769612D01*
X107171601Y-56753325D01*
X107242233Y-56675291D01*
X107242234Y-56675290D01*
X107248261Y-56668631D01*
X107259001Y-56646465D01*
X107303734Y-56554135D01*
X107303734Y-56554134D01*
X107307649Y-56546054D01*
X107323299Y-56453035D01*
X107329441Y-56416530D01*
X107329441Y-56416525D01*
X107330247Y-56411737D01*
X107330390Y-56400000D01*
X107323664Y-56353036D01*
X107322389Y-56344131D01*
X109169646Y-56344131D01*
X109170810Y-56353033D01*
X109170810Y-56353036D01*
X109177587Y-56404860D01*
X109187306Y-56479186D01*
X109242162Y-56603856D01*
X109247939Y-56610729D01*
X109247940Y-56610730D01*
X109318675Y-56694880D01*
X109329804Y-56708119D01*
X109368195Y-56733674D01*
X109393091Y-56750246D01*
X109443187Y-56783593D01*
X109474072Y-56793242D01*
X109562479Y-56820862D01*
X109573195Y-56824210D01*
X109709377Y-56826706D01*
X109759298Y-56813096D01*
X109832124Y-56793242D01*
X109832127Y-56793241D01*
X109840786Y-56790880D01*
X109848436Y-56786183D01*
X109848438Y-56786182D01*
X109949206Y-56724311D01*
X109949209Y-56724308D01*
X109956858Y-56719612D01*
X109965064Y-56710547D01*
X110042233Y-56625291D01*
X110042234Y-56625290D01*
X110048261Y-56618631D01*
X110055285Y-56604135D01*
X110103734Y-56504135D01*
X110103734Y-56504134D01*
X110107649Y-56496054D01*
X110109138Y-56487205D01*
X110109139Y-56487201D01*
X110120714Y-56418398D01*
X110125296Y-56408968D01*
X110363491Y-56408968D01*
X110370078Y-56424353D01*
X110370755Y-56437012D01*
X110369646Y-56444131D01*
X110370810Y-56453033D01*
X110370810Y-56453035D01*
X110377107Y-56501190D01*
X110387306Y-56579186D01*
X110398161Y-56603856D01*
X110421739Y-56657440D01*
X110442162Y-56703856D01*
X110447939Y-56710729D01*
X110447940Y-56710730D01*
X110517752Y-56793781D01*
X110529804Y-56808119D01*
X110571962Y-56836182D01*
X110634632Y-56877898D01*
X110643187Y-56883593D01*
X110773195Y-56924210D01*
X110909377Y-56926706D01*
X110952542Y-56914938D01*
X111032124Y-56893242D01*
X111032127Y-56893241D01*
X111040786Y-56890880D01*
X111048436Y-56886183D01*
X111048438Y-56886182D01*
X111149206Y-56824311D01*
X111149209Y-56824308D01*
X111156858Y-56819612D01*
X111165968Y-56809548D01*
X111242233Y-56725291D01*
X111242234Y-56725290D01*
X111248261Y-56718631D01*
X111255420Y-56703856D01*
X111303734Y-56604135D01*
X111303734Y-56604134D01*
X111307649Y-56596054D01*
X111323114Y-56504135D01*
X111329441Y-56466530D01*
X111329441Y-56466525D01*
X111330247Y-56461737D01*
X111330390Y-56450000D01*
X111323925Y-56404860D01*
X111312354Y-56324057D01*
X111312353Y-56324054D01*
X111311081Y-56315171D01*
X111303570Y-56298650D01*
X111281303Y-56249678D01*
X111254706Y-56191180D01*
X111165796Y-56087996D01*
X111106991Y-56049880D01*
X111059032Y-56018794D01*
X111059030Y-56018793D01*
X111051501Y-56013913D01*
X111042904Y-56011342D01*
X111042902Y-56011341D01*
X110952030Y-55984165D01*
X110921006Y-55974887D01*
X110912030Y-55974832D01*
X110912029Y-55974832D01*
X110855036Y-55974484D01*
X110784804Y-55974055D01*
X110776172Y-55976522D01*
X110662473Y-56009017D01*
X110662471Y-56009018D01*
X110653842Y-56011484D01*
X110538650Y-56084165D01*
X110532707Y-56090894D01*
X110532706Y-56090895D01*
X110519510Y-56105837D01*
X110448487Y-56186255D01*
X110444673Y-56194378D01*
X110444672Y-56194380D01*
X110439844Y-56204664D01*
X110390601Y-56309548D01*
X110389221Y-56318412D01*
X110389220Y-56318415D01*
X110380867Y-56372064D01*
X110363491Y-56408968D01*
X110125296Y-56408968D01*
X110137737Y-56383361D01*
X110131449Y-56369155D01*
X110130887Y-56359712D01*
X110130648Y-56359728D01*
X110130331Y-56354861D01*
X110130390Y-56350000D01*
X110121906Y-56290760D01*
X110112354Y-56224057D01*
X110112353Y-56224054D01*
X110111081Y-56215171D01*
X110103890Y-56199354D01*
X110078300Y-56143072D01*
X110054706Y-56091180D01*
X109965796Y-55987996D01*
X109958261Y-55983112D01*
X109859032Y-55918794D01*
X109859030Y-55918793D01*
X109851501Y-55913913D01*
X109842904Y-55911342D01*
X109842902Y-55911341D01*
X109765054Y-55888060D01*
X109721006Y-55874887D01*
X109712030Y-55874832D01*
X109712029Y-55874832D01*
X109655036Y-55874484D01*
X109584804Y-55874055D01*
X109576172Y-55876522D01*
X109462473Y-55909017D01*
X109462471Y-55909018D01*
X109453842Y-55911484D01*
X109446252Y-55916273D01*
X109353355Y-55974887D01*
X109338650Y-55984165D01*
X109332707Y-55990894D01*
X109332706Y-55990895D01*
X109274216Y-56057123D01*
X109248487Y-56086255D01*
X109190601Y-56209548D01*
X109189221Y-56218412D01*
X109189220Y-56218415D01*
X109172290Y-56327153D01*
X109169646Y-56344131D01*
X107322389Y-56344131D01*
X107312354Y-56274057D01*
X107312353Y-56274054D01*
X107311081Y-56265171D01*
X107254706Y-56141180D01*
X107165796Y-56037996D01*
X107128641Y-56013913D01*
X107059032Y-55968794D01*
X107059030Y-55968793D01*
X107051501Y-55963913D01*
X107042904Y-55961342D01*
X107042902Y-55961341D01*
X106938915Y-55930243D01*
X106921006Y-55924887D01*
X106912030Y-55924832D01*
X106912029Y-55924832D01*
X106855036Y-55924484D01*
X106784804Y-55924055D01*
X106763153Y-55930243D01*
X106692158Y-55929729D01*
X106632711Y-55890915D01*
X106613830Y-55861246D01*
X106608423Y-55849355D01*
X106604706Y-55841180D01*
X106515796Y-55737996D01*
X106491679Y-55722364D01*
X106409032Y-55668794D01*
X106409030Y-55668793D01*
X106401501Y-55663913D01*
X106392904Y-55661342D01*
X106392902Y-55661341D01*
X106312095Y-55637175D01*
X106271006Y-55624887D01*
X106262030Y-55624832D01*
X106262029Y-55624832D01*
X106205036Y-55624484D01*
X106134804Y-55624055D01*
X106126172Y-55626522D01*
X106012473Y-55659017D01*
X106012471Y-55659018D01*
X106003842Y-55661484D01*
X105996252Y-55666273D01*
X105899762Y-55727154D01*
X105888650Y-55734165D01*
X105882707Y-55740894D01*
X105882706Y-55740895D01*
X105851266Y-55776494D01*
X105798487Y-55836255D01*
X105794673Y-55844378D01*
X105794672Y-55844380D01*
X105770054Y-55896815D01*
X105740601Y-55959548D01*
X105739221Y-55968412D01*
X105739220Y-55968415D01*
X105721165Y-56084378D01*
X105719646Y-56094131D01*
X105720810Y-56103033D01*
X105720810Y-56103036D01*
X105726465Y-56146282D01*
X105737306Y-56229186D01*
X105792162Y-56353856D01*
X105797939Y-56360729D01*
X105797940Y-56360730D01*
X105869300Y-56445623D01*
X105897821Y-56510638D01*
X105886665Y-56580753D01*
X105850928Y-56621028D01*
X105853079Y-56623556D01*
X105846242Y-56629375D01*
X105838650Y-56634165D01*
X105832707Y-56640894D01*
X105832706Y-56640895D01*
X105765096Y-56717449D01*
X105748487Y-56736255D01*
X105744673Y-56744378D01*
X105744672Y-56744380D01*
X105726262Y-56783593D01*
X105690601Y-56859548D01*
X105689221Y-56868412D01*
X105689220Y-56868415D01*
X105671639Y-56981332D01*
X105669646Y-56994131D01*
X100375500Y-56994131D01*
X100375500Y-55146069D01*
X111095164Y-55146069D01*
X111108392Y-55347894D01*
X111158178Y-55543928D01*
X111242856Y-55727607D01*
X111253285Y-55742364D01*
X111346943Y-55874887D01*
X111359588Y-55892780D01*
X111363730Y-55896815D01*
X111464313Y-55994798D01*
X111504466Y-56033913D01*
X111672637Y-56146282D01*
X111677940Y-56148560D01*
X111677943Y-56148562D01*
X111853163Y-56223842D01*
X111858470Y-56226122D01*
X112055740Y-56270760D01*
X112061509Y-56270987D01*
X112061512Y-56270987D01*
X112137683Y-56273979D01*
X112257842Y-56278700D01*
X112351152Y-56265171D01*
X112452286Y-56250508D01*
X112452291Y-56250507D01*
X112458007Y-56249678D01*
X112463479Y-56247820D01*
X112463481Y-56247820D01*
X112644067Y-56186519D01*
X112644069Y-56186518D01*
X112649531Y-56184664D01*
X112796879Y-56102146D01*
X112820964Y-56088658D01*
X112820965Y-56088657D01*
X112826001Y-56085837D01*
X112888433Y-56033913D01*
X112915572Y-56011341D01*
X112981505Y-55956505D01*
X113050436Y-55873625D01*
X113107146Y-55805439D01*
X113110837Y-55801001D01*
X113124562Y-55776494D01*
X113143675Y-55742364D01*
X113209664Y-55624531D01*
X113274678Y-55433007D01*
X113275507Y-55427291D01*
X113275508Y-55427286D01*
X113303167Y-55236516D01*
X113303700Y-55232842D01*
X113305215Y-55175000D01*
X113286708Y-54973591D01*
X113275998Y-54935614D01*
X113254918Y-54860871D01*
X113231807Y-54778926D01*
X113142351Y-54597527D01*
X113124079Y-54573057D01*
X113024788Y-54440091D01*
X113024787Y-54440090D01*
X113021335Y-54435467D01*
X113017099Y-54431551D01*
X112877053Y-54302094D01*
X112877051Y-54302092D01*
X112872812Y-54298174D01*
X112842824Y-54279253D01*
X112706637Y-54193325D01*
X112701757Y-54190246D01*
X112513898Y-54115298D01*
X112315526Y-54075839D01*
X112309752Y-54075763D01*
X112309748Y-54075763D01*
X112207257Y-54074422D01*
X112113286Y-54073192D01*
X112107589Y-54074171D01*
X112107588Y-54074171D01*
X111919646Y-54106465D01*
X111919645Y-54106465D01*
X111913949Y-54107444D01*
X111724193Y-54177449D01*
X111719232Y-54180401D01*
X111719231Y-54180401D01*
X111559937Y-54275171D01*
X111550371Y-54280862D01*
X111398305Y-54414220D01*
X111273089Y-54573057D01*
X111178914Y-54752053D01*
X111139439Y-54879186D01*
X111121918Y-54935614D01*
X111118937Y-54945213D01*
X111095164Y-55146069D01*
X100375500Y-55146069D01*
X100375500Y-54457727D01*
X100395502Y-54389606D01*
X100412405Y-54368632D01*
X100536906Y-54244131D01*
X109019646Y-54244131D01*
X109020810Y-54253033D01*
X109020810Y-54253036D01*
X109024274Y-54279527D01*
X109037306Y-54379186D01*
X109092162Y-54503856D01*
X109097939Y-54510729D01*
X109097940Y-54510730D01*
X109171438Y-54598167D01*
X109179804Y-54608119D01*
X109293187Y-54683593D01*
X109423195Y-54724210D01*
X109559377Y-54726706D01*
X109602542Y-54714938D01*
X109682124Y-54693242D01*
X109682127Y-54693241D01*
X109690786Y-54690880D01*
X109698436Y-54686183D01*
X109698438Y-54686182D01*
X109799206Y-54624311D01*
X109799209Y-54624308D01*
X109806858Y-54619612D01*
X109812934Y-54612900D01*
X109892233Y-54525291D01*
X109892234Y-54525290D01*
X109898261Y-54518631D01*
X109905420Y-54503856D01*
X109953734Y-54404135D01*
X109953734Y-54404134D01*
X109957649Y-54396054D01*
X109971877Y-54311484D01*
X109979441Y-54266530D01*
X109979441Y-54266525D01*
X109980247Y-54261737D01*
X109980390Y-54250000D01*
X109972864Y-54197449D01*
X109962354Y-54124057D01*
X109962353Y-54124054D01*
X109961081Y-54115171D01*
X109904706Y-53991180D01*
X109815796Y-53887996D01*
X109738894Y-53838150D01*
X109709032Y-53818794D01*
X109709030Y-53818793D01*
X109701501Y-53813913D01*
X109692904Y-53811342D01*
X109692902Y-53811341D01*
X109615973Y-53788335D01*
X109571006Y-53774887D01*
X109562030Y-53774832D01*
X109562029Y-53774832D01*
X109505036Y-53774484D01*
X109434804Y-53774055D01*
X109426172Y-53776522D01*
X109312473Y-53809017D01*
X109312471Y-53809018D01*
X109303842Y-53811484D01*
X109188650Y-53884165D01*
X109098487Y-53986255D01*
X109040601Y-54109548D01*
X109039221Y-54118412D01*
X109039220Y-54118415D01*
X109022114Y-54228282D01*
X109019646Y-54244131D01*
X100536906Y-54244131D01*
X101425462Y-53355575D01*
X107681090Y-53355575D01*
X107682254Y-53364477D01*
X107682254Y-53364480D01*
X107683392Y-53373181D01*
X107698750Y-53490630D01*
X107702367Y-53498850D01*
X107748226Y-53603072D01*
X107753606Y-53615300D01*
X107759383Y-53622173D01*
X107759384Y-53622174D01*
X107775919Y-53641845D01*
X107841248Y-53719563D01*
X107954631Y-53795037D01*
X108084639Y-53835654D01*
X108220821Y-53838150D01*
X108263986Y-53826382D01*
X108343568Y-53804686D01*
X108343571Y-53804685D01*
X108352230Y-53802324D01*
X108359880Y-53797627D01*
X108359882Y-53797626D01*
X108460650Y-53735755D01*
X108460653Y-53735752D01*
X108468302Y-53731056D01*
X108474351Y-53724374D01*
X108553677Y-53636735D01*
X108553678Y-53636734D01*
X108559705Y-53630075D01*
X108564775Y-53619612D01*
X108615178Y-53515579D01*
X108615178Y-53515578D01*
X108619093Y-53507498D01*
X108639298Y-53387406D01*
X108640885Y-53377974D01*
X108640885Y-53377969D01*
X108641691Y-53373181D01*
X108641834Y-53361444D01*
X108630314Y-53281001D01*
X108623798Y-53235501D01*
X108623797Y-53235498D01*
X108622525Y-53226615D01*
X108566150Y-53102624D01*
X108477240Y-52999440D01*
X108463938Y-52990818D01*
X108370476Y-52930238D01*
X108370474Y-52930237D01*
X108362945Y-52925357D01*
X108354348Y-52922786D01*
X108354346Y-52922785D01*
X108254773Y-52893007D01*
X108232450Y-52886331D01*
X108223474Y-52886276D01*
X108223473Y-52886276D01*
X108166480Y-52885928D01*
X108096248Y-52885499D01*
X108087616Y-52887966D01*
X107973917Y-52920461D01*
X107973915Y-52920462D01*
X107965286Y-52922928D01*
X107957696Y-52927717D01*
X107898773Y-52964895D01*
X107850094Y-52995609D01*
X107844151Y-53002338D01*
X107844150Y-53002339D01*
X107825670Y-53023264D01*
X107759931Y-53097699D01*
X107702045Y-53220992D01*
X107700665Y-53229856D01*
X107700664Y-53229859D01*
X107693486Y-53275964D01*
X107681090Y-53355575D01*
X101425462Y-53355575D01*
X102174968Y-52606069D01*
X111095164Y-52606069D01*
X111108392Y-52807894D01*
X111114894Y-52833496D01*
X111154849Y-52990818D01*
X111158178Y-53003928D01*
X111242856Y-53187607D01*
X111359588Y-53352780D01*
X111363730Y-53356815D01*
X111386695Y-53379186D01*
X111504466Y-53493913D01*
X111672637Y-53606282D01*
X111677940Y-53608560D01*
X111677943Y-53608562D01*
X111853163Y-53683842D01*
X111858470Y-53686122D01*
X112006257Y-53719563D01*
X112027386Y-53724344D01*
X112055740Y-53730760D01*
X112061509Y-53730987D01*
X112061512Y-53730987D01*
X112137683Y-53733979D01*
X112257842Y-53738700D01*
X112355504Y-53724540D01*
X112452286Y-53710508D01*
X112452291Y-53710507D01*
X112458007Y-53709678D01*
X112463479Y-53707820D01*
X112463481Y-53707820D01*
X112644067Y-53646519D01*
X112644069Y-53646518D01*
X112649531Y-53644664D01*
X112796879Y-53562146D01*
X112820964Y-53548658D01*
X112820965Y-53548657D01*
X112826001Y-53545837D01*
X112858713Y-53518631D01*
X112977073Y-53420191D01*
X112981505Y-53416505D01*
X113110837Y-53261001D01*
X113119696Y-53245183D01*
X113198061Y-53105250D01*
X113209664Y-53084531D01*
X113221216Y-53050502D01*
X113272820Y-52898481D01*
X113272820Y-52898479D01*
X113274678Y-52893007D01*
X113275507Y-52887291D01*
X113275508Y-52887286D01*
X113303167Y-52696516D01*
X113303700Y-52692842D01*
X113305215Y-52635000D01*
X113286708Y-52433591D01*
X113231807Y-52238926D01*
X113142351Y-52057527D01*
X113124079Y-52033057D01*
X113024788Y-51900091D01*
X113024787Y-51900090D01*
X113021335Y-51895467D01*
X113017099Y-51891551D01*
X112877053Y-51762094D01*
X112877051Y-51762092D01*
X112872812Y-51758174D01*
X112866439Y-51754153D01*
X112706637Y-51653325D01*
X112701757Y-51650246D01*
X112513898Y-51575298D01*
X112315526Y-51535839D01*
X112309752Y-51535763D01*
X112309748Y-51535763D01*
X112207257Y-51534422D01*
X112113286Y-51533192D01*
X112107589Y-51534171D01*
X112107588Y-51534171D01*
X111919646Y-51566465D01*
X111919645Y-51566465D01*
X111913949Y-51567444D01*
X111724193Y-51637449D01*
X111719232Y-51640401D01*
X111719231Y-51640401D01*
X111599501Y-51711633D01*
X111550371Y-51740862D01*
X111398305Y-51874220D01*
X111273089Y-52033057D01*
X111178914Y-52212053D01*
X111118937Y-52405213D01*
X111095164Y-52606069D01*
X102174968Y-52606069D01*
X102278774Y-52502263D01*
X102334727Y-52469795D01*
X102432124Y-52443242D01*
X102432127Y-52443241D01*
X102440786Y-52440880D01*
X102448436Y-52436183D01*
X102448438Y-52436182D01*
X102549206Y-52374311D01*
X102549209Y-52374308D01*
X102556858Y-52369612D01*
X102568863Y-52356350D01*
X102642233Y-52275291D01*
X102642234Y-52275290D01*
X102648261Y-52268631D01*
X102655019Y-52254684D01*
X102703734Y-52154135D01*
X102703734Y-52154134D01*
X102707649Y-52146054D01*
X102721028Y-52066530D01*
X102729441Y-52016530D01*
X102729441Y-52016525D01*
X102730247Y-52011737D01*
X102730390Y-52000000D01*
X102726002Y-51969362D01*
X102736144Y-51899095D01*
X102782666Y-51845465D01*
X102850729Y-51825500D01*
X108932902Y-51825500D01*
X108956199Y-51827979D01*
X108958284Y-51828077D01*
X108968464Y-51830269D01*
X109001382Y-51826373D01*
X109007219Y-51826029D01*
X109007211Y-51825928D01*
X109012390Y-51825500D01*
X109017591Y-51825500D01*
X109022719Y-51824646D01*
X109022725Y-51824646D01*
X109036385Y-51822372D01*
X109042261Y-51821535D01*
X109047350Y-51820933D01*
X109092608Y-51815576D01*
X109100775Y-51811654D01*
X109109711Y-51810167D01*
X109118873Y-51805223D01*
X109118877Y-51805222D01*
X109154327Y-51786094D01*
X109159618Y-51783398D01*
X109198147Y-51764897D01*
X109198148Y-51764896D01*
X109205298Y-51761463D01*
X109209529Y-51757906D01*
X109211461Y-51755974D01*
X109213335Y-51754255D01*
X109213472Y-51754181D01*
X109213572Y-51754291D01*
X109214052Y-51753868D01*
X109219727Y-51750806D01*
X109255939Y-51711632D01*
X109259368Y-51708067D01*
X110129274Y-50838161D01*
X110185227Y-50805693D01*
X110282624Y-50779140D01*
X110282627Y-50779139D01*
X110291286Y-50776778D01*
X110298936Y-50772081D01*
X110298938Y-50772080D01*
X110399706Y-50710209D01*
X110399709Y-50710206D01*
X110407358Y-50705510D01*
X110416706Y-50695183D01*
X110492733Y-50611189D01*
X110492734Y-50611188D01*
X110498761Y-50604529D01*
X110505812Y-50589977D01*
X110554234Y-50490033D01*
X110554234Y-50490032D01*
X110558149Y-50481952D01*
X110572747Y-50395183D01*
X110579941Y-50352428D01*
X110579941Y-50352423D01*
X110580747Y-50347635D01*
X110580890Y-50335898D01*
X110566629Y-50236318D01*
X110562854Y-50209955D01*
X110562853Y-50209952D01*
X110561581Y-50201069D01*
X110551632Y-50179186D01*
X110534351Y-50141180D01*
X110505206Y-50077078D01*
X110495720Y-50066069D01*
X111095164Y-50066069D01*
X111108392Y-50267894D01*
X111127923Y-50344798D01*
X111154477Y-50449354D01*
X111158178Y-50463928D01*
X111242856Y-50647607D01*
X111246189Y-50652323D01*
X111333964Y-50776522D01*
X111359588Y-50812780D01*
X111504466Y-50953913D01*
X111672637Y-51066282D01*
X111677940Y-51068560D01*
X111677943Y-51068562D01*
X111853163Y-51143842D01*
X111858470Y-51146122D01*
X111982600Y-51174210D01*
X112042743Y-51187819D01*
X112055740Y-51190760D01*
X112061509Y-51190987D01*
X112061512Y-51190987D01*
X112137683Y-51193979D01*
X112257842Y-51198700D01*
X112344132Y-51186189D01*
X112452286Y-51170508D01*
X112452291Y-51170507D01*
X112458007Y-51169678D01*
X112463479Y-51167820D01*
X112463481Y-51167820D01*
X112644067Y-51106519D01*
X112644069Y-51106518D01*
X112649531Y-51104664D01*
X112826001Y-51005837D01*
X112839777Y-50994380D01*
X112977073Y-50880191D01*
X112981505Y-50876505D01*
X113110837Y-50721001D01*
X113117676Y-50708790D01*
X113163983Y-50626101D01*
X113209664Y-50544531D01*
X113216507Y-50524374D01*
X113272820Y-50358481D01*
X113272820Y-50358479D01*
X113274678Y-50353007D01*
X113275507Y-50347291D01*
X113275508Y-50347286D01*
X113296237Y-50204315D01*
X113303700Y-50152842D01*
X113305215Y-50095000D01*
X113286708Y-49893591D01*
X113284346Y-49885213D01*
X113239017Y-49724490D01*
X113231807Y-49698926D01*
X113142351Y-49517527D01*
X113124079Y-49493057D01*
X113024788Y-49360091D01*
X113024787Y-49360090D01*
X113021335Y-49355467D01*
X113017099Y-49351551D01*
X112877053Y-49222094D01*
X112877051Y-49222092D01*
X112872812Y-49218174D01*
X112845374Y-49200862D01*
X112706637Y-49113325D01*
X112701757Y-49110246D01*
X112513898Y-49035298D01*
X112315526Y-48995839D01*
X112309752Y-48995763D01*
X112309748Y-48995763D01*
X112207257Y-48994422D01*
X112113286Y-48993192D01*
X112107589Y-48994171D01*
X112107588Y-48994171D01*
X111919646Y-49026465D01*
X111919645Y-49026465D01*
X111913949Y-49027444D01*
X111724193Y-49097449D01*
X111719232Y-49100401D01*
X111719231Y-49100401D01*
X111594124Y-49174832D01*
X111550371Y-49200862D01*
X111398305Y-49334220D01*
X111273089Y-49493057D01*
X111178914Y-49672053D01*
X111118937Y-49865213D01*
X111095164Y-50066069D01*
X110495720Y-50066069D01*
X110416296Y-49973894D01*
X110343211Y-49926522D01*
X110309532Y-49904692D01*
X110309530Y-49904691D01*
X110302001Y-49899811D01*
X110293404Y-49897240D01*
X110293402Y-49897239D01*
X110186312Y-49865213D01*
X110171506Y-49860785D01*
X110162530Y-49860730D01*
X110162529Y-49860730D01*
X110105536Y-49860382D01*
X110035304Y-49859953D01*
X110026672Y-49862420D01*
X109912973Y-49894915D01*
X109912971Y-49894916D01*
X109904342Y-49897382D01*
X109789150Y-49970063D01*
X109698987Y-50072153D01*
X109695173Y-50080276D01*
X109695172Y-50080278D01*
X109648735Y-50179186D01*
X109641101Y-50195446D01*
X109639720Y-50204315D01*
X109634737Y-50236318D01*
X109604493Y-50300551D01*
X109599332Y-50306029D01*
X108867766Y-51037595D01*
X108805454Y-51071621D01*
X108778671Y-51074500D01*
X101906148Y-51074500D01*
X101838027Y-51054498D01*
X101791534Y-51000842D01*
X101781430Y-50930568D01*
X101810924Y-50865988D01*
X101842146Y-50843095D01*
X101840786Y-50840880D01*
X101949206Y-50774311D01*
X101949209Y-50774308D01*
X101956858Y-50769612D01*
X101986096Y-50737311D01*
X102042233Y-50675291D01*
X102042234Y-50675290D01*
X102048261Y-50668631D01*
X102055420Y-50653856D01*
X102103734Y-50554135D01*
X102103734Y-50554134D01*
X102107649Y-50546054D01*
X102124755Y-50444380D01*
X102129441Y-50416530D01*
X102129441Y-50416525D01*
X102130247Y-50411737D01*
X102130390Y-50400000D01*
X102122841Y-50347286D01*
X102112354Y-50274057D01*
X102112353Y-50274054D01*
X102111081Y-50265171D01*
X102054706Y-50141180D01*
X101965796Y-50037996D01*
X101937433Y-50019612D01*
X101859032Y-49968794D01*
X101859030Y-49968793D01*
X101851501Y-49963913D01*
X101842904Y-49961342D01*
X101842902Y-49961341D01*
X101759209Y-49936312D01*
X101721006Y-49924887D01*
X101712030Y-49924832D01*
X101712029Y-49924832D01*
X101655036Y-49924484D01*
X101584804Y-49924055D01*
X101453842Y-49961484D01*
X101453051Y-49958715D01*
X101397205Y-49966304D01*
X101332854Y-49936312D01*
X101301400Y-49893879D01*
X101258424Y-49799356D01*
X101258422Y-49799353D01*
X101254706Y-49791180D01*
X101165796Y-49687996D01*
X101125284Y-49661737D01*
X101059032Y-49618794D01*
X101059030Y-49618793D01*
X101051501Y-49613913D01*
X101042904Y-49611342D01*
X101042902Y-49611341D01*
X100965973Y-49588335D01*
X100921006Y-49574887D01*
X100912030Y-49574832D01*
X100912029Y-49574832D01*
X100855036Y-49574484D01*
X100784804Y-49574055D01*
X100776172Y-49576522D01*
X100662473Y-49609017D01*
X100662471Y-49609018D01*
X100653842Y-49611484D01*
X100646252Y-49616273D01*
X100565955Y-49666937D01*
X100538650Y-49684165D01*
X100532707Y-49690894D01*
X100532706Y-49690895D01*
X100507950Y-49718926D01*
X100448487Y-49786255D01*
X100390601Y-49909548D01*
X100389221Y-49918412D01*
X100389220Y-49918415D01*
X100371198Y-50034165D01*
X100369646Y-50044131D01*
X100370810Y-50053033D01*
X100370810Y-50053036D01*
X100375884Y-50091835D01*
X100387306Y-50179186D01*
X100390923Y-50187406D01*
X100437604Y-50293496D01*
X100442162Y-50303856D01*
X100447939Y-50310729D01*
X100447940Y-50310730D01*
X100488079Y-50358481D01*
X100529804Y-50408119D01*
X100643187Y-50483593D01*
X100773195Y-50524210D01*
X100909377Y-50526706D01*
X100954530Y-50514396D01*
X101032124Y-50493242D01*
X101032127Y-50493241D01*
X101040786Y-50490880D01*
X101040952Y-50491490D01*
X101104727Y-50483618D01*
X101168705Y-50514396D01*
X101199635Y-50557206D01*
X101235880Y-50639578D01*
X101242162Y-50653856D01*
X101247939Y-50660729D01*
X101247940Y-50660730D01*
X101290816Y-50711737D01*
X101329804Y-50758119D01*
X101443187Y-50833593D01*
X101449503Y-50835566D01*
X101501494Y-50882155D01*
X101520358Y-50950600D01*
X101499223Y-51018378D01*
X101444800Y-51063970D01*
X101394375Y-51074500D01*
X100903497Y-51074500D01*
X100880209Y-51072021D01*
X100878111Y-51071922D01*
X100867934Y-51069731D01*
X100835871Y-51073526D01*
X100835016Y-51073627D01*
X100829179Y-51073971D01*
X100829187Y-51074072D01*
X100824008Y-51074500D01*
X100818807Y-51074500D01*
X100813679Y-51075354D01*
X100813673Y-51075354D01*
X100800013Y-51077628D01*
X100794118Y-51078467D01*
X100790878Y-51078850D01*
X100720881Y-51066983D01*
X100668410Y-51019156D01*
X100661386Y-51005872D01*
X100658422Y-50999354D01*
X100654706Y-50991180D01*
X100565796Y-50887996D01*
X100556785Y-50882155D01*
X100459032Y-50818794D01*
X100459030Y-50818793D01*
X100451501Y-50813913D01*
X100442904Y-50811342D01*
X100442902Y-50811341D01*
X100335227Y-50779140D01*
X100321006Y-50774887D01*
X100312030Y-50774832D01*
X100312029Y-50774832D01*
X100255036Y-50774484D01*
X100184804Y-50774055D01*
X100176172Y-50776522D01*
X100062473Y-50809017D01*
X100062471Y-50809018D01*
X100053842Y-50811484D01*
X100046252Y-50816273D01*
X99954428Y-50874210D01*
X99938650Y-50884165D01*
X99932707Y-50890894D01*
X99932706Y-50890895D01*
X99874216Y-50957123D01*
X99848487Y-50986255D01*
X99790601Y-51109548D01*
X99789221Y-51118412D01*
X99789220Y-51118415D01*
X99771908Y-51229606D01*
X99769646Y-51244131D01*
X99770810Y-51253033D01*
X99770810Y-51253036D01*
X99777161Y-51301605D01*
X99787306Y-51379186D01*
X99842162Y-51503856D01*
X99847939Y-51510729D01*
X99847940Y-51510730D01*
X99897010Y-51569106D01*
X99925531Y-51634122D01*
X99914375Y-51704236D01*
X99895000Y-51733589D01*
X99876839Y-51754153D01*
X99848487Y-51786255D01*
X99844673Y-51794378D01*
X99844672Y-51794380D01*
X99828710Y-51828379D01*
X99790601Y-51909548D01*
X99789221Y-51918412D01*
X99789220Y-51918415D01*
X99771222Y-52034012D01*
X99769646Y-52044131D01*
X99770810Y-52053033D01*
X99770810Y-52053036D01*
X99771481Y-52058167D01*
X99787306Y-52179186D01*
X99790923Y-52187406D01*
X99830482Y-52277310D01*
X99842162Y-52303856D01*
X99847939Y-52310729D01*
X99847940Y-52310730D01*
X99924024Y-52401243D01*
X99929804Y-52408119D01*
X99937281Y-52413096D01*
X100022459Y-52469795D01*
X100043187Y-52483593D01*
X100173195Y-52524210D01*
X100309377Y-52526706D01*
X100352542Y-52514938D01*
X100432124Y-52493242D01*
X100432127Y-52493241D01*
X100440786Y-52490880D01*
X100448436Y-52486183D01*
X100448438Y-52486182D01*
X100549206Y-52424311D01*
X100549209Y-52424308D01*
X100556858Y-52419612D01*
X100564699Y-52410950D01*
X100642233Y-52325291D01*
X100642234Y-52325290D01*
X100648261Y-52318631D01*
X100655420Y-52303856D01*
X100703734Y-52204135D01*
X100703734Y-52204134D01*
X100707649Y-52196054D01*
X100715667Y-52148401D01*
X100750825Y-52080212D01*
X100968632Y-51862405D01*
X101030944Y-51828379D01*
X101057727Y-51825500D01*
X101589273Y-51825500D01*
X101657394Y-51845502D01*
X101703887Y-51899158D01*
X101713991Y-51969432D01*
X101684497Y-52034012D01*
X101678368Y-52040595D01*
X99772311Y-53946652D01*
X99754080Y-53961377D01*
X99752540Y-53962778D01*
X99743790Y-53968428D01*
X99737343Y-53976606D01*
X99723264Y-53994465D01*
X99719383Y-53998832D01*
X99719461Y-53998898D01*
X99716107Y-54002856D01*
X99712425Y-54006538D01*
X99701339Y-54022052D01*
X99697788Y-54026781D01*
X99666397Y-54066600D01*
X99663395Y-54075149D01*
X99658128Y-54082519D01*
X99650045Y-54109548D01*
X99643608Y-54131070D01*
X99641774Y-54136714D01*
X99627604Y-54177065D01*
X99627603Y-54177071D01*
X99624977Y-54184548D01*
X99624500Y-54190055D01*
X99624500Y-54192762D01*
X99624389Y-54195335D01*
X99624341Y-54195494D01*
X99624197Y-54195488D01*
X99624158Y-54196108D01*
X99622310Y-54202287D01*
X99624185Y-54250000D01*
X99624403Y-54255555D01*
X99624500Y-54260502D01*
X99624500Y-56398231D01*
X99604498Y-56466352D01*
X99550842Y-56512845D01*
X99480568Y-56522949D01*
X99452723Y-56514705D01*
X99451501Y-56513913D01*
X99362182Y-56487201D01*
X99329604Y-56477458D01*
X99329602Y-56477458D01*
X99321006Y-56474887D01*
X99312812Y-56474837D01*
X99248752Y-56445148D01*
X99242700Y-56439481D01*
X93540530Y-50737311D01*
X93525805Y-50719080D01*
X93524404Y-50717540D01*
X93518754Y-50708790D01*
X93492717Y-50688264D01*
X93488350Y-50684383D01*
X93488284Y-50684461D01*
X93484326Y-50681107D01*
X93480644Y-50677425D01*
X93476413Y-50674402D01*
X93476410Y-50674399D01*
X93471591Y-50670956D01*
X93465130Y-50666339D01*
X93460394Y-50662783D01*
X93457558Y-50660547D01*
X93420582Y-50631397D01*
X93412033Y-50628395D01*
X93404663Y-50623128D01*
X93363468Y-50610808D01*
X93356112Y-50608608D01*
X93350468Y-50606774D01*
X93310117Y-50592604D01*
X93310111Y-50592603D01*
X93302634Y-50589977D01*
X93297127Y-50589500D01*
X93294420Y-50589500D01*
X93291847Y-50589389D01*
X93291688Y-50589341D01*
X93291694Y-50589197D01*
X93291074Y-50589158D01*
X93284895Y-50587310D01*
X93231627Y-50589403D01*
X93226680Y-50589500D01*
X87977021Y-50589500D01*
X87908900Y-50569498D01*
X87862407Y-50515842D01*
X87852303Y-50445568D01*
X87857708Y-50422998D01*
X87858858Y-50419612D01*
X87874678Y-50373007D01*
X87875507Y-50367291D01*
X87875508Y-50367286D01*
X87899607Y-50201069D01*
X87903700Y-50172842D01*
X87905215Y-50115000D01*
X87886708Y-49913591D01*
X87883963Y-49903856D01*
X87855838Y-49804135D01*
X87831807Y-49718926D01*
X87794922Y-49644131D01*
X88569646Y-49644131D01*
X88570810Y-49653033D01*
X88570810Y-49653036D01*
X88574254Y-49679374D01*
X88587306Y-49779186D01*
X88593992Y-49794380D01*
X88635194Y-49888019D01*
X88642162Y-49903856D01*
X88647939Y-49910729D01*
X88647940Y-49910730D01*
X88724024Y-50001243D01*
X88729804Y-50008119D01*
X88768932Y-50034165D01*
X88833400Y-50077078D01*
X88843187Y-50083593D01*
X88973195Y-50124210D01*
X89109377Y-50126706D01*
X89165868Y-50111305D01*
X89232124Y-50093242D01*
X89232127Y-50093241D01*
X89240786Y-50090880D01*
X89248436Y-50086183D01*
X89248438Y-50086182D01*
X89349206Y-50024311D01*
X89349209Y-50024308D01*
X89356858Y-50019612D01*
X89401708Y-49970063D01*
X89442233Y-49925291D01*
X89442234Y-49925290D01*
X89448261Y-49918631D01*
X89455015Y-49904692D01*
X89503734Y-49804135D01*
X89503734Y-49804134D01*
X89507649Y-49796054D01*
X89525147Y-49692053D01*
X89529441Y-49666530D01*
X89529441Y-49666525D01*
X89530247Y-49661737D01*
X89530390Y-49650000D01*
X89524521Y-49609017D01*
X89512354Y-49524057D01*
X89512353Y-49524054D01*
X89511081Y-49515171D01*
X89501027Y-49493057D01*
X89458422Y-49399354D01*
X89454706Y-49391180D01*
X89365796Y-49287996D01*
X89288931Y-49238174D01*
X89259032Y-49218794D01*
X89259030Y-49218793D01*
X89251501Y-49213913D01*
X89242904Y-49211342D01*
X89242902Y-49211341D01*
X89165973Y-49188335D01*
X89121006Y-49174887D01*
X89112030Y-49174832D01*
X89112029Y-49174832D01*
X89055036Y-49174484D01*
X88984804Y-49174055D01*
X88976172Y-49176522D01*
X88862473Y-49209017D01*
X88862471Y-49209018D01*
X88853842Y-49211484D01*
X88846252Y-49216273D01*
X88754428Y-49274210D01*
X88738650Y-49284165D01*
X88648487Y-49386255D01*
X88590601Y-49509548D01*
X88589221Y-49518412D01*
X88589220Y-49518415D01*
X88573984Y-49616273D01*
X88569646Y-49644131D01*
X87794922Y-49644131D01*
X87742351Y-49537527D01*
X87732293Y-49524057D01*
X87624788Y-49380091D01*
X87624787Y-49380090D01*
X87621335Y-49375467D01*
X87617099Y-49371551D01*
X87477053Y-49242094D01*
X87477051Y-49242092D01*
X87472812Y-49238174D01*
X87441114Y-49218174D01*
X87306637Y-49133325D01*
X87301757Y-49130246D01*
X87113898Y-49055298D01*
X86915526Y-49015839D01*
X86909752Y-49015763D01*
X86909748Y-49015763D01*
X86807257Y-49014422D01*
X86713286Y-49013192D01*
X86707589Y-49014171D01*
X86707588Y-49014171D01*
X86519646Y-49046465D01*
X86519645Y-49046465D01*
X86513949Y-49047444D01*
X86324193Y-49117449D01*
X86319232Y-49120401D01*
X86319231Y-49120401D01*
X86170281Y-49209017D01*
X86150371Y-49220862D01*
X85998305Y-49354220D01*
X85873089Y-49513057D01*
X85778914Y-49692053D01*
X85718937Y-49885213D01*
X85695164Y-50086069D01*
X85708392Y-50287894D01*
X85726319Y-50358481D01*
X85753099Y-50463928D01*
X85758178Y-50483928D01*
X85842856Y-50667607D01*
X85849795Y-50677425D01*
X85949704Y-50818794D01*
X85959588Y-50832780D01*
X85963730Y-50836815D01*
X86016269Y-50887996D01*
X86104466Y-50973913D01*
X86272637Y-51086282D01*
X86277940Y-51088560D01*
X86277943Y-51088562D01*
X86453163Y-51163842D01*
X86458470Y-51166122D01*
X86655740Y-51210760D01*
X86661509Y-51210987D01*
X86661512Y-51210987D01*
X86737683Y-51213979D01*
X86857842Y-51218700D01*
X86944132Y-51206189D01*
X87052286Y-51190508D01*
X87052291Y-51190507D01*
X87058007Y-51189678D01*
X87063480Y-51187820D01*
X87063485Y-51187819D01*
X87197061Y-51142476D01*
X87267996Y-51139520D01*
X87326657Y-51172694D01*
X87346652Y-51192689D01*
X87361377Y-51210920D01*
X87362778Y-51212460D01*
X87368428Y-51221210D01*
X87376606Y-51227657D01*
X87394465Y-51241736D01*
X87398834Y-51245619D01*
X87398900Y-51245541D01*
X87402855Y-51248892D01*
X87406539Y-51252576D01*
X87410779Y-51255605D01*
X87410778Y-51255605D01*
X87422049Y-51263660D01*
X87426798Y-51267226D01*
X87458415Y-51292152D01*
X87458422Y-51292156D01*
X87466600Y-51298603D01*
X87475149Y-51301605D01*
X87482519Y-51306872D01*
X87492500Y-51309857D01*
X87531083Y-51321396D01*
X87536730Y-51323231D01*
X87577064Y-51337395D01*
X87577065Y-51337395D01*
X87584548Y-51340023D01*
X87590055Y-51340500D01*
X87592762Y-51340500D01*
X87595332Y-51340611D01*
X87595494Y-51340659D01*
X87595488Y-51340804D01*
X87596108Y-51340843D01*
X87602287Y-51342691D01*
X87655581Y-51340597D01*
X87660527Y-51340500D01*
X92802614Y-51340500D01*
X92870735Y-51360502D01*
X92917228Y-51414158D01*
X92927332Y-51484432D01*
X92897838Y-51549012D01*
X92837239Y-51587649D01*
X92762473Y-51609017D01*
X92762471Y-51609018D01*
X92753842Y-51611484D01*
X92746252Y-51616273D01*
X92676314Y-51660401D01*
X92638650Y-51684165D01*
X92632707Y-51690894D01*
X92632706Y-51690895D01*
X92576839Y-51754153D01*
X92548487Y-51786255D01*
X92544673Y-51794378D01*
X92544672Y-51794380D01*
X92528710Y-51828379D01*
X92490601Y-51909548D01*
X92489221Y-51918412D01*
X92489220Y-51918415D01*
X92471222Y-52034012D01*
X92469646Y-52044131D01*
X92470810Y-52053033D01*
X92470810Y-52053036D01*
X92471481Y-52058167D01*
X92487306Y-52179186D01*
X92490923Y-52187406D01*
X92530482Y-52277310D01*
X92542162Y-52303856D01*
X92547939Y-52310729D01*
X92547940Y-52310730D01*
X92624024Y-52401243D01*
X92629804Y-52408119D01*
X92637281Y-52413096D01*
X92722459Y-52469795D01*
X92743187Y-52483593D01*
X92873195Y-52524210D01*
X93009377Y-52526706D01*
X93052542Y-52514938D01*
X93132124Y-52493242D01*
X93132127Y-52493241D01*
X93140786Y-52490880D01*
X93148436Y-52486183D01*
X93148438Y-52486182D01*
X93249206Y-52424311D01*
X93249209Y-52424308D01*
X93256858Y-52419612D01*
X93264699Y-52410950D01*
X93342233Y-52325291D01*
X93342234Y-52325290D01*
X93348261Y-52318631D01*
X93355420Y-52303856D01*
X93403734Y-52204135D01*
X93403734Y-52204134D01*
X93407649Y-52196054D01*
X93422348Y-52108689D01*
X93429441Y-52066530D01*
X93429441Y-52066525D01*
X93430247Y-52061737D01*
X93430390Y-52050000D01*
X93423708Y-52003342D01*
X93433850Y-51933074D01*
X93480373Y-51879444D01*
X93548505Y-51859480D01*
X93616615Y-51879520D01*
X93637530Y-51896385D01*
X97247307Y-55506162D01*
X97281333Y-55568474D01*
X97276268Y-55639289D01*
X97233721Y-55696125D01*
X97211162Y-55709392D01*
X97203842Y-55711484D01*
X97196251Y-55716273D01*
X97196250Y-55716274D01*
X97134774Y-55755062D01*
X97067539Y-55774500D01*
X96857727Y-55774500D01*
X96789606Y-55754498D01*
X96768632Y-55737595D01*
X96253348Y-55222311D01*
X96238623Y-55204080D01*
X96237222Y-55202540D01*
X96231572Y-55193790D01*
X96205535Y-55173264D01*
X96201168Y-55169383D01*
X96201102Y-55169461D01*
X96197144Y-55166107D01*
X96193462Y-55162425D01*
X96189231Y-55159402D01*
X96189228Y-55159399D01*
X96178642Y-55151835D01*
X96177948Y-55151339D01*
X96173212Y-55147783D01*
X96158452Y-55136147D01*
X96133400Y-55116397D01*
X96124851Y-55113395D01*
X96117481Y-55108128D01*
X96084203Y-55098176D01*
X96068930Y-55093608D01*
X96063286Y-55091774D01*
X96022935Y-55077604D01*
X96022929Y-55077603D01*
X96015452Y-55074977D01*
X96009945Y-55074500D01*
X96007238Y-55074500D01*
X96004665Y-55074389D01*
X96004506Y-55074341D01*
X96004512Y-55074197D01*
X96003892Y-55074158D01*
X95997713Y-55072310D01*
X95944445Y-55074403D01*
X95939498Y-55074500D01*
X95529909Y-55074500D01*
X95461788Y-55054498D01*
X95440814Y-55037595D01*
X95187405Y-54784186D01*
X95153379Y-54721874D01*
X95150500Y-54695091D01*
X95150500Y-54500678D01*
X95152979Y-54477390D01*
X95153078Y-54475292D01*
X95155269Y-54465115D01*
X95151373Y-54432197D01*
X95151029Y-54426361D01*
X95150928Y-54426369D01*
X95150500Y-54421190D01*
X95150500Y-54415989D01*
X95147371Y-54397189D01*
X95146534Y-54391312D01*
X95141800Y-54351316D01*
X95140576Y-54340972D01*
X95136654Y-54332805D01*
X95135167Y-54323869D01*
X95130223Y-54314707D01*
X95130222Y-54314703D01*
X95111094Y-54279253D01*
X95108398Y-54273962D01*
X95089897Y-54235433D01*
X95089896Y-54235432D01*
X95086463Y-54228282D01*
X95082906Y-54224051D01*
X95080974Y-54222119D01*
X95079255Y-54220245D01*
X95079181Y-54220108D01*
X95079291Y-54220008D01*
X95078868Y-54219528D01*
X95075806Y-54213853D01*
X95067811Y-54206462D01*
X95036633Y-54177642D01*
X95033067Y-54174212D01*
X93931166Y-53072311D01*
X93916441Y-53054080D01*
X93915040Y-53052540D01*
X93909390Y-53043790D01*
X93883353Y-53023264D01*
X93878986Y-53019383D01*
X93878920Y-53019461D01*
X93874962Y-53016107D01*
X93871280Y-53012425D01*
X93867049Y-53009402D01*
X93867046Y-53009399D01*
X93859389Y-53003928D01*
X93855766Y-53001339D01*
X93851030Y-52997783D01*
X93811218Y-52966397D01*
X93802669Y-52963395D01*
X93795299Y-52958128D01*
X93762021Y-52948176D01*
X93746748Y-52943608D01*
X93741104Y-52941774D01*
X93700753Y-52927604D01*
X93700747Y-52927603D01*
X93693270Y-52924977D01*
X93687763Y-52924500D01*
X93685056Y-52924500D01*
X93682483Y-52924389D01*
X93682324Y-52924341D01*
X93682330Y-52924197D01*
X93681710Y-52924158D01*
X93675531Y-52922310D01*
X93622263Y-52924403D01*
X93617316Y-52924500D01*
X91879909Y-52924500D01*
X91811788Y-52904498D01*
X91790814Y-52887595D01*
X91330530Y-52427311D01*
X91315805Y-52409080D01*
X91314404Y-52407540D01*
X91308754Y-52398790D01*
X91282717Y-52378264D01*
X91278350Y-52374383D01*
X91278284Y-52374461D01*
X91274326Y-52371107D01*
X91270644Y-52367425D01*
X91266413Y-52364402D01*
X91266410Y-52364399D01*
X91261591Y-52360956D01*
X91255130Y-52356339D01*
X91250394Y-52352783D01*
X91210582Y-52321397D01*
X91202033Y-52318395D01*
X91194663Y-52313128D01*
X91161385Y-52303176D01*
X91146112Y-52298608D01*
X91140468Y-52296774D01*
X91100117Y-52282604D01*
X91100111Y-52282603D01*
X91092634Y-52279977D01*
X91087127Y-52279500D01*
X91084420Y-52279500D01*
X91081847Y-52279389D01*
X91081688Y-52279341D01*
X91081694Y-52279197D01*
X91081074Y-52279158D01*
X91074895Y-52277310D01*
X91021627Y-52279403D01*
X91016680Y-52279500D01*
X87920305Y-52279500D01*
X87852184Y-52259498D01*
X87807299Y-52209229D01*
X87796537Y-52187406D01*
X87742351Y-52077527D01*
X87724079Y-52053057D01*
X87624788Y-51920091D01*
X87624787Y-51920090D01*
X87621335Y-51915467D01*
X87614932Y-51909548D01*
X87477053Y-51782094D01*
X87477051Y-51782092D01*
X87472812Y-51778174D01*
X87441114Y-51758174D01*
X87306637Y-51673325D01*
X87301757Y-51670246D01*
X87113898Y-51595298D01*
X86915526Y-51555839D01*
X86909752Y-51555763D01*
X86909748Y-51555763D01*
X86807257Y-51554422D01*
X86713286Y-51553192D01*
X86707589Y-51554171D01*
X86707588Y-51554171D01*
X86519646Y-51586465D01*
X86519645Y-51586465D01*
X86513949Y-51587444D01*
X86324193Y-51657449D01*
X86319232Y-51660401D01*
X86319231Y-51660401D01*
X86155340Y-51757906D01*
X86150371Y-51760862D01*
X85998305Y-51894220D01*
X85873089Y-52053057D01*
X85778914Y-52232053D01*
X85718937Y-52425213D01*
X85695164Y-52626069D01*
X85708392Y-52827894D01*
X85726319Y-52898481D01*
X85755257Y-53012425D01*
X85758178Y-53023928D01*
X85842856Y-53207607D01*
X85846189Y-53212323D01*
X85951577Y-53361444D01*
X85959588Y-53372780D01*
X86104466Y-53513913D01*
X86272637Y-53626282D01*
X86277940Y-53628560D01*
X86277943Y-53628562D01*
X86412058Y-53686182D01*
X86458470Y-53706122D01*
X86655740Y-53750760D01*
X86661509Y-53750987D01*
X86661512Y-53750987D01*
X86737683Y-53753979D01*
X86857842Y-53758700D01*
X86944132Y-53746189D01*
X87052286Y-53730508D01*
X87052291Y-53730507D01*
X87058007Y-53729678D01*
X87063479Y-53727820D01*
X87063481Y-53727820D01*
X87244067Y-53666519D01*
X87244069Y-53666518D01*
X87249531Y-53664664D01*
X87372017Y-53596069D01*
X87420964Y-53568658D01*
X87420965Y-53568657D01*
X87426001Y-53565837D01*
X87488433Y-53513913D01*
X87577073Y-53440191D01*
X87581505Y-53436505D01*
X87710837Y-53281001D01*
X87722038Y-53261001D01*
X87806844Y-53109566D01*
X87809664Y-53104531D01*
X87809855Y-53103969D01*
X87854747Y-53051155D01*
X87923872Y-53030500D01*
X88255272Y-53030500D01*
X88323393Y-53050502D01*
X88369886Y-53104158D01*
X88379772Y-53175885D01*
X88370527Y-53235258D01*
X88370527Y-53235262D01*
X88369146Y-53244131D01*
X88370310Y-53253033D01*
X88370310Y-53253036D01*
X88373967Y-53281001D01*
X88386806Y-53379186D01*
X88441662Y-53503856D01*
X88447439Y-53510729D01*
X88447440Y-53510730D01*
X88506785Y-53581329D01*
X88529304Y-53608119D01*
X88572098Y-53636605D01*
X88633821Y-53677691D01*
X88642687Y-53683593D01*
X88673572Y-53693242D01*
X88757821Y-53719563D01*
X88772695Y-53724210D01*
X88908877Y-53726706D01*
X88952042Y-53714938D01*
X89031624Y-53693242D01*
X89031627Y-53693241D01*
X89040286Y-53690880D01*
X89047936Y-53686183D01*
X89047938Y-53686182D01*
X89148706Y-53624311D01*
X89148709Y-53624308D01*
X89156358Y-53619612D01*
X89167702Y-53607080D01*
X89241733Y-53525291D01*
X89241734Y-53525290D01*
X89247761Y-53518631D01*
X89254920Y-53503856D01*
X89303234Y-53404135D01*
X89303234Y-53404134D01*
X89307149Y-53396054D01*
X89319618Y-53321941D01*
X89328941Y-53266530D01*
X89328941Y-53266525D01*
X89329747Y-53261737D01*
X89329890Y-53250000D01*
X89319058Y-53174362D01*
X89329201Y-53104094D01*
X89375723Y-53050464D01*
X89443785Y-53030500D01*
X90819455Y-53030500D01*
X90887576Y-53050502D01*
X90908550Y-53067405D01*
X91368833Y-53527688D01*
X91383555Y-53545916D01*
X91384962Y-53547462D01*
X91390610Y-53556210D01*
X91398790Y-53562658D01*
X91398792Y-53562661D01*
X91416643Y-53576734D01*
X91421017Y-53580621D01*
X91421083Y-53580543D01*
X91425042Y-53583898D01*
X91428720Y-53587576D01*
X91432944Y-53590595D01*
X91432953Y-53590602D01*
X91444256Y-53598679D01*
X91449002Y-53602243D01*
X91488782Y-53633603D01*
X91497330Y-53636605D01*
X91504701Y-53641872D01*
X91514674Y-53644855D01*
X91514677Y-53644856D01*
X91553265Y-53656396D01*
X91558912Y-53658231D01*
X91599246Y-53672395D01*
X91599247Y-53672395D01*
X91606730Y-53675023D01*
X91612237Y-53675500D01*
X91614944Y-53675500D01*
X91617514Y-53675611D01*
X91617676Y-53675659D01*
X91617670Y-53675804D01*
X91618290Y-53675843D01*
X91624469Y-53677691D01*
X91677763Y-53675597D01*
X91682709Y-53675500D01*
X93420091Y-53675500D01*
X93488212Y-53695502D01*
X93509186Y-53712405D01*
X93858023Y-54061242D01*
X93892049Y-54123554D01*
X93886984Y-54194369D01*
X93844437Y-54251205D01*
X93788695Y-54274079D01*
X93784804Y-54274055D01*
X93776173Y-54276522D01*
X93776171Y-54276522D01*
X93662473Y-54309017D01*
X93662471Y-54309018D01*
X93653842Y-54311484D01*
X93646252Y-54316273D01*
X93607107Y-54340972D01*
X93538650Y-54384165D01*
X93532707Y-54390894D01*
X93532706Y-54390895D01*
X93490431Y-54438762D01*
X93448487Y-54486255D01*
X93444673Y-54494378D01*
X93444672Y-54494380D01*
X93425480Y-54535259D01*
X93390601Y-54609548D01*
X93389221Y-54618412D01*
X93389220Y-54618415D01*
X93372385Y-54726541D01*
X93369646Y-54744131D01*
X93370810Y-54753033D01*
X93370810Y-54753036D01*
X93387306Y-54879186D01*
X93384362Y-54879571D01*
X93383611Y-54935614D01*
X93344431Y-54994821D01*
X93279461Y-55023446D01*
X93263201Y-55024500D01*
X92344837Y-55024500D01*
X92276716Y-55004498D01*
X92230223Y-54950842D01*
X92220119Y-54880568D01*
X92240378Y-54828042D01*
X92242236Y-54825287D01*
X92248261Y-54818631D01*
X92255420Y-54803856D01*
X92303734Y-54704135D01*
X92303734Y-54704134D01*
X92307649Y-54696054D01*
X92323570Y-54601425D01*
X92329441Y-54566530D01*
X92329441Y-54566525D01*
X92330247Y-54561737D01*
X92330390Y-54550000D01*
X92323327Y-54500678D01*
X92312354Y-54424057D01*
X92312353Y-54424054D01*
X92311081Y-54415171D01*
X92300044Y-54390895D01*
X92275891Y-54337774D01*
X92254706Y-54291180D01*
X92165796Y-54187996D01*
X92158261Y-54183112D01*
X92059032Y-54118794D01*
X92059030Y-54118793D01*
X92051501Y-54113913D01*
X92042904Y-54111342D01*
X92042902Y-54111341D01*
X91965973Y-54088335D01*
X91921006Y-54074887D01*
X91912030Y-54074832D01*
X91912029Y-54074832D01*
X91855036Y-54074484D01*
X91784804Y-54074055D01*
X91776172Y-54076522D01*
X91662473Y-54109017D01*
X91662471Y-54109018D01*
X91653842Y-54111484D01*
X91538650Y-54184165D01*
X91532707Y-54190894D01*
X91532706Y-54190895D01*
X91485690Y-54244131D01*
X91448487Y-54286255D01*
X91444673Y-54294378D01*
X91444672Y-54294380D01*
X91417941Y-54351316D01*
X91390601Y-54409548D01*
X91389221Y-54418412D01*
X91389220Y-54418415D01*
X91374847Y-54510730D01*
X91369646Y-54544131D01*
X91370810Y-54553033D01*
X91370810Y-54553036D01*
X91376023Y-54592900D01*
X91387306Y-54679186D01*
X91393491Y-54693242D01*
X91431193Y-54778926D01*
X91442162Y-54803856D01*
X91453569Y-54817426D01*
X91482089Y-54882440D01*
X91470933Y-54952555D01*
X91423641Y-55005507D01*
X91357117Y-55024500D01*
X88457727Y-55024500D01*
X88389606Y-55004498D01*
X88368632Y-54987595D01*
X88348348Y-54967311D01*
X88333623Y-54949080D01*
X88332222Y-54947540D01*
X88326572Y-54938790D01*
X88300535Y-54918264D01*
X88296168Y-54914383D01*
X88296102Y-54914461D01*
X88292144Y-54911107D01*
X88288462Y-54907425D01*
X88284231Y-54904402D01*
X88284228Y-54904399D01*
X88279409Y-54900956D01*
X88272948Y-54896339D01*
X88268212Y-54892783D01*
X88228400Y-54861397D01*
X88219851Y-54858395D01*
X88212481Y-54853128D01*
X88179203Y-54843176D01*
X88163930Y-54838608D01*
X88158286Y-54836774D01*
X88117935Y-54822604D01*
X88117929Y-54822603D01*
X88110452Y-54819977D01*
X88104945Y-54819500D01*
X88102238Y-54819500D01*
X88099665Y-54819389D01*
X88099506Y-54819341D01*
X88099512Y-54819197D01*
X88098892Y-54819158D01*
X88092713Y-54817310D01*
X88039445Y-54819403D01*
X88034498Y-54819500D01*
X87920305Y-54819500D01*
X87852184Y-54799498D01*
X87807299Y-54749229D01*
X87742351Y-54617527D01*
X87724079Y-54593057D01*
X87624788Y-54460091D01*
X87624787Y-54460090D01*
X87621335Y-54455467D01*
X87617099Y-54451551D01*
X87477053Y-54322094D01*
X87477051Y-54322092D01*
X87472812Y-54318174D01*
X87441114Y-54298174D01*
X87306637Y-54213325D01*
X87301757Y-54210246D01*
X87113898Y-54135298D01*
X86915526Y-54095839D01*
X86909752Y-54095763D01*
X86909748Y-54095763D01*
X86807257Y-54094422D01*
X86713286Y-54093192D01*
X86707589Y-54094171D01*
X86707588Y-54094171D01*
X86519646Y-54126465D01*
X86519645Y-54126465D01*
X86513949Y-54127444D01*
X86324193Y-54197449D01*
X86319232Y-54200401D01*
X86319231Y-54200401D01*
X86186693Y-54279253D01*
X86150371Y-54300862D01*
X85998305Y-54434220D01*
X85873089Y-54593057D01*
X85778914Y-54772053D01*
X85718937Y-54965213D01*
X85695164Y-55166069D01*
X85150500Y-55166069D01*
X85150500Y-48449674D01*
X85699500Y-48449674D01*
X85714034Y-48522740D01*
X85769399Y-48605601D01*
X85779714Y-48612493D01*
X85837981Y-48651425D01*
X85852260Y-48660966D01*
X85925326Y-48675500D01*
X87674674Y-48675500D01*
X87747740Y-48660966D01*
X87762020Y-48651425D01*
X87820286Y-48612493D01*
X87830601Y-48605601D01*
X87885966Y-48522740D01*
X87895081Y-48476917D01*
X87927989Y-48414008D01*
X87989685Y-48378877D01*
X88018660Y-48375500D01*
X92592273Y-48375500D01*
X92660394Y-48395502D01*
X92681368Y-48412405D01*
X96114640Y-51845677D01*
X96148666Y-51907989D01*
X96146039Y-51971612D01*
X96144416Y-51976920D01*
X96140601Y-51985046D01*
X96139220Y-51993915D01*
X96127914Y-52066530D01*
X96119646Y-52119629D01*
X96120810Y-52128531D01*
X96120810Y-52128534D01*
X96121948Y-52137235D01*
X96137306Y-52254684D01*
X96140923Y-52262904D01*
X96180471Y-52352783D01*
X96192162Y-52379354D01*
X96197939Y-52386227D01*
X96197940Y-52386228D01*
X96220525Y-52413096D01*
X96279804Y-52483617D01*
X96393187Y-52559091D01*
X96523195Y-52599708D01*
X96659377Y-52602204D01*
X96702542Y-52590436D01*
X96782124Y-52568740D01*
X96782127Y-52568739D01*
X96790786Y-52566378D01*
X96798436Y-52561681D01*
X96798438Y-52561680D01*
X96899206Y-52499809D01*
X96899209Y-52499806D01*
X96906858Y-52495110D01*
X96914940Y-52486182D01*
X96992233Y-52400789D01*
X96992234Y-52400788D01*
X96998261Y-52394129D01*
X97005420Y-52379354D01*
X97053734Y-52279633D01*
X97053734Y-52279632D01*
X97057649Y-52271552D01*
X97077404Y-52154135D01*
X97079441Y-52142028D01*
X97079441Y-52142023D01*
X97080247Y-52137235D01*
X97080390Y-52125498D01*
X97071259Y-52061737D01*
X97062354Y-51999555D01*
X97062353Y-51999552D01*
X97061081Y-51990669D01*
X97052417Y-51971612D01*
X97017795Y-51895467D01*
X97004706Y-51866678D01*
X96998847Y-51859879D01*
X96997722Y-51858119D01*
X96978746Y-51805048D01*
X96976374Y-51785011D01*
X96976030Y-51779178D01*
X96975928Y-51779186D01*
X96975500Y-51774007D01*
X96975500Y-51768807D01*
X96974647Y-51763681D01*
X96974646Y-51763672D01*
X96972374Y-51750023D01*
X96971537Y-51744147D01*
X96970174Y-51732632D01*
X96965577Y-51693791D01*
X96961654Y-51685622D01*
X96960167Y-51676687D01*
X96936098Y-51632079D01*
X96933403Y-51626790D01*
X96914892Y-51588241D01*
X96914891Y-51588239D01*
X96911463Y-51581101D01*
X96907906Y-51576869D01*
X96905964Y-51574927D01*
X96904255Y-51573064D01*
X96904176Y-51572917D01*
X96904284Y-51572818D01*
X96903868Y-51572346D01*
X96900806Y-51566671D01*
X96886225Y-51553192D01*
X96861633Y-51530460D01*
X96858067Y-51527030D01*
X96693770Y-51362733D01*
X96659744Y-51300421D01*
X96664809Y-51229606D01*
X96707356Y-51172770D01*
X96749723Y-51152075D01*
X96782124Y-51143242D01*
X96782127Y-51143241D01*
X96790786Y-51140880D01*
X96798436Y-51136183D01*
X96798438Y-51136182D01*
X96899206Y-51074311D01*
X96899209Y-51074308D01*
X96906858Y-51069612D01*
X96920539Y-51054498D01*
X96992233Y-50975291D01*
X96992234Y-50975290D01*
X96998261Y-50968631D01*
X97016703Y-50930568D01*
X97053734Y-50854135D01*
X97053734Y-50854134D01*
X97057649Y-50846054D01*
X97072444Y-50758119D01*
X97079441Y-50716530D01*
X97079441Y-50716525D01*
X97080247Y-50711737D01*
X97080390Y-50700000D01*
X97072887Y-50647607D01*
X97062354Y-50574057D01*
X97062353Y-50574054D01*
X97061081Y-50565171D01*
X97004706Y-50441180D01*
X96915796Y-50337996D01*
X96873730Y-50310730D01*
X96809032Y-50268794D01*
X96809030Y-50268793D01*
X96801501Y-50263913D01*
X96792904Y-50261342D01*
X96792902Y-50261341D01*
X96709229Y-50236318D01*
X96671006Y-50224887D01*
X96662030Y-50224832D01*
X96662029Y-50224832D01*
X96605036Y-50224484D01*
X96534804Y-50224055D01*
X96526172Y-50226522D01*
X96412473Y-50259017D01*
X96412471Y-50259018D01*
X96403842Y-50261484D01*
X96396252Y-50266273D01*
X96349715Y-50295636D01*
X96288650Y-50334165D01*
X96282707Y-50340894D01*
X96282706Y-50340895D01*
X96272009Y-50353007D01*
X96198487Y-50436255D01*
X96194673Y-50444378D01*
X96194672Y-50444380D01*
X96156020Y-50526706D01*
X96144337Y-50551590D01*
X96144336Y-50551592D01*
X96140854Y-50559009D01*
X96140601Y-50559548D01*
X96139452Y-50559009D01*
X96105338Y-50610808D01*
X96040432Y-50639578D01*
X95970276Y-50628690D01*
X95934800Y-50603763D01*
X94125168Y-48794131D01*
X95069646Y-48794131D01*
X95070810Y-48803033D01*
X95070810Y-48803036D01*
X95071948Y-48811737D01*
X95087306Y-48929186D01*
X95142162Y-49053856D01*
X95147939Y-49060729D01*
X95147940Y-49060730D01*
X95224024Y-49151243D01*
X95229804Y-49158119D01*
X95258860Y-49177460D01*
X95317168Y-49216273D01*
X95343187Y-49233593D01*
X95473195Y-49274210D01*
X95609377Y-49276706D01*
X95652542Y-49264938D01*
X95732124Y-49243242D01*
X95732127Y-49243241D01*
X95740786Y-49240880D01*
X95748436Y-49236183D01*
X95748438Y-49236182D01*
X95849206Y-49174311D01*
X95849209Y-49174308D01*
X95856858Y-49169612D01*
X95889704Y-49133325D01*
X95942233Y-49075291D01*
X95942234Y-49075290D01*
X95948261Y-49068631D01*
X95955420Y-49053856D01*
X96003734Y-48954135D01*
X96003734Y-48954134D01*
X96007649Y-48946054D01*
X96030247Y-48811737D01*
X96030390Y-48800000D01*
X96025134Y-48763301D01*
X96012354Y-48674057D01*
X96012353Y-48674054D01*
X96011081Y-48665171D01*
X95954706Y-48541180D01*
X95865796Y-48437996D01*
X95833593Y-48417123D01*
X95759032Y-48368794D01*
X95759030Y-48368793D01*
X95751501Y-48363913D01*
X95742904Y-48361342D01*
X95742902Y-48361341D01*
X95659854Y-48336505D01*
X95621006Y-48324887D01*
X95612030Y-48324832D01*
X95612029Y-48324832D01*
X95555036Y-48324484D01*
X95484804Y-48324055D01*
X95476172Y-48326522D01*
X95362473Y-48359017D01*
X95362471Y-48359018D01*
X95353842Y-48361484D01*
X95238650Y-48434165D01*
X95232707Y-48440894D01*
X95232706Y-48440895D01*
X95213938Y-48462146D01*
X95148487Y-48536255D01*
X95144673Y-48544378D01*
X95144672Y-48544380D01*
X95135149Y-48564664D01*
X95090601Y-48659548D01*
X95069646Y-48794131D01*
X94125168Y-48794131D01*
X93103348Y-47772311D01*
X93088623Y-47754080D01*
X93087222Y-47752540D01*
X93081572Y-47743790D01*
X93055535Y-47723264D01*
X93051168Y-47719383D01*
X93051102Y-47719461D01*
X93047144Y-47716107D01*
X93043462Y-47712425D01*
X93039231Y-47709402D01*
X93039228Y-47709399D01*
X93034409Y-47705956D01*
X93027948Y-47701339D01*
X93023212Y-47697783D01*
X92983400Y-47666397D01*
X92974851Y-47663395D01*
X92967481Y-47658128D01*
X92934203Y-47648176D01*
X92918930Y-47643608D01*
X92913286Y-47641774D01*
X92872935Y-47627604D01*
X92872929Y-47627603D01*
X92865452Y-47624977D01*
X92859945Y-47624500D01*
X92857238Y-47624500D01*
X92854665Y-47624389D01*
X92854506Y-47624341D01*
X92854512Y-47624197D01*
X92853892Y-47624158D01*
X92847713Y-47622310D01*
X92794445Y-47624403D01*
X92789498Y-47624500D01*
X91010727Y-47624500D01*
X90942606Y-47604498D01*
X90896113Y-47550842D01*
X90886009Y-47480568D01*
X90915503Y-47415988D01*
X90921632Y-47409405D01*
X92018632Y-46312405D01*
X92080944Y-46278379D01*
X92107727Y-46275500D01*
X95902133Y-46275500D01*
X95970254Y-46295502D01*
X96016747Y-46349158D01*
X96026851Y-46419432D01*
X96016188Y-46455048D01*
X95996970Y-46495983D01*
X95990601Y-46509548D01*
X95989221Y-46518412D01*
X95989220Y-46518415D01*
X95972273Y-46627260D01*
X95969646Y-46644131D01*
X95970810Y-46653033D01*
X95970810Y-46653036D01*
X95974610Y-46682094D01*
X95987306Y-46779186D01*
X95990923Y-46787406D01*
X96034255Y-46885885D01*
X96042162Y-46903856D01*
X96047939Y-46910729D01*
X96047940Y-46910730D01*
X96101385Y-46974311D01*
X96129804Y-47008119D01*
X96137281Y-47013096D01*
X96225070Y-47071533D01*
X96243187Y-47083593D01*
X96373195Y-47124210D01*
X96509377Y-47126706D01*
X96552542Y-47114938D01*
X96632124Y-47093242D01*
X96632127Y-47093241D01*
X96640786Y-47090880D01*
X96648436Y-47086183D01*
X96648438Y-47086182D01*
X96749206Y-47024311D01*
X96749209Y-47024308D01*
X96756858Y-47019612D01*
X96790264Y-46982706D01*
X96842233Y-46925291D01*
X96842234Y-46925290D01*
X96848261Y-46918631D01*
X96855420Y-46903856D01*
X96903734Y-46804135D01*
X96903734Y-46804134D01*
X96907649Y-46796054D01*
X96923755Y-46700326D01*
X96929441Y-46666530D01*
X96929441Y-46666525D01*
X96930247Y-46661737D01*
X96930390Y-46650000D01*
X96923664Y-46603036D01*
X96922389Y-46594131D01*
X103269146Y-46594131D01*
X103270310Y-46603033D01*
X103270310Y-46603036D01*
X103277087Y-46654860D01*
X103286806Y-46729186D01*
X103312333Y-46787201D01*
X103330048Y-46827460D01*
X103341662Y-46853856D01*
X103347439Y-46860729D01*
X103347440Y-46860730D01*
X103419897Y-46946928D01*
X103429304Y-46958119D01*
X103436781Y-46963096D01*
X103516668Y-47016273D01*
X103542687Y-47033593D01*
X103672695Y-47074210D01*
X103808877Y-47076706D01*
X103852042Y-47064938D01*
X103931624Y-47043242D01*
X103931627Y-47043241D01*
X103940286Y-47040880D01*
X103947936Y-47036183D01*
X103947938Y-47036182D01*
X104048706Y-46974311D01*
X104048709Y-46974308D01*
X104056358Y-46969612D01*
X104062384Y-46962955D01*
X104132144Y-46885885D01*
X104192687Y-46848803D01*
X104263667Y-46850341D01*
X104322009Y-46889363D01*
X104379804Y-46958119D01*
X104387281Y-46963096D01*
X104467168Y-47016273D01*
X104493187Y-47033593D01*
X104623195Y-47074210D01*
X104759377Y-47076706D01*
X104802542Y-47064938D01*
X104882124Y-47043242D01*
X104882127Y-47043241D01*
X104890786Y-47040880D01*
X104898436Y-47036183D01*
X104898438Y-47036182D01*
X104999206Y-46974311D01*
X104999209Y-46974308D01*
X105006858Y-46969612D01*
X105017218Y-46958167D01*
X105092233Y-46875291D01*
X105092234Y-46875290D01*
X105098261Y-46868631D01*
X105105420Y-46853856D01*
X105153734Y-46754135D01*
X105153734Y-46754134D01*
X105157649Y-46746054D01*
X105173299Y-46653036D01*
X105179441Y-46616530D01*
X105179441Y-46616525D01*
X105180247Y-46611737D01*
X105180390Y-46600000D01*
X105168242Y-46515171D01*
X105162354Y-46474057D01*
X105162353Y-46474054D01*
X105161081Y-46465171D01*
X105156479Y-46455048D01*
X105131156Y-46399354D01*
X105104706Y-46341180D01*
X105015796Y-46237996D01*
X105002494Y-46229374D01*
X104909032Y-46168794D01*
X104909030Y-46168793D01*
X104901501Y-46163913D01*
X104892904Y-46161342D01*
X104892902Y-46161341D01*
X104781134Y-46127916D01*
X104771006Y-46124887D01*
X104762030Y-46124832D01*
X104762029Y-46124832D01*
X104705036Y-46124484D01*
X104634804Y-46124055D01*
X104626172Y-46126522D01*
X104512473Y-46159017D01*
X104512471Y-46159018D01*
X104503842Y-46161484D01*
X104388650Y-46234165D01*
X104382707Y-46240894D01*
X104382706Y-46240895D01*
X104318921Y-46313118D01*
X104258835Y-46350936D01*
X104187842Y-46350266D01*
X104129028Y-46311959D01*
X104071158Y-46244799D01*
X104071157Y-46244798D01*
X104065296Y-46237996D01*
X104051994Y-46229374D01*
X103958532Y-46168794D01*
X103958530Y-46168793D01*
X103951001Y-46163913D01*
X103942404Y-46161342D01*
X103942402Y-46161341D01*
X103830634Y-46127916D01*
X103820506Y-46124887D01*
X103811530Y-46124832D01*
X103811529Y-46124832D01*
X103754536Y-46124484D01*
X103684304Y-46124055D01*
X103675672Y-46126522D01*
X103561973Y-46159017D01*
X103561971Y-46159018D01*
X103553342Y-46161484D01*
X103438150Y-46234165D01*
X103347987Y-46336255D01*
X103290101Y-46459548D01*
X103288721Y-46468412D01*
X103288720Y-46468415D01*
X103272386Y-46573325D01*
X103269146Y-46594131D01*
X96922389Y-46594131D01*
X96912354Y-46524057D01*
X96912353Y-46524054D01*
X96911081Y-46515171D01*
X96854706Y-46391180D01*
X96848848Y-46384381D01*
X96848845Y-46384377D01*
X96825961Y-46357820D01*
X96796647Y-46293158D01*
X96806946Y-46222912D01*
X96827997Y-46191019D01*
X96842233Y-46175291D01*
X96842234Y-46175290D01*
X96848261Y-46168631D01*
X96865122Y-46133831D01*
X96903734Y-46054135D01*
X96903734Y-46054134D01*
X96907649Y-46046054D01*
X96930247Y-45911737D01*
X96930390Y-45900000D01*
X96911081Y-45765171D01*
X96854706Y-45641180D01*
X96765796Y-45537996D01*
X96746292Y-45525354D01*
X96659032Y-45468794D01*
X96659030Y-45468793D01*
X96651501Y-45463913D01*
X96642904Y-45461342D01*
X96642902Y-45461341D01*
X96565973Y-45438335D01*
X96521006Y-45424887D01*
X96512030Y-45424832D01*
X96512029Y-45424832D01*
X96455036Y-45424484D01*
X96384804Y-45424055D01*
X96376172Y-45426522D01*
X96262473Y-45459017D01*
X96262471Y-45459018D01*
X96253842Y-45461484D01*
X96246251Y-45466274D01*
X96246248Y-45466275D01*
X96184774Y-45505062D01*
X96117539Y-45524500D01*
X91953496Y-45524500D01*
X91930199Y-45522021D01*
X91928114Y-45521923D01*
X91917934Y-45519731D01*
X91885871Y-45523526D01*
X91885016Y-45523627D01*
X91879179Y-45523971D01*
X91879187Y-45524072D01*
X91874008Y-45524500D01*
X91868807Y-45524500D01*
X91863679Y-45525354D01*
X91863673Y-45525354D01*
X91850013Y-45527628D01*
X91844137Y-45528465D01*
X91839048Y-45529067D01*
X91793790Y-45534424D01*
X91785623Y-45538346D01*
X91776687Y-45539833D01*
X91767525Y-45544777D01*
X91767521Y-45544778D01*
X91732071Y-45563906D01*
X91726780Y-45566602D01*
X91688251Y-45585103D01*
X91681100Y-45588537D01*
X91676869Y-45592094D01*
X91674937Y-45594026D01*
X91673063Y-45595745D01*
X91672926Y-45595819D01*
X91672826Y-45595709D01*
X91672346Y-45596132D01*
X91666671Y-45599194D01*
X91659602Y-45606841D01*
X91659601Y-45606842D01*
X91630460Y-45638367D01*
X91627030Y-45641933D01*
X90322035Y-46946928D01*
X90267564Y-46978982D01*
X90162475Y-47009016D01*
X90162471Y-47009018D01*
X90153842Y-47011484D01*
X90146252Y-47016273D01*
X90054428Y-47074210D01*
X90038650Y-47084165D01*
X90032707Y-47090894D01*
X90032706Y-47090895D01*
X90001225Y-47126541D01*
X89948487Y-47186255D01*
X89890601Y-47309548D01*
X89889221Y-47318412D01*
X89889220Y-47318415D01*
X89873360Y-47420281D01*
X89869646Y-47444131D01*
X89870810Y-47453033D01*
X89870810Y-47453037D01*
X89874619Y-47482164D01*
X89863618Y-47552303D01*
X89816444Y-47605360D01*
X89749683Y-47624500D01*
X89621836Y-47624500D01*
X89553715Y-47604498D01*
X89507222Y-47550842D01*
X89497118Y-47480568D01*
X89501802Y-47460188D01*
X89503734Y-47454134D01*
X89507649Y-47446054D01*
X89522237Y-47359348D01*
X89529441Y-47316530D01*
X89529441Y-47316525D01*
X89530247Y-47311737D01*
X89530390Y-47300000D01*
X89515264Y-47194380D01*
X89512354Y-47174057D01*
X89512353Y-47174054D01*
X89511081Y-47165171D01*
X89454706Y-47041180D01*
X89365796Y-46937996D01*
X89290767Y-46889364D01*
X89259032Y-46868794D01*
X89259030Y-46868793D01*
X89251501Y-46863913D01*
X89242904Y-46861342D01*
X89242902Y-46861341D01*
X89165973Y-46838335D01*
X89121006Y-46824887D01*
X89112030Y-46824832D01*
X89112029Y-46824832D01*
X89055036Y-46824484D01*
X88984804Y-46824055D01*
X88976172Y-46826522D01*
X88862473Y-46859017D01*
X88862471Y-46859018D01*
X88853842Y-46861484D01*
X88846252Y-46866273D01*
X88799715Y-46895636D01*
X88738650Y-46934165D01*
X88732707Y-46940894D01*
X88732706Y-46940895D01*
X88717452Y-46958167D01*
X88648487Y-47036255D01*
X88644673Y-47044378D01*
X88644672Y-47044380D01*
X88621732Y-47093242D01*
X88590601Y-47159548D01*
X88589221Y-47168412D01*
X88589220Y-47168415D01*
X88585178Y-47194380D01*
X88569646Y-47294131D01*
X88570810Y-47303033D01*
X88570810Y-47303036D01*
X88577421Y-47353591D01*
X88587306Y-47429186D01*
X88594729Y-47446054D01*
X88595477Y-47447755D01*
X88604603Y-47518162D01*
X88574216Y-47582327D01*
X88513963Y-47619877D01*
X88480147Y-47624500D01*
X88026500Y-47624500D01*
X87958379Y-47604498D01*
X87911886Y-47550842D01*
X87900500Y-47498500D01*
X87900500Y-46700326D01*
X87885966Y-46627260D01*
X87872348Y-46606878D01*
X87841293Y-46560401D01*
X87830601Y-46544399D01*
X87778442Y-46509548D01*
X87758058Y-46495928D01*
X87758057Y-46495928D01*
X87747740Y-46489034D01*
X87674674Y-46474500D01*
X85925326Y-46474500D01*
X85852260Y-46489034D01*
X85841943Y-46495928D01*
X85841942Y-46495928D01*
X85821558Y-46509548D01*
X85769399Y-46544399D01*
X85758707Y-46560401D01*
X85727653Y-46606878D01*
X85714034Y-46627260D01*
X85699500Y-46700326D01*
X85699500Y-48449674D01*
X85150500Y-48449674D01*
X85150500Y-45044131D01*
X90669646Y-45044131D01*
X90670810Y-45053033D01*
X90670810Y-45053036D01*
X90677587Y-45104860D01*
X90687306Y-45179186D01*
X90742162Y-45303856D01*
X90747939Y-45310729D01*
X90747940Y-45310730D01*
X90789969Y-45360730D01*
X90829804Y-45408119D01*
X90858582Y-45427275D01*
X90917171Y-45466275D01*
X90943187Y-45483593D01*
X91073195Y-45524210D01*
X91209377Y-45526706D01*
X91252542Y-45514938D01*
X91332124Y-45493242D01*
X91332127Y-45493241D01*
X91340786Y-45490880D01*
X91348436Y-45486183D01*
X91348438Y-45486182D01*
X91449206Y-45424311D01*
X91449209Y-45424308D01*
X91456858Y-45419612D01*
X91496976Y-45375291D01*
X91542233Y-45325291D01*
X91542234Y-45325290D01*
X91548261Y-45318631D01*
X91553456Y-45307910D01*
X91603734Y-45204135D01*
X91603734Y-45204134D01*
X91607649Y-45196054D01*
X91623299Y-45103036D01*
X91624797Y-45094131D01*
X106219646Y-45094131D01*
X106220810Y-45103033D01*
X106220810Y-45103036D01*
X106221948Y-45111737D01*
X106237306Y-45229186D01*
X106240923Y-45237406D01*
X106270162Y-45303856D01*
X106292162Y-45353856D01*
X106297939Y-45360729D01*
X106297940Y-45360730D01*
X106351385Y-45424311D01*
X106379804Y-45458119D01*
X106387281Y-45463096D01*
X106475803Y-45522021D01*
X106493187Y-45533593D01*
X106518733Y-45541574D01*
X106590214Y-45563906D01*
X106623195Y-45574210D01*
X106759377Y-45576706D01*
X106806327Y-45563906D01*
X106882124Y-45543242D01*
X106882127Y-45543241D01*
X106890786Y-45540880D01*
X106898436Y-45536183D01*
X106898438Y-45536182D01*
X106999206Y-45474311D01*
X106999209Y-45474308D01*
X107006858Y-45469612D01*
X107014345Y-45461341D01*
X107092233Y-45375291D01*
X107092234Y-45375290D01*
X107098261Y-45368631D01*
X107105420Y-45353856D01*
X107139766Y-45282966D01*
X110868257Y-45282966D01*
X110898565Y-45417446D01*
X110901645Y-45427275D01*
X110981770Y-45624603D01*
X110986413Y-45633794D01*
X111097694Y-45815388D01*
X111103777Y-45823699D01*
X111243213Y-45984667D01*
X111250580Y-45991883D01*
X111414434Y-46127916D01*
X111422881Y-46133831D01*
X111606756Y-46241279D01*
X111616042Y-46245729D01*
X111770802Y-46304825D01*
X111827305Y-46347812D01*
X111851598Y-46414523D01*
X111835968Y-46483778D01*
X111785377Y-46533588D01*
X111769465Y-46540747D01*
X111729606Y-46555452D01*
X111724193Y-46557449D01*
X111719232Y-46560401D01*
X111719231Y-46560401D01*
X111557068Y-46656878D01*
X111550371Y-46660862D01*
X111398305Y-46794220D01*
X111273089Y-46953057D01*
X111178914Y-47132053D01*
X111118937Y-47325213D01*
X111095164Y-47526069D01*
X111108392Y-47727894D01*
X111158178Y-47923928D01*
X111242856Y-48107607D01*
X111359588Y-48272780D01*
X111504466Y-48413913D01*
X111509270Y-48417123D01*
X111544847Y-48440895D01*
X111672637Y-48526282D01*
X111677940Y-48528560D01*
X111677943Y-48528562D01*
X111766291Y-48566519D01*
X111858470Y-48606122D01*
X112055740Y-48650760D01*
X112061509Y-48650987D01*
X112061512Y-48650987D01*
X112137683Y-48653979D01*
X112257842Y-48658700D01*
X112344132Y-48646189D01*
X112452286Y-48630508D01*
X112452291Y-48630507D01*
X112458007Y-48629678D01*
X112463479Y-48627820D01*
X112463481Y-48627820D01*
X112644067Y-48566519D01*
X112644069Y-48566518D01*
X112649531Y-48564664D01*
X112826001Y-48465837D01*
X112888433Y-48413913D01*
X112977073Y-48340191D01*
X112981505Y-48336505D01*
X113110837Y-48181001D01*
X113209664Y-48004531D01*
X113274678Y-47813007D01*
X113275507Y-47807291D01*
X113275508Y-47807286D01*
X113297134Y-47658128D01*
X113303700Y-47612842D01*
X113305215Y-47555000D01*
X113286708Y-47353591D01*
X113276788Y-47318415D01*
X113241806Y-47194380D01*
X113231807Y-47158926D01*
X113142351Y-46977527D01*
X113124079Y-46953057D01*
X113024788Y-46820091D01*
X113024787Y-46820090D01*
X113021335Y-46815467D01*
X112998350Y-46794220D01*
X112877053Y-46682094D01*
X112877051Y-46682092D01*
X112872812Y-46678174D01*
X112867929Y-46675093D01*
X112706637Y-46573325D01*
X112701757Y-46570246D01*
X112625453Y-46539804D01*
X112569594Y-46495983D01*
X112546293Y-46428919D01*
X112562949Y-46359904D01*
X112614273Y-46310850D01*
X112635935Y-46302089D01*
X112692244Y-46285195D01*
X112701842Y-46281433D01*
X112893095Y-46187739D01*
X112901945Y-46182464D01*
X113075328Y-46058792D01*
X113083200Y-46052139D01*
X113234052Y-45901812D01*
X113240730Y-45893965D01*
X113365003Y-45721020D01*
X113370313Y-45712183D01*
X113464670Y-45521267D01*
X113468469Y-45511672D01*
X113530377Y-45307910D01*
X113532555Y-45297837D01*
X113533986Y-45286962D01*
X113531775Y-45272778D01*
X113518617Y-45269000D01*
X110883225Y-45269000D01*
X110869694Y-45272973D01*
X110868257Y-45282966D01*
X107139766Y-45282966D01*
X107153734Y-45254135D01*
X107153734Y-45254134D01*
X107157649Y-45246054D01*
X107180247Y-45111737D01*
X107180390Y-45100000D01*
X107173664Y-45053036D01*
X107162354Y-44974057D01*
X107162353Y-44974054D01*
X107161081Y-44965171D01*
X107104706Y-44841180D01*
X107025435Y-44749183D01*
X110864389Y-44749183D01*
X110865912Y-44757607D01*
X110878292Y-44761000D01*
X113518344Y-44761000D01*
X113531875Y-44757027D01*
X113533180Y-44747947D01*
X113491214Y-44580875D01*
X113487894Y-44571124D01*
X113402972Y-44375814D01*
X113398105Y-44366739D01*
X113282426Y-44187926D01*
X113276136Y-44179757D01*
X113132806Y-44022240D01*
X113125273Y-44015215D01*
X112958139Y-43883222D01*
X112949552Y-43877517D01*
X112830521Y-43811808D01*
X112780551Y-43761376D01*
X112765779Y-43691933D01*
X112790895Y-43625528D01*
X112847926Y-43583243D01*
X112891415Y-43575500D01*
X113074674Y-43575500D01*
X113147740Y-43560966D01*
X113230601Y-43505601D01*
X113285966Y-43422740D01*
X113300500Y-43349674D01*
X113300500Y-41600326D01*
X113285966Y-41527260D01*
X113230601Y-41444399D01*
X113147740Y-41389034D01*
X113074674Y-41374500D01*
X111325326Y-41374500D01*
X111252260Y-41389034D01*
X111169399Y-41444399D01*
X111114034Y-41527260D01*
X111099500Y-41600326D01*
X111099500Y-43349674D01*
X111114034Y-43422740D01*
X111169399Y-43505601D01*
X111252260Y-43560966D01*
X111325326Y-43575500D01*
X111509184Y-43575500D01*
X111577305Y-43595502D01*
X111623798Y-43649158D01*
X111633902Y-43719432D01*
X111604408Y-43784012D01*
X111567365Y-43813263D01*
X111478458Y-43859545D01*
X111469738Y-43865036D01*
X111299433Y-43992905D01*
X111291726Y-43999748D01*
X111144590Y-44153717D01*
X111138104Y-44161727D01*
X111018098Y-44337649D01*
X111013000Y-44346623D01*
X110923338Y-44539783D01*
X110919775Y-44549470D01*
X110864389Y-44749183D01*
X107025435Y-44749183D01*
X107015796Y-44737996D01*
X107002494Y-44729374D01*
X106909032Y-44668794D01*
X106909030Y-44668793D01*
X106901501Y-44663913D01*
X106892904Y-44661342D01*
X106892902Y-44661341D01*
X106815973Y-44638335D01*
X106771006Y-44624887D01*
X106762030Y-44624832D01*
X106762029Y-44624832D01*
X106705036Y-44624484D01*
X106634804Y-44624055D01*
X106626172Y-44626522D01*
X106512473Y-44659017D01*
X106512471Y-44659018D01*
X106503842Y-44661484D01*
X106388650Y-44734165D01*
X106382707Y-44740894D01*
X106382706Y-44740895D01*
X106338296Y-44791180D01*
X106298487Y-44836255D01*
X106240601Y-44959548D01*
X106239221Y-44968412D01*
X106239220Y-44968415D01*
X106223944Y-45066530D01*
X106219646Y-45094131D01*
X91624797Y-45094131D01*
X91629441Y-45066530D01*
X91629441Y-45066525D01*
X91630247Y-45061737D01*
X91630390Y-45050000D01*
X91618242Y-44965171D01*
X91612354Y-44924057D01*
X91612353Y-44924054D01*
X91611081Y-44915171D01*
X91554706Y-44791180D01*
X91465796Y-44687996D01*
X91428641Y-44663913D01*
X91359032Y-44618794D01*
X91359030Y-44618793D01*
X91351501Y-44613913D01*
X91342904Y-44611342D01*
X91342902Y-44611341D01*
X91265973Y-44588335D01*
X91221006Y-44574887D01*
X91212030Y-44574832D01*
X91212029Y-44574832D01*
X91155036Y-44574484D01*
X91084804Y-44574055D01*
X91076172Y-44576522D01*
X90962473Y-44609017D01*
X90962471Y-44609018D01*
X90953842Y-44611484D01*
X90838650Y-44684165D01*
X90832707Y-44690894D01*
X90832706Y-44690895D01*
X90760326Y-44772849D01*
X90748487Y-44786255D01*
X90690601Y-44909548D01*
X90689221Y-44918412D01*
X90689220Y-44918415D01*
X90680557Y-44974057D01*
X90669646Y-45044131D01*
X85150500Y-45044131D01*
X85150500Y-43644131D01*
X92319646Y-43644131D01*
X92320810Y-43653033D01*
X92320810Y-43653036D01*
X92327329Y-43702886D01*
X92337306Y-43779186D01*
X92392162Y-43903856D01*
X92397939Y-43910729D01*
X92397940Y-43910730D01*
X92408472Y-43923259D01*
X92479804Y-44008119D01*
X92487281Y-44013096D01*
X92546055Y-44052219D01*
X92593187Y-44083593D01*
X92723195Y-44124210D01*
X92859377Y-44126706D01*
X92902542Y-44114938D01*
X92982124Y-44093242D01*
X92982127Y-44093241D01*
X92990786Y-44090880D01*
X92998436Y-44086183D01*
X92998438Y-44086182D01*
X93053753Y-44052219D01*
X96211558Y-44052219D01*
X96212722Y-44061121D01*
X96212722Y-44061124D01*
X96216613Y-44090880D01*
X96229218Y-44187274D01*
X96284074Y-44311944D01*
X96289851Y-44318817D01*
X96289852Y-44318818D01*
X96302092Y-44333379D01*
X96371716Y-44416207D01*
X96485099Y-44491681D01*
X96615107Y-44532298D01*
X96751289Y-44534794D01*
X96794454Y-44523026D01*
X96874036Y-44501330D01*
X96874039Y-44501329D01*
X96882698Y-44498968D01*
X96890348Y-44494271D01*
X96890350Y-44494270D01*
X96991118Y-44432399D01*
X96991121Y-44432396D01*
X96998770Y-44427700D01*
X97090173Y-44326719D01*
X97097332Y-44311944D01*
X97145646Y-44212223D01*
X97145646Y-44212222D01*
X97149561Y-44204142D01*
X97162617Y-44126541D01*
X97171353Y-44074618D01*
X97171353Y-44074613D01*
X97172159Y-44069825D01*
X97172302Y-44058088D01*
X97152993Y-43923259D01*
X97147297Y-43910730D01*
X97102981Y-43813263D01*
X97096618Y-43799268D01*
X97007708Y-43696084D01*
X96935311Y-43649158D01*
X96900944Y-43626882D01*
X96900942Y-43626881D01*
X96893413Y-43622001D01*
X96884816Y-43619430D01*
X96884814Y-43619429D01*
X96804806Y-43595502D01*
X96762918Y-43582975D01*
X96753942Y-43582920D01*
X96753941Y-43582920D01*
X96696948Y-43582572D01*
X96626716Y-43582143D01*
X96618084Y-43584610D01*
X96504385Y-43617105D01*
X96504383Y-43617106D01*
X96495754Y-43619572D01*
X96380562Y-43692253D01*
X96374619Y-43698982D01*
X96374618Y-43698983D01*
X96311650Y-43770281D01*
X96290399Y-43794343D01*
X96286585Y-43802466D01*
X96286584Y-43802468D01*
X96284249Y-43807442D01*
X96232513Y-43917636D01*
X96231133Y-43926500D01*
X96231132Y-43926503D01*
X96216226Y-44022240D01*
X96211558Y-44052219D01*
X93053753Y-44052219D01*
X93099206Y-44024311D01*
X93099209Y-44024308D01*
X93106858Y-44019612D01*
X93198261Y-43918631D01*
X93205420Y-43903856D01*
X93253734Y-43804135D01*
X93253734Y-43804134D01*
X93257649Y-43796054D01*
X93273981Y-43698983D01*
X93279441Y-43666530D01*
X93279441Y-43666525D01*
X93280247Y-43661737D01*
X93280390Y-43650000D01*
X93271160Y-43585548D01*
X93262354Y-43524057D01*
X93262353Y-43524054D01*
X93261081Y-43515171D01*
X93204706Y-43391180D01*
X93115796Y-43287996D01*
X93102494Y-43279374D01*
X93009032Y-43218794D01*
X93009030Y-43218793D01*
X93001501Y-43213913D01*
X92992904Y-43211342D01*
X92992902Y-43211341D01*
X92900117Y-43183593D01*
X92871006Y-43174887D01*
X92862030Y-43174832D01*
X92862029Y-43174832D01*
X92805036Y-43174484D01*
X92734804Y-43174055D01*
X92726172Y-43176522D01*
X92612473Y-43209017D01*
X92612471Y-43209018D01*
X92603842Y-43211484D01*
X92488650Y-43284165D01*
X92398487Y-43386255D01*
X92394673Y-43394378D01*
X92394672Y-43394380D01*
X92381357Y-43422740D01*
X92340601Y-43509548D01*
X92339221Y-43518412D01*
X92339220Y-43518415D01*
X92322332Y-43626882D01*
X92319646Y-43644131D01*
X85150500Y-43644131D01*
X85150500Y-42445877D01*
X86623953Y-42445877D01*
X86628863Y-42452435D01*
X86734004Y-42511198D01*
X86745242Y-42516107D01*
X86930852Y-42576415D01*
X86942826Y-42579048D01*
X87136624Y-42602157D01*
X87148873Y-42602414D01*
X87343467Y-42587441D01*
X87355547Y-42585310D01*
X87543514Y-42532828D01*
X87554947Y-42528394D01*
X87697726Y-42456271D01*
X87708010Y-42446626D01*
X87705772Y-42439982D01*
X87177812Y-41912022D01*
X87163868Y-41904408D01*
X87162035Y-41904539D01*
X87155420Y-41908790D01*
X86630713Y-42433497D01*
X86623953Y-42445877D01*
X85150500Y-42445877D01*
X85150500Y-41531301D01*
X86102501Y-41531301D01*
X86118831Y-41725774D01*
X86121044Y-41737833D01*
X86174839Y-41925438D01*
X86179355Y-41936843D01*
X86249012Y-42072381D01*
X86258733Y-42082602D01*
X86265532Y-42080258D01*
X86792978Y-41552812D01*
X86800592Y-41538868D01*
X86800461Y-41537035D01*
X86796210Y-41530420D01*
X86271302Y-41005512D01*
X86258922Y-40998752D01*
X86252534Y-41003534D01*
X86190816Y-41115798D01*
X86185988Y-41127062D01*
X86126975Y-41313095D01*
X86124427Y-41325084D01*
X86102672Y-41519032D01*
X86102501Y-41531301D01*
X85150500Y-41531301D01*
X85150500Y-38991301D01*
X86102501Y-38991301D01*
X86118831Y-39185774D01*
X86121042Y-39197827D01*
X86174839Y-39385438D01*
X86179355Y-39396843D01*
X86249012Y-39532381D01*
X86258733Y-39542602D01*
X86265532Y-39540258D01*
X86792978Y-39012812D01*
X86800592Y-38998868D01*
X86800461Y-38997035D01*
X86796210Y-38990420D01*
X86259885Y-38454095D01*
X86259172Y-38452789D01*
X86256859Y-38455800D01*
X86256365Y-38456566D01*
X86190816Y-38575798D01*
X86185988Y-38587062D01*
X86126975Y-38773095D01*
X86124427Y-38785084D01*
X86102672Y-38979032D01*
X86102501Y-38991301D01*
X85150500Y-38991301D01*
X85150500Y-38366132D01*
X86894408Y-38366132D01*
X86894539Y-38367965D01*
X86898790Y-38374580D01*
X87152188Y-38627978D01*
X87166132Y-38635592D01*
X87167965Y-38635461D01*
X87174580Y-38631210D01*
X87427978Y-38377812D01*
X87435592Y-38363868D01*
X87435461Y-38362035D01*
X87431210Y-38355420D01*
X87177812Y-38102022D01*
X87163868Y-38094408D01*
X87162035Y-38094539D01*
X87155420Y-38098790D01*
X86902022Y-38352188D01*
X86894408Y-38366132D01*
X85150500Y-38366132D01*
X85150500Y-37721301D01*
X86102501Y-37721301D01*
X86118831Y-37915774D01*
X86121044Y-37927833D01*
X86174839Y-38115438D01*
X86179355Y-38126843D01*
X86249012Y-38262382D01*
X86260904Y-38274886D01*
X87075905Y-37459885D01*
X87138217Y-37425859D01*
X87209032Y-37430924D01*
X87254095Y-37459885D01*
X87610283Y-37816073D01*
X87644309Y-37878385D01*
X87645806Y-37887908D01*
X87646351Y-37890474D01*
X87647039Y-37897486D01*
X87703726Y-38067896D01*
X87707373Y-38073918D01*
X87739426Y-38126843D01*
X87796759Y-38221512D01*
X87850317Y-38276972D01*
X87883249Y-38339868D01*
X87876950Y-38410584D01*
X87847838Y-38454522D01*
X87810732Y-38490859D01*
X87806913Y-38496784D01*
X87806912Y-38496786D01*
X87755992Y-38575798D01*
X87713446Y-38641817D01*
X87711037Y-38648437D01*
X87711035Y-38648440D01*
X87707882Y-38657103D01*
X87652022Y-38810578D01*
X87651139Y-38817568D01*
X87651137Y-38817576D01*
X87648519Y-38838300D01*
X87620137Y-38903376D01*
X87612608Y-38911602D01*
X87078285Y-39445925D01*
X87015973Y-39479951D01*
X87002358Y-39482140D01*
X86999019Y-39482491D01*
X86999018Y-39482491D01*
X86992017Y-39483227D01*
X86919179Y-39508023D01*
X86828677Y-39538832D01*
X86828674Y-39538833D01*
X86822007Y-39541103D01*
X86669045Y-39635206D01*
X86664014Y-39640132D01*
X86664011Y-39640135D01*
X86617098Y-39686076D01*
X86540732Y-39760859D01*
X86536913Y-39766784D01*
X86536912Y-39766786D01*
X86461129Y-39884378D01*
X86443446Y-39911817D01*
X86441037Y-39918437D01*
X86441035Y-39918440D01*
X86437343Y-39928584D01*
X86382022Y-40080578D01*
X86359514Y-40258753D01*
X86360201Y-40265760D01*
X86360201Y-40265763D01*
X86362006Y-40284171D01*
X86377039Y-40437486D01*
X86379262Y-40444168D01*
X86379262Y-40444169D01*
X86428066Y-40590880D01*
X86433726Y-40607896D01*
X86437373Y-40613918D01*
X86520266Y-40750790D01*
X86526759Y-40761512D01*
X86651514Y-40890699D01*
X86801789Y-40989036D01*
X86808393Y-40991492D01*
X86963514Y-41049181D01*
X86963516Y-41049182D01*
X86970116Y-41051636D01*
X86977101Y-41052568D01*
X87003692Y-41056116D01*
X87068570Y-41084951D01*
X87076124Y-41091914D01*
X87610283Y-41626073D01*
X87644309Y-41688385D01*
X87645806Y-41697908D01*
X87646351Y-41700474D01*
X87647039Y-41707486D01*
X87703726Y-41877896D01*
X87707373Y-41883918D01*
X87756582Y-41965171D01*
X87796759Y-42031512D01*
X87921514Y-42160699D01*
X88071789Y-42259036D01*
X88240116Y-42321636D01*
X88247097Y-42322567D01*
X88247099Y-42322568D01*
X88411149Y-42344457D01*
X88411153Y-42344457D01*
X88418130Y-42345388D01*
X88425142Y-42344750D01*
X88425146Y-42344750D01*
X88589960Y-42329751D01*
X88589961Y-42329751D01*
X88596981Y-42329112D01*
X88628736Y-42318794D01*
X88708667Y-42292823D01*
X88779634Y-42290795D01*
X88840432Y-42327458D01*
X88871758Y-42391170D01*
X88863665Y-42461704D01*
X88853712Y-42480339D01*
X88848487Y-42486255D01*
X88790601Y-42609548D01*
X88769646Y-42744131D01*
X88770810Y-42753033D01*
X88770810Y-42753036D01*
X88771948Y-42761737D01*
X88787306Y-42879186D01*
X88842162Y-43003856D01*
X88847939Y-43010729D01*
X88847940Y-43010730D01*
X88860180Y-43025291D01*
X88929804Y-43108119D01*
X88937281Y-43113096D01*
X89033974Y-43177460D01*
X89043187Y-43183593D01*
X89074072Y-43193242D01*
X89132004Y-43211341D01*
X89173195Y-43224210D01*
X89309377Y-43226706D01*
X89352542Y-43214938D01*
X89432124Y-43193242D01*
X89432127Y-43193241D01*
X89440786Y-43190880D01*
X89448436Y-43186183D01*
X89448438Y-43186182D01*
X89549206Y-43124311D01*
X89549209Y-43124308D01*
X89556858Y-43119612D01*
X89648261Y-43018631D01*
X89655420Y-43003856D01*
X89703734Y-42904135D01*
X89703734Y-42904134D01*
X89707649Y-42896054D01*
X89730247Y-42761737D01*
X89730390Y-42750000D01*
X89711081Y-42615171D01*
X89654706Y-42491180D01*
X89565796Y-42387996D01*
X89500061Y-42345388D01*
X89459032Y-42318794D01*
X89459030Y-42318793D01*
X89451501Y-42313913D01*
X89442904Y-42311342D01*
X89442902Y-42311341D01*
X89365973Y-42288335D01*
X89321006Y-42274887D01*
X89312030Y-42274832D01*
X89312029Y-42274832D01*
X89255036Y-42274484D01*
X89184804Y-42274055D01*
X89176174Y-42276521D01*
X89176170Y-42276522D01*
X89163036Y-42280276D01*
X89092042Y-42279764D01*
X89032594Y-42240950D01*
X89003568Y-42176158D01*
X89014179Y-42105958D01*
X89041521Y-42067880D01*
X89046997Y-42062666D01*
X89046999Y-42062664D01*
X89052099Y-42057807D01*
X89069570Y-42031512D01*
X89139191Y-41926723D01*
X89151483Y-41908222D01*
X89179534Y-41834378D01*
X89212757Y-41746919D01*
X89212758Y-41746914D01*
X89215257Y-41740336D01*
X89217304Y-41725774D01*
X89239700Y-41566416D01*
X89239700Y-41566411D01*
X89240251Y-41562493D01*
X89240565Y-41540000D01*
X89220546Y-41361528D01*
X89186739Y-41264447D01*
X93792000Y-41264447D01*
X93792301Y-41270595D01*
X93805812Y-41408393D01*
X93808195Y-41420428D01*
X93861767Y-41597866D01*
X93866441Y-41609206D01*
X93953460Y-41772867D01*
X93960249Y-41783084D01*
X94077397Y-41926723D01*
X94086041Y-41935427D01*
X94228856Y-42053574D01*
X94239027Y-42060434D01*
X94402076Y-42148594D01*
X94413381Y-42153346D01*
X94528692Y-42189040D01*
X94542795Y-42189246D01*
X94546000Y-42182491D01*
X94546000Y-40989905D01*
X94541525Y-40974666D01*
X94540135Y-40973461D01*
X94532452Y-40971790D01*
X93810115Y-40971790D01*
X93794876Y-40976265D01*
X93793671Y-40977655D01*
X93792000Y-40985338D01*
X93792000Y-41264447D01*
X89186739Y-41264447D01*
X89161485Y-41191927D01*
X89066316Y-41039625D01*
X89021544Y-40994540D01*
X88987737Y-40932110D01*
X88993048Y-40861313D01*
X89024058Y-40814510D01*
X89052099Y-40787807D01*
X89069570Y-40761512D01*
X89134599Y-40663634D01*
X89151483Y-40638222D01*
X89172235Y-40583593D01*
X89212757Y-40476919D01*
X89212758Y-40476914D01*
X89215257Y-40470336D01*
X89222969Y-40415462D01*
X89239700Y-40296416D01*
X89239700Y-40296411D01*
X89240251Y-40292493D01*
X89240565Y-40270000D01*
X89226446Y-40144131D01*
X90374646Y-40144131D01*
X90375810Y-40153033D01*
X90375810Y-40153036D01*
X90376948Y-40161737D01*
X90392306Y-40279186D01*
X90396982Y-40289812D01*
X90432053Y-40369517D01*
X90447162Y-40403856D01*
X90452939Y-40410729D01*
X90452940Y-40410730D01*
X90525607Y-40497178D01*
X90534804Y-40508119D01*
X90648187Y-40583593D01*
X90778195Y-40624210D01*
X90914377Y-40626706D01*
X90983372Y-40607896D01*
X91037124Y-40593242D01*
X91037127Y-40593241D01*
X91045786Y-40590880D01*
X91053436Y-40586183D01*
X91053438Y-40586182D01*
X91154206Y-40524311D01*
X91154209Y-40524308D01*
X91161858Y-40519612D01*
X91181189Y-40498256D01*
X91228782Y-40445675D01*
X93792000Y-40445675D01*
X93796475Y-40460914D01*
X93797865Y-40462119D01*
X93805548Y-40463790D01*
X94527885Y-40463790D01*
X94543124Y-40459315D01*
X94544329Y-40457925D01*
X94546000Y-40450242D01*
X94546000Y-39259866D01*
X94542027Y-39246335D01*
X94534232Y-39245215D01*
X94426479Y-39276928D01*
X94415111Y-39281521D01*
X94250846Y-39367397D01*
X94240585Y-39374111D01*
X94096127Y-39490258D01*
X94087368Y-39498836D01*
X93968222Y-39640829D01*
X93961292Y-39650949D01*
X93871998Y-39813375D01*
X93867166Y-39824648D01*
X93811120Y-40001328D01*
X93808570Y-40013322D01*
X93792393Y-40157551D01*
X93792000Y-40164575D01*
X93792000Y-40445675D01*
X91228782Y-40445675D01*
X91247233Y-40425291D01*
X91247234Y-40425290D01*
X91253261Y-40418631D01*
X91260420Y-40403856D01*
X91308734Y-40304135D01*
X91308734Y-40304134D01*
X91312649Y-40296054D01*
X91327460Y-40208023D01*
X91334441Y-40166530D01*
X91334441Y-40166525D01*
X91335247Y-40161737D01*
X91335390Y-40150000D01*
X91330134Y-40113301D01*
X91317354Y-40024057D01*
X91317353Y-40024054D01*
X91316081Y-40015171D01*
X91259706Y-39891180D01*
X91170796Y-39787996D01*
X91138073Y-39766786D01*
X91064032Y-39718794D01*
X91064030Y-39718793D01*
X91056501Y-39713913D01*
X91047904Y-39711342D01*
X91047902Y-39711341D01*
X90955749Y-39683782D01*
X90926006Y-39674887D01*
X90917030Y-39674832D01*
X90917029Y-39674832D01*
X90860036Y-39674484D01*
X90789804Y-39674055D01*
X90781172Y-39676522D01*
X90667473Y-39709017D01*
X90667471Y-39709018D01*
X90658842Y-39711484D01*
X90651252Y-39716273D01*
X90553415Y-39778004D01*
X90543650Y-39784165D01*
X90537707Y-39790894D01*
X90537706Y-39790895D01*
X90506372Y-39826374D01*
X90453487Y-39886255D01*
X90449673Y-39894378D01*
X90449672Y-39894380D01*
X90421865Y-39953607D01*
X90395601Y-40009548D01*
X90394221Y-40018412D01*
X90394220Y-40018415D01*
X90381747Y-40098527D01*
X90374646Y-40144131D01*
X89226446Y-40144131D01*
X89220546Y-40091528D01*
X89215019Y-40075655D01*
X89163803Y-39928584D01*
X89161485Y-39921927D01*
X89153784Y-39909602D01*
X89070049Y-39775599D01*
X89066316Y-39769625D01*
X89021544Y-39724540D01*
X88987737Y-39662110D01*
X88993048Y-39591313D01*
X89024058Y-39544510D01*
X89028523Y-39540258D01*
X89052099Y-39517807D01*
X89057260Y-39510040D01*
X89137569Y-39389164D01*
X89151483Y-39368222D01*
X89184418Y-39281521D01*
X89208630Y-39217782D01*
X94844592Y-39217782D01*
X94847012Y-39229950D01*
X94847012Y-39230669D01*
X94848131Y-39237864D01*
X94860386Y-39346654D01*
X94903215Y-39469064D01*
X94972211Y-39578874D01*
X94977210Y-39583873D01*
X94977217Y-39583882D01*
X95017097Y-39623763D01*
X95051121Y-39686076D01*
X95054000Y-39712856D01*
X95054000Y-42175714D01*
X95057973Y-42189245D01*
X95065768Y-42190365D01*
X95173521Y-42158652D01*
X95184889Y-42154059D01*
X95299520Y-42094131D01*
X100869646Y-42094131D01*
X100870810Y-42103033D01*
X100870810Y-42103036D01*
X100871948Y-42111737D01*
X100887306Y-42229186D01*
X100890923Y-42237406D01*
X100931556Y-42329751D01*
X100942162Y-42353856D01*
X100947939Y-42360729D01*
X100947940Y-42360730D01*
X101020143Y-42446626D01*
X101029804Y-42458119D01*
X101037281Y-42463096D01*
X101135377Y-42528394D01*
X101143187Y-42533593D01*
X101273195Y-42574210D01*
X101409377Y-42576706D01*
X101452542Y-42564938D01*
X101532124Y-42543242D01*
X101532127Y-42543241D01*
X101540786Y-42540880D01*
X101548436Y-42536183D01*
X101548438Y-42536182D01*
X101649206Y-42474311D01*
X101649209Y-42474308D01*
X101656858Y-42469612D01*
X101734201Y-42384165D01*
X101742233Y-42375291D01*
X101742234Y-42375290D01*
X101748261Y-42368631D01*
X101755420Y-42353856D01*
X101803734Y-42254135D01*
X101803734Y-42254134D01*
X101807649Y-42246054D01*
X101821360Y-42164557D01*
X101829441Y-42116530D01*
X101829441Y-42116525D01*
X101830247Y-42111737D01*
X101830390Y-42100000D01*
X101824724Y-42060434D01*
X101812354Y-41974057D01*
X101812353Y-41974054D01*
X101811081Y-41965171D01*
X101754706Y-41841180D01*
X101665796Y-41737996D01*
X101646940Y-41725774D01*
X101559032Y-41668794D01*
X101559030Y-41668793D01*
X101551501Y-41663913D01*
X101542904Y-41661342D01*
X101542902Y-41661341D01*
X101465973Y-41638335D01*
X101421006Y-41624887D01*
X101412030Y-41624832D01*
X101412029Y-41624832D01*
X101355036Y-41624484D01*
X101284804Y-41624055D01*
X101276172Y-41626522D01*
X101162473Y-41659017D01*
X101162471Y-41659018D01*
X101153842Y-41661484D01*
X101146252Y-41666273D01*
X101080934Y-41707486D01*
X101038650Y-41734165D01*
X100948487Y-41836255D01*
X100944673Y-41844378D01*
X100944672Y-41844380D01*
X100926109Y-41883918D01*
X100890601Y-41959548D01*
X100889221Y-41968412D01*
X100889220Y-41968415D01*
X100873033Y-42072381D01*
X100869646Y-42094131D01*
X95299520Y-42094131D01*
X95349154Y-42068183D01*
X95359415Y-42061469D01*
X95503873Y-41945322D01*
X95512632Y-41936744D01*
X95631778Y-41794751D01*
X95638708Y-41784631D01*
X95728002Y-41622205D01*
X95732834Y-41610932D01*
X95788880Y-41434252D01*
X95791430Y-41422258D01*
X95807607Y-41278029D01*
X95808000Y-41271005D01*
X95808000Y-40826854D01*
X95828002Y-40758733D01*
X95881658Y-40712240D01*
X95951932Y-40702136D01*
X95978788Y-40709883D01*
X95978861Y-40709658D01*
X95997629Y-40715757D01*
X96155991Y-40749418D01*
X96169051Y-40750790D01*
X96330949Y-40750790D01*
X96344009Y-40749418D01*
X96502371Y-40715757D01*
X96514863Y-40711697D01*
X96615826Y-40666745D01*
X96626572Y-40657611D01*
X96624975Y-40651975D01*
X96262812Y-40289812D01*
X96248868Y-40282198D01*
X96247035Y-40282329D01*
X96240420Y-40286580D01*
X95901396Y-40625604D01*
X95839084Y-40659630D01*
X95768269Y-40654565D01*
X95723206Y-40625604D01*
X95542186Y-40444584D01*
X95508160Y-40382272D01*
X95513225Y-40311457D01*
X95542186Y-40266394D01*
X96160905Y-39647675D01*
X96223217Y-39613649D01*
X96294032Y-39618714D01*
X96339095Y-39647675D01*
X96978466Y-40287046D01*
X96990846Y-40293806D01*
X96997761Y-40288630D01*
X97011876Y-40264181D01*
X97017214Y-40252192D01*
X97067245Y-40098212D01*
X97069975Y-40085371D01*
X97086898Y-39924355D01*
X97086898Y-39911225D01*
X97081833Y-39863036D01*
X97094605Y-39793197D01*
X97143107Y-39741351D01*
X97158926Y-39733456D01*
X97182601Y-39723650D01*
X97182605Y-39723648D01*
X97190233Y-39720488D01*
X97223298Y-39695116D01*
X97289517Y-39669517D01*
X97359065Y-39683782D01*
X97376699Y-39695114D01*
X97409767Y-39720488D01*
X97417396Y-39723648D01*
X97417401Y-39723651D01*
X97449167Y-39736809D01*
X97504448Y-39781357D01*
X97526868Y-39848721D01*
X97525870Y-39869664D01*
X97519534Y-39917790D01*
X97539313Y-40068026D01*
X97597302Y-40208023D01*
X97689549Y-40328241D01*
X97809767Y-40420488D01*
X97949764Y-40478477D01*
X98100000Y-40498256D01*
X98108188Y-40497178D01*
X98242048Y-40479555D01*
X98250236Y-40478477D01*
X98390233Y-40420488D01*
X98423298Y-40395116D01*
X98489517Y-40369517D01*
X98559065Y-40383782D01*
X98576699Y-40395114D01*
X98609767Y-40420488D01*
X98749764Y-40478477D01*
X98900000Y-40498256D01*
X98908188Y-40497178D01*
X99042048Y-40479555D01*
X99050236Y-40478477D01*
X99190233Y-40420488D01*
X99223298Y-40395116D01*
X99289517Y-40369517D01*
X99359065Y-40383782D01*
X99376699Y-40395114D01*
X99409767Y-40420488D01*
X99549764Y-40478477D01*
X99700000Y-40498256D01*
X99708188Y-40497178D01*
X99842048Y-40479555D01*
X99850236Y-40478477D01*
X99990233Y-40420488D01*
X100023298Y-40395116D01*
X100089517Y-40369517D01*
X100159065Y-40383782D01*
X100176699Y-40395114D01*
X100209767Y-40420488D01*
X100349764Y-40478477D01*
X100500000Y-40498256D01*
X100508188Y-40497178D01*
X100642048Y-40479555D01*
X100650236Y-40478477D01*
X100790233Y-40420488D01*
X100910451Y-40328241D01*
X101002698Y-40208023D01*
X101060687Y-40068026D01*
X101080466Y-39917790D01*
X101074130Y-39869664D01*
X101085069Y-39799515D01*
X101132197Y-39746416D01*
X101150833Y-39736809D01*
X101182599Y-39723651D01*
X101182604Y-39723648D01*
X101190233Y-39720488D01*
X101223298Y-39695116D01*
X101289517Y-39669517D01*
X101359065Y-39683782D01*
X101376699Y-39695114D01*
X101409767Y-39720488D01*
X101417395Y-39723648D01*
X101417399Y-39723650D01*
X101441074Y-39733456D01*
X101496356Y-39778004D01*
X101518777Y-39845367D01*
X101518167Y-39863036D01*
X101513102Y-39911225D01*
X101513102Y-39924355D01*
X101530025Y-40085371D01*
X101532755Y-40098212D01*
X101582786Y-40252192D01*
X101588124Y-40264181D01*
X101599665Y-40284171D01*
X101609869Y-40293901D01*
X101617890Y-40290690D01*
X102260905Y-39647675D01*
X102323217Y-39613649D01*
X102394032Y-39618714D01*
X102439095Y-39647675D01*
X103057814Y-40266394D01*
X103091840Y-40328706D01*
X103086775Y-40399521D01*
X103057814Y-40444584D01*
X102876794Y-40625604D01*
X102814482Y-40659630D01*
X102743667Y-40654565D01*
X102698604Y-40625604D01*
X102362812Y-40289812D01*
X102348868Y-40282198D01*
X102347035Y-40282329D01*
X102340420Y-40286580D01*
X101980436Y-40646564D01*
X101973676Y-40658944D01*
X101977187Y-40663634D01*
X102085137Y-40711697D01*
X102097629Y-40715757D01*
X102255991Y-40749418D01*
X102269051Y-40750790D01*
X102430949Y-40750790D01*
X102444009Y-40749418D01*
X102602371Y-40715757D01*
X102621139Y-40709658D01*
X102621523Y-40710839D01*
X102685122Y-40702313D01*
X102749418Y-40732422D01*
X102787230Y-40792512D01*
X102792000Y-40826854D01*
X102792000Y-41264447D01*
X102792301Y-41270595D01*
X102805812Y-41408393D01*
X102808195Y-41420428D01*
X102861767Y-41597866D01*
X102866441Y-41609206D01*
X102953460Y-41772867D01*
X102960249Y-41783084D01*
X103077397Y-41926723D01*
X103086041Y-41935427D01*
X103228856Y-42053574D01*
X103239027Y-42060434D01*
X103402076Y-42148594D01*
X103413381Y-42153346D01*
X103528692Y-42189040D01*
X103542795Y-42189246D01*
X103546000Y-42182491D01*
X103546000Y-42175714D01*
X104054000Y-42175714D01*
X104057973Y-42189245D01*
X104065768Y-42190365D01*
X104173521Y-42158652D01*
X104184889Y-42154059D01*
X104349154Y-42068183D01*
X104359415Y-42061469D01*
X104503873Y-41945322D01*
X104512632Y-41936744D01*
X104631778Y-41794751D01*
X104638708Y-41784631D01*
X104728002Y-41622205D01*
X104732834Y-41610932D01*
X104788880Y-41434252D01*
X104791430Y-41422258D01*
X104807607Y-41278029D01*
X104808000Y-41271005D01*
X104808000Y-40989905D01*
X104803525Y-40974666D01*
X104802135Y-40973461D01*
X104794452Y-40971790D01*
X104072115Y-40971790D01*
X104056876Y-40976265D01*
X104055671Y-40977655D01*
X104054000Y-40985338D01*
X104054000Y-42175714D01*
X103546000Y-42175714D01*
X103546000Y-40445675D01*
X104054000Y-40445675D01*
X104058475Y-40460914D01*
X104059865Y-40462119D01*
X104067548Y-40463790D01*
X104789885Y-40463790D01*
X104805124Y-40459315D01*
X104806329Y-40457925D01*
X104808000Y-40450242D01*
X104808000Y-40171133D01*
X104807699Y-40164985D01*
X104794188Y-40027187D01*
X104791805Y-40015152D01*
X104738233Y-39837714D01*
X104733559Y-39826374D01*
X104646540Y-39662713D01*
X104639751Y-39652496D01*
X104522603Y-39508857D01*
X104513959Y-39500153D01*
X104371144Y-39382006D01*
X104360973Y-39375146D01*
X104197924Y-39286986D01*
X104186619Y-39282234D01*
X104071308Y-39246540D01*
X104057205Y-39246334D01*
X104054000Y-39253089D01*
X104054000Y-40445675D01*
X103546000Y-40445675D01*
X103546000Y-39499354D01*
X103555591Y-39451136D01*
X103586424Y-39376699D01*
X103589584Y-39369070D01*
X103609500Y-39217790D01*
X103593460Y-39095949D01*
X103590662Y-39074698D01*
X103589584Y-39066510D01*
X103531192Y-38925540D01*
X103438304Y-38804486D01*
X103317250Y-38711598D01*
X103176280Y-38653206D01*
X103121172Y-38645951D01*
X103067067Y-38638828D01*
X103067066Y-38638828D01*
X103062980Y-38638290D01*
X102987020Y-38638290D01*
X102982934Y-38638828D01*
X102982933Y-38638828D01*
X102928828Y-38645951D01*
X102873720Y-38653206D01*
X102732750Y-38711598D01*
X102611696Y-38804486D01*
X102518808Y-38925540D01*
X102486324Y-39003963D01*
X102485063Y-39007008D01*
X102440515Y-39062289D01*
X102368654Y-39084790D01*
X102352017Y-39084790D01*
X102283896Y-39064788D01*
X102235608Y-39007009D01*
X102234347Y-39003963D01*
X102202698Y-38927557D01*
X102110451Y-38807339D01*
X101990233Y-38715092D01*
X101850236Y-38657103D01*
X101820636Y-38653206D01*
X101708188Y-38638402D01*
X101700000Y-38637324D01*
X101691812Y-38638402D01*
X101579365Y-38653206D01*
X101549764Y-38657103D01*
X101409767Y-38715092D01*
X101376702Y-38740464D01*
X101310483Y-38766063D01*
X101240935Y-38751798D01*
X101223301Y-38740466D01*
X101190233Y-38715092D01*
X101050236Y-38657103D01*
X101020636Y-38653206D01*
X100908188Y-38638402D01*
X100900000Y-38637324D01*
X100891812Y-38638402D01*
X100779365Y-38653206D01*
X100749764Y-38657103D01*
X100609767Y-38715092D01*
X100576702Y-38740464D01*
X100510483Y-38766063D01*
X100440935Y-38751798D01*
X100423301Y-38740466D01*
X100390233Y-38715092D01*
X100250236Y-38657103D01*
X100220636Y-38653206D01*
X100108188Y-38638402D01*
X100100000Y-38637324D01*
X100091812Y-38638402D01*
X99979365Y-38653206D01*
X99949764Y-38657103D01*
X99809767Y-38715092D01*
X99689549Y-38807339D01*
X99597302Y-38927557D01*
X99539313Y-39067554D01*
X99519534Y-39217790D01*
X99520612Y-39225978D01*
X99525870Y-39265916D01*
X99514931Y-39336065D01*
X99467803Y-39389164D01*
X99449167Y-39398771D01*
X99417401Y-39411929D01*
X99417396Y-39411932D01*
X99409767Y-39415092D01*
X99376702Y-39440464D01*
X99310483Y-39466063D01*
X99240935Y-39451798D01*
X99223301Y-39440466D01*
X99190233Y-39415092D01*
X99182604Y-39411932D01*
X99182599Y-39411929D01*
X99150833Y-39398771D01*
X99095552Y-39354223D01*
X99073132Y-39286859D01*
X99074130Y-39265916D01*
X99079388Y-39225978D01*
X99080466Y-39217790D01*
X99060687Y-39067554D01*
X99002698Y-38927557D01*
X98910451Y-38807339D01*
X98790233Y-38715092D01*
X98650236Y-38657103D01*
X98620636Y-38653206D01*
X98508188Y-38638402D01*
X98500000Y-38637324D01*
X98491812Y-38638402D01*
X98379365Y-38653206D01*
X98349764Y-38657103D01*
X98209767Y-38715092D01*
X98176702Y-38740464D01*
X98110483Y-38766063D01*
X98040935Y-38751798D01*
X98023301Y-38740466D01*
X97990233Y-38715092D01*
X97850236Y-38657103D01*
X97820636Y-38653206D01*
X97708188Y-38638402D01*
X97700000Y-38637324D01*
X97691812Y-38638402D01*
X97579365Y-38653206D01*
X97549764Y-38657103D01*
X97409767Y-38715092D01*
X97376702Y-38740464D01*
X97310483Y-38766063D01*
X97240935Y-38751798D01*
X97223301Y-38740466D01*
X97190233Y-38715092D01*
X97050236Y-38657103D01*
X97020636Y-38653206D01*
X96908188Y-38638402D01*
X96900000Y-38637324D01*
X96891812Y-38638402D01*
X96779365Y-38653206D01*
X96749764Y-38657103D01*
X96609767Y-38715092D01*
X96489549Y-38807339D01*
X96451671Y-38856703D01*
X96411372Y-38909221D01*
X96354034Y-38951088D01*
X96283163Y-38955310D01*
X96221261Y-38920546D01*
X96204724Y-38899556D01*
X96177793Y-38856697D01*
X96086089Y-38764996D01*
X96080101Y-38761234D01*
X96080099Y-38761232D01*
X95982268Y-38699762D01*
X95982265Y-38699761D01*
X95976280Y-38696000D01*
X95969611Y-38693666D01*
X95969608Y-38693665D01*
X95860542Y-38655502D01*
X95860540Y-38655502D01*
X95853871Y-38653168D01*
X95775928Y-38644386D01*
X95744953Y-38640896D01*
X95737926Y-38639803D01*
X95737170Y-38639803D01*
X95725000Y-38637382D01*
X95712829Y-38639803D01*
X95712828Y-38639803D01*
X95712496Y-38639869D01*
X95687915Y-38642290D01*
X95651621Y-38642290D01*
X95635175Y-38641212D01*
X95617067Y-38638828D01*
X95617066Y-38638828D01*
X95612980Y-38638290D01*
X95537020Y-38638290D01*
X95532934Y-38638828D01*
X95532933Y-38638828D01*
X95514825Y-38641212D01*
X95498379Y-38642290D01*
X95462085Y-38642290D01*
X95437504Y-38639869D01*
X95437172Y-38639803D01*
X95437171Y-38639803D01*
X95425000Y-38637382D01*
X95412829Y-38639803D01*
X95412109Y-38639803D01*
X95404933Y-38640919D01*
X95303158Y-38652386D01*
X95303156Y-38652386D01*
X95296131Y-38653178D01*
X95289459Y-38655512D01*
X95289457Y-38655513D01*
X95180399Y-38693673D01*
X95180396Y-38693674D01*
X95173724Y-38696009D01*
X95167735Y-38699772D01*
X95084935Y-38751798D01*
X95063917Y-38765004D01*
X94972215Y-38856703D01*
X94968450Y-38862695D01*
X94968449Y-38862696D01*
X94942887Y-38903376D01*
X94903217Y-38966508D01*
X94900880Y-38973185D01*
X94900880Y-38973186D01*
X94865357Y-39074698D01*
X94860382Y-39088914D01*
X94851527Y-39167486D01*
X94848107Y-39197827D01*
X94847013Y-39204865D01*
X94847013Y-39205611D01*
X94846680Y-39207285D01*
X94844592Y-39217782D01*
X89208630Y-39217782D01*
X89212757Y-39206919D01*
X89212758Y-39206914D01*
X89215257Y-39200336D01*
X89230916Y-39088914D01*
X89239700Y-39026416D01*
X89239700Y-39026411D01*
X89240251Y-39022493D01*
X89240565Y-39000000D01*
X89220546Y-38821528D01*
X89214612Y-38804486D01*
X89192316Y-38740463D01*
X89161485Y-38651927D01*
X89154607Y-38640919D01*
X89070049Y-38505599D01*
X89066316Y-38499625D01*
X89021544Y-38454540D01*
X88987737Y-38392110D01*
X88993048Y-38321313D01*
X89024058Y-38274510D01*
X89052099Y-38247807D01*
X89069570Y-38221512D01*
X89132467Y-38126843D01*
X89151483Y-38098222D01*
X89166168Y-38059564D01*
X89212757Y-37936919D01*
X89212758Y-37936914D01*
X89215257Y-37930336D01*
X89217304Y-37915774D01*
X89239700Y-37756416D01*
X89239700Y-37756411D01*
X89240251Y-37752493D01*
X89240565Y-37730000D01*
X89220546Y-37551528D01*
X89161485Y-37381927D01*
X89149070Y-37362058D01*
X89096965Y-37278674D01*
X107483000Y-37278674D01*
X107497534Y-37351740D01*
X107552899Y-37434601D01*
X107635760Y-37489966D01*
X107708826Y-37504500D01*
X109066174Y-37504500D01*
X109139240Y-37489966D01*
X109222101Y-37434601D01*
X109277466Y-37351740D01*
X109292000Y-37278674D01*
X109292000Y-35921326D01*
X109277466Y-35848260D01*
X109270070Y-35837190D01*
X109228993Y-35775714D01*
X109222101Y-35765399D01*
X109167374Y-35728832D01*
X109149558Y-35716928D01*
X109149557Y-35716928D01*
X109139240Y-35710034D01*
X109110293Y-35704276D01*
X109047383Y-35671369D01*
X109012250Y-35609675D01*
X109012108Y-35599767D01*
X109002115Y-35573825D01*
X108400312Y-34972022D01*
X108386368Y-34964408D01*
X108384535Y-34964539D01*
X108377920Y-34968790D01*
X107777828Y-35568882D01*
X107764532Y-35593231D01*
X107754278Y-35640371D01*
X107704076Y-35690574D01*
X107668271Y-35703567D01*
X107635760Y-35710034D01*
X107625443Y-35716928D01*
X107625442Y-35716928D01*
X107607626Y-35728832D01*
X107552899Y-35765399D01*
X107546007Y-35775714D01*
X107504931Y-35837190D01*
X107497534Y-35848260D01*
X107483000Y-35921326D01*
X107483000Y-37278674D01*
X89096965Y-37278674D01*
X89070049Y-37235599D01*
X89066316Y-37229625D01*
X89021544Y-37184540D01*
X88987737Y-37122110D01*
X88993048Y-37051313D01*
X89024058Y-37004510D01*
X89037076Y-36992113D01*
X89052099Y-36977807D01*
X89151483Y-36828222D01*
X89166168Y-36789564D01*
X89212757Y-36666919D01*
X89212758Y-36666914D01*
X89215257Y-36660336D01*
X89225277Y-36589040D01*
X89239700Y-36486416D01*
X89239700Y-36486411D01*
X89240251Y-36482493D01*
X89240565Y-36460000D01*
X89220546Y-36281528D01*
X89161485Y-36111927D01*
X89066316Y-35959625D01*
X88967812Y-35860431D01*
X88944733Y-35837190D01*
X88944729Y-35837187D01*
X88939770Y-35832193D01*
X88921232Y-35820428D01*
X88850773Y-35775714D01*
X88788136Y-35735963D01*
X88750347Y-35722507D01*
X88625586Y-35678081D01*
X88625581Y-35678080D01*
X88618951Y-35675719D01*
X88611965Y-35674886D01*
X88611961Y-35674885D01*
X88524422Y-35664447D01*
X93792000Y-35664447D01*
X93792301Y-35670595D01*
X93805812Y-35808393D01*
X93808195Y-35820428D01*
X93861767Y-35997866D01*
X93866441Y-36009206D01*
X93953460Y-36172867D01*
X93960249Y-36183084D01*
X94077397Y-36326723D01*
X94086041Y-36335427D01*
X94228856Y-36453574D01*
X94239027Y-36460434D01*
X94402076Y-36548594D01*
X94413381Y-36553346D01*
X94528692Y-36589040D01*
X94542795Y-36589246D01*
X94546000Y-36582491D01*
X94546000Y-36575714D01*
X95054000Y-36575714D01*
X95057973Y-36589245D01*
X95065768Y-36590365D01*
X95173521Y-36558652D01*
X95184889Y-36554059D01*
X95349154Y-36468183D01*
X95359415Y-36461469D01*
X95503873Y-36345322D01*
X95512632Y-36336744D01*
X95631778Y-36194751D01*
X95638708Y-36184631D01*
X95728002Y-36022205D01*
X95732834Y-36010932D01*
X95788880Y-35834252D01*
X95791430Y-35822258D01*
X95807607Y-35678029D01*
X95808000Y-35671005D01*
X95808000Y-35664447D01*
X102792000Y-35664447D01*
X102792301Y-35670595D01*
X102805812Y-35808393D01*
X102808195Y-35820428D01*
X102861767Y-35997866D01*
X102866441Y-36009206D01*
X102953460Y-36172867D01*
X102960249Y-36183084D01*
X103077397Y-36326723D01*
X103086041Y-36335427D01*
X103228856Y-36453574D01*
X103239027Y-36460434D01*
X103402076Y-36548594D01*
X103413381Y-36553346D01*
X103528692Y-36589040D01*
X103542795Y-36589246D01*
X103546000Y-36582491D01*
X103546000Y-36575714D01*
X104054000Y-36575714D01*
X104057973Y-36589245D01*
X104065768Y-36590365D01*
X104173521Y-36558652D01*
X104184889Y-36554059D01*
X104349154Y-36468183D01*
X104359415Y-36461469D01*
X104503873Y-36345322D01*
X104512632Y-36336744D01*
X104631778Y-36194751D01*
X104638708Y-36184631D01*
X104728002Y-36022205D01*
X104732834Y-36010932D01*
X104788880Y-35834252D01*
X104791430Y-35822258D01*
X104807607Y-35678029D01*
X104808000Y-35671005D01*
X104808000Y-35389905D01*
X104803525Y-35374666D01*
X104802135Y-35373461D01*
X104794452Y-35371790D01*
X104072115Y-35371790D01*
X104056876Y-35376265D01*
X104055671Y-35377655D01*
X104054000Y-35385338D01*
X104054000Y-36575714D01*
X103546000Y-36575714D01*
X103546000Y-35389905D01*
X103541525Y-35374666D01*
X103540135Y-35373461D01*
X103532452Y-35371790D01*
X102810115Y-35371790D01*
X102794876Y-35376265D01*
X102793671Y-35377655D01*
X102792000Y-35385338D01*
X102792000Y-35664447D01*
X95808000Y-35664447D01*
X95808000Y-35389905D01*
X95803525Y-35374666D01*
X95802135Y-35373461D01*
X95794452Y-35371790D01*
X95072115Y-35371790D01*
X95056876Y-35376265D01*
X95055671Y-35377655D01*
X95054000Y-35385338D01*
X95054000Y-36575714D01*
X94546000Y-36575714D01*
X94546000Y-35389905D01*
X94541525Y-35374666D01*
X94540135Y-35373461D01*
X94532452Y-35371790D01*
X93810115Y-35371790D01*
X93794876Y-35376265D01*
X93793671Y-35377655D01*
X93792000Y-35385338D01*
X93792000Y-35664447D01*
X88524422Y-35664447D01*
X88482933Y-35659500D01*
X88440624Y-35654455D01*
X88433621Y-35655191D01*
X88433620Y-35655191D01*
X88269025Y-35672490D01*
X88269021Y-35672491D01*
X88262017Y-35673227D01*
X88255346Y-35675498D01*
X88098677Y-35728832D01*
X88098674Y-35728833D01*
X88092007Y-35731103D01*
X88086008Y-35734794D01*
X88086005Y-35734795D01*
X88054099Y-35754424D01*
X87985598Y-35773083D01*
X87917884Y-35751745D01*
X87901568Y-35738329D01*
X87895601Y-35729399D01*
X87812740Y-35674034D01*
X87739674Y-35659500D01*
X86590326Y-35659500D01*
X86517260Y-35674034D01*
X86434399Y-35729399D01*
X86379034Y-35812260D01*
X86364500Y-35885326D01*
X86364500Y-36992113D01*
X86344498Y-37060234D01*
X86335021Y-37073105D01*
X86291764Y-37124656D01*
X86284840Y-37134767D01*
X86190816Y-37305798D01*
X86185988Y-37317062D01*
X86126975Y-37503095D01*
X86124427Y-37515084D01*
X86102672Y-37709032D01*
X86102501Y-37721301D01*
X85150500Y-37721301D01*
X85150500Y-34845675D01*
X93792000Y-34845675D01*
X93796475Y-34860914D01*
X93797865Y-34862119D01*
X93805548Y-34863790D01*
X94527885Y-34863790D01*
X94543124Y-34859315D01*
X94544329Y-34857925D01*
X94546000Y-34850242D01*
X94546000Y-34845675D01*
X95054000Y-34845675D01*
X95058475Y-34860914D01*
X95059865Y-34862119D01*
X95067548Y-34863790D01*
X95789885Y-34863790D01*
X95805124Y-34859315D01*
X95806329Y-34857925D01*
X95808000Y-34850242D01*
X95808000Y-34845675D01*
X102792000Y-34845675D01*
X102796475Y-34860914D01*
X102797865Y-34862119D01*
X102805548Y-34863790D01*
X103527885Y-34863790D01*
X103543124Y-34859315D01*
X103544329Y-34857925D01*
X103546000Y-34850242D01*
X103546000Y-34845675D01*
X104054000Y-34845675D01*
X104058475Y-34860914D01*
X104059865Y-34862119D01*
X104067548Y-34863790D01*
X104789885Y-34863790D01*
X104805124Y-34859315D01*
X104806329Y-34857925D01*
X104808000Y-34850242D01*
X104808000Y-34575218D01*
X107221300Y-34575218D01*
X107234511Y-34776789D01*
X107236311Y-34788156D01*
X107286037Y-34983950D01*
X107289875Y-34994788D01*
X107374450Y-35178246D01*
X107380198Y-35188202D01*
X107394542Y-35208499D01*
X107405130Y-35216887D01*
X107418431Y-35209859D01*
X108015478Y-34612812D01*
X108021856Y-34601132D01*
X108751908Y-34601132D01*
X108752039Y-34602965D01*
X108756290Y-34609580D01*
X109357410Y-35210700D01*
X109369790Y-35217460D01*
X109376370Y-35212534D01*
X109450767Y-35079688D01*
X109455443Y-35069185D01*
X109520378Y-34877894D01*
X109523063Y-34866712D01*
X109552346Y-34664749D01*
X109552976Y-34657366D01*
X109554381Y-34603704D01*
X109554138Y-34596305D01*
X109535466Y-34393092D01*
X109533368Y-34381771D01*
X109478538Y-34187357D01*
X109474413Y-34176610D01*
X109385067Y-33995438D01*
X109381163Y-33989066D01*
X109370953Y-33981404D01*
X109358533Y-33988177D01*
X108759522Y-34587188D01*
X108751908Y-34601132D01*
X108021856Y-34601132D01*
X108023092Y-34598868D01*
X108022961Y-34597035D01*
X108018710Y-34590420D01*
X107416058Y-33987768D01*
X107403678Y-33981008D01*
X107397712Y-33985474D01*
X107312046Y-34148298D01*
X107307638Y-34158941D01*
X107247735Y-34351857D01*
X107245345Y-34363101D01*
X107221601Y-34563717D01*
X107221300Y-34575218D01*
X104808000Y-34575218D01*
X104808000Y-34571133D01*
X104807699Y-34564985D01*
X104794188Y-34427187D01*
X104791805Y-34415152D01*
X104738233Y-34237714D01*
X104733559Y-34226374D01*
X104646540Y-34062713D01*
X104639751Y-34052496D01*
X104522603Y-33908857D01*
X104513959Y-33900153D01*
X104371144Y-33782006D01*
X104360973Y-33775146D01*
X104197924Y-33686986D01*
X104186619Y-33682234D01*
X104071308Y-33646540D01*
X104057205Y-33646334D01*
X104054000Y-33653089D01*
X104054000Y-34845675D01*
X103546000Y-34845675D01*
X103546000Y-33659866D01*
X103542027Y-33646335D01*
X103534232Y-33645215D01*
X103426479Y-33676928D01*
X103415111Y-33681521D01*
X103250846Y-33767397D01*
X103240585Y-33774111D01*
X103096127Y-33890258D01*
X103087368Y-33898836D01*
X102968222Y-34040829D01*
X102961292Y-34050949D01*
X102871998Y-34213375D01*
X102867166Y-34224648D01*
X102811120Y-34401328D01*
X102808570Y-34413322D01*
X102792393Y-34557551D01*
X102792000Y-34564575D01*
X102792000Y-34845675D01*
X95808000Y-34845675D01*
X95808000Y-34571133D01*
X95807699Y-34564985D01*
X95794188Y-34427187D01*
X95791805Y-34415152D01*
X95738233Y-34237714D01*
X95733559Y-34226374D01*
X95646540Y-34062713D01*
X95639751Y-34052496D01*
X95522603Y-33908857D01*
X95513959Y-33900153D01*
X95371144Y-33782006D01*
X95360973Y-33775146D01*
X95197924Y-33686986D01*
X95186619Y-33682234D01*
X95071308Y-33646540D01*
X95057205Y-33646334D01*
X95054000Y-33653089D01*
X95054000Y-34845675D01*
X94546000Y-34845675D01*
X94546000Y-33659866D01*
X94542027Y-33646335D01*
X94534232Y-33645215D01*
X94426479Y-33676928D01*
X94415111Y-33681521D01*
X94250846Y-33767397D01*
X94240585Y-33774111D01*
X94096127Y-33890258D01*
X94087368Y-33898836D01*
X93968222Y-34040829D01*
X93961292Y-34050949D01*
X93871998Y-34213375D01*
X93867166Y-34224648D01*
X93811120Y-34401328D01*
X93808570Y-34413322D01*
X93792393Y-34557551D01*
X93792000Y-34564575D01*
X93792000Y-34845675D01*
X85150500Y-34845675D01*
X85150500Y-33619277D01*
X107770889Y-33619277D01*
X107774376Y-33627666D01*
X108374688Y-34227978D01*
X108388632Y-34235592D01*
X108390465Y-34235461D01*
X108397080Y-34231210D01*
X108996933Y-33631357D01*
X109003693Y-33618977D01*
X108997663Y-33610922D01*
X108922180Y-33563296D01*
X108911936Y-33558076D01*
X108724308Y-33483220D01*
X108713270Y-33479950D01*
X108515150Y-33440542D01*
X108503703Y-33439339D01*
X108301722Y-33436695D01*
X108290242Y-33437598D01*
X108091161Y-33471807D01*
X108080041Y-33474787D01*
X107890519Y-33544705D01*
X107880142Y-33549655D01*
X107780487Y-33608944D01*
X107770889Y-33619277D01*
X85150500Y-33619277D01*
X85150500Y-32676500D01*
X85170502Y-32608379D01*
X85224158Y-32561886D01*
X85276500Y-32550500D01*
X113723500Y-32550500D01*
X113791621Y-32570502D01*
G37*
%TD.AperFunction*%
%TD*%
M02*
