%TF.GenerationSoftware,KiCad,Pcbnew,(6.0.7-1)-1*%
%TF.CreationDate,2022-11-20T21:12:54+11:00*%
%TF.ProjectId,esp32-clover,65737033-322d-4636-9c6f-7665722e6b69,rev?*%
%TF.SameCoordinates,Original*%
%TF.FileFunction,Copper,L1,Top*%
%TF.FilePolarity,Positive*%
%FSLAX46Y46*%
G04 Gerber Fmt 4.6, Leading zero omitted, Abs format (unit mm)*
G04 Created by KiCad (PCBNEW (6.0.7-1)-1) date 2022-11-20 21:12:54*
%MOMM*%
%LPD*%
G01*
G04 APERTURE LIST*
G04 Aperture macros list*
%AMRoundRect*
0 Rectangle with rounded corners*
0 $1 Rounding radius*
0 $2 $3 $4 $5 $6 $7 $8 $9 X,Y pos of 4 corners*
0 Add a 4 corners polygon primitive as box body*
4,1,4,$2,$3,$4,$5,$6,$7,$8,$9,$2,$3,0*
0 Add four circle primitives for the rounded corners*
1,1,$1+$1,$2,$3*
1,1,$1+$1,$4,$5*
1,1,$1+$1,$6,$7*
1,1,$1+$1,$8,$9*
0 Add four rect primitives between the rounded corners*
20,1,$1+$1,$2,$3,$4,$5,0*
20,1,$1+$1,$4,$5,$6,$7,0*
20,1,$1+$1,$6,$7,$8,$9,0*
20,1,$1+$1,$8,$9,$2,$3,0*%
G04 Aperture macros list end*
%TA.AperFunction,SMDPad,CuDef*%
%ADD10R,0.889000X0.990600*%
%TD*%
%TA.AperFunction,SMDPad,CuDef*%
%ADD11R,1.701800X0.812800*%
%TD*%
%TA.AperFunction,SMDPad,CuDef*%
%ADD12R,0.300000X0.300000*%
%TD*%
%TA.AperFunction,SMDPad,CuDef*%
%ADD13R,0.300000X0.900000*%
%TD*%
%TA.AperFunction,SMDPad,CuDef*%
%ADD14R,0.900000X0.300000*%
%TD*%
%TA.AperFunction,SMDPad,CuDef*%
%ADD15R,1.800000X1.800000*%
%TD*%
%TA.AperFunction,SMDPad,CuDef*%
%ADD16RoundRect,0.100000X-0.100000X0.637500X-0.100000X-0.637500X0.100000X-0.637500X0.100000X0.637500X0*%
%TD*%
%TA.AperFunction,SMDPad,CuDef*%
%ADD17RoundRect,0.218750X-0.218750X-0.256250X0.218750X-0.256250X0.218750X0.256250X-0.218750X0.256250X0*%
%TD*%
%TA.AperFunction,SMDPad,CuDef*%
%ADD18RoundRect,0.225000X-0.250000X0.225000X-0.250000X-0.225000X0.250000X-0.225000X0.250000X0.225000X0*%
%TD*%
%TA.AperFunction,SMDPad,CuDef*%
%ADD19RoundRect,0.011200X0.723800X0.128800X-0.723800X0.128800X-0.723800X-0.128800X0.723800X-0.128800X0*%
%TD*%
%TA.AperFunction,SMDPad,CuDef*%
%ADD20R,1.905000X1.092200*%
%TD*%
%TA.AperFunction,SMDPad,CuDef*%
%ADD21RoundRect,0.225000X0.225000X0.250000X-0.225000X0.250000X-0.225000X-0.250000X0.225000X-0.250000X0*%
%TD*%
%TA.AperFunction,SMDPad,CuDef*%
%ADD22RoundRect,0.200000X0.275000X-0.200000X0.275000X0.200000X-0.275000X0.200000X-0.275000X-0.200000X0*%
%TD*%
%TA.AperFunction,SMDPad,CuDef*%
%ADD23R,0.990600X0.889000*%
%TD*%
%TA.AperFunction,SMDPad,CuDef*%
%ADD24R,0.812800X1.701800*%
%TD*%
%TA.AperFunction,SMDPad,CuDef*%
%ADD25RoundRect,0.200000X0.200000X0.275000X-0.200000X0.275000X-0.200000X-0.275000X0.200000X-0.275000X0*%
%TD*%
%TA.AperFunction,SMDPad,CuDef*%
%ADD26RoundRect,0.200000X-0.275000X0.200000X-0.275000X-0.200000X0.275000X-0.200000X0.275000X0.200000X0*%
%TD*%
%TA.AperFunction,SMDPad,CuDef*%
%ADD27RoundRect,0.200000X-0.200000X-0.275000X0.200000X-0.275000X0.200000X0.275000X-0.200000X0.275000X0*%
%TD*%
%TA.AperFunction,SMDPad,CuDef*%
%ADD28RoundRect,0.225000X0.250000X-0.225000X0.250000X0.225000X-0.250000X0.225000X-0.250000X-0.225000X0*%
%TD*%
%TA.AperFunction,SMDPad,CuDef*%
%ADD29R,0.700000X1.000000*%
%TD*%
%TA.AperFunction,SMDPad,CuDef*%
%ADD30R,0.700000X0.600000*%
%TD*%
%TA.AperFunction,SMDPad,CuDef*%
%ADD31RoundRect,0.040600X-0.249400X0.564400X-0.249400X-0.564400X0.249400X-0.564400X0.249400X0.564400X0*%
%TD*%
%TA.AperFunction,ComponentPad*%
%ADD32R,1.308000X1.308000*%
%TD*%
%TA.AperFunction,ComponentPad*%
%ADD33C,1.308000*%
%TD*%
%TA.AperFunction,SMDPad,CuDef*%
%ADD34RoundRect,0.150000X-0.150000X0.512500X-0.150000X-0.512500X0.150000X-0.512500X0.150000X0.512500X0*%
%TD*%
%TA.AperFunction,SMDPad,CuDef*%
%ADD35RoundRect,0.225000X-0.225000X-0.250000X0.225000X-0.250000X0.225000X0.250000X-0.225000X0.250000X0*%
%TD*%
%TA.AperFunction,SMDPad,CuDef*%
%ADD36RoundRect,0.218750X-0.256250X0.218750X-0.256250X-0.218750X0.256250X-0.218750X0.256250X0.218750X0*%
%TD*%
%TA.AperFunction,SMDPad,CuDef*%
%ADD37R,0.350000X0.700000*%
%TD*%
%TA.AperFunction,ComponentPad*%
%ADD38C,0.650000*%
%TD*%
%TA.AperFunction,ComponentPad*%
%ADD39O,1.000000X2.000000*%
%TD*%
%TA.AperFunction,SMDPad,CuDef*%
%ADD40R,1.300000X3.400000*%
%TD*%
%TA.AperFunction,ComponentPad*%
%ADD41R,1.100000X1.100000*%
%TD*%
%TA.AperFunction,ComponentPad*%
%ADD42C,1.100000*%
%TD*%
%TA.AperFunction,SMDPad,CuDef*%
%ADD43RoundRect,0.150000X-0.150000X0.587500X-0.150000X-0.587500X0.150000X-0.587500X0.150000X0.587500X0*%
%TD*%
%TA.AperFunction,SMDPad,CuDef*%
%ADD44RoundRect,0.218750X0.218750X0.256250X-0.218750X0.256250X-0.218750X-0.256250X0.218750X-0.256250X0*%
%TD*%
%TA.AperFunction,ComponentPad*%
%ADD45C,0.300000*%
%TD*%
%TA.AperFunction,ComponentPad*%
%ADD46R,1.700000X1.700000*%
%TD*%
%TA.AperFunction,ComponentPad*%
%ADD47O,1.700000X1.700000*%
%TD*%
%TA.AperFunction,ViaPad*%
%ADD48C,0.450000*%
%TD*%
%TA.AperFunction,Conductor*%
%ADD49C,0.250000*%
%TD*%
%TA.AperFunction,Conductor*%
%ADD50C,0.200000*%
%TD*%
G04 APERTURE END LIST*
D10*
%TO.P,SW2,1,1*%
%TO.N,/ESP32_BOOT*%
X108850002Y-69099999D03*
%TO.P,SW2,2,2*%
%TO.N,unconnected-(SW2-Pad2)*%
X108850002Y-70700001D03*
%TO.P,SW2,3,3*%
%TO.N,unconnected-(SW2-Pad3)*%
X112949998Y-69099999D03*
%TO.P,SW2,4,4*%
%TO.N,GND*%
X112949998Y-70700001D03*
D11*
%TO.P,SW2,5,5*%
X110900000Y-68500000D03*
%TD*%
D12*
%TO.P,U2,1,RS485/GPIO.1*%
%TO.N,unconnected-(U2-Pad1)*%
X100250000Y-46950000D03*
D13*
%TO.P,U2,2,CLK/GPIO.0*%
%TO.N,unconnected-(U2-Pad2)*%
X99750000Y-46650000D03*
%TO.P,U2,3,GND*%
%TO.N,GND*%
X99250000Y-46650000D03*
%TO.P,U2,4,D+*%
%TO.N,/USB_D+*%
X98750000Y-46650000D03*
%TO.P,U2,5,D-*%
%TO.N,/USB_D-*%
X98250000Y-46650000D03*
D12*
%TO.P,U2,6,VDD*%
%TO.N,+3.3V*%
X97750000Y-46950000D03*
D14*
%TO.P,U2,7,VREGIN*%
%TO.N,VBUS*%
X97450000Y-47450000D03*
%TO.P,U2,8,VBUS*%
%TO.N,Net-(D2-Pad4)*%
X97450000Y-47950000D03*
%TO.P,U2,9,~{RST}*%
%TO.N,Net-(R6-Pad1)*%
X97450000Y-48450000D03*
%TO.P,U2,10,NC*%
%TO.N,unconnected-(U2-Pad10)*%
X97450000Y-48950000D03*
D12*
%TO.P,U2,11,~{SUSPEND}*%
%TO.N,unconnected-(U2-Pad11)*%
X97750000Y-49450000D03*
D13*
%TO.P,U2,12,GND*%
%TO.N,GND*%
X98250000Y-49750000D03*
%TO.P,U2,13,~{WAKEUP}*%
%TO.N,unconnected-(U2-Pad13)*%
X98750000Y-49750000D03*
%TO.P,U2,14,SUSPEND*%
%TO.N,unconnected-(U2-Pad14)*%
X99250000Y-49750000D03*
%TO.P,U2,15,~{CTS}*%
%TO.N,unconnected-(U2-Pad15)*%
X99750000Y-49750000D03*
D12*
%TO.P,U2,16,~{RTS}*%
%TO.N,unconnected-(U2-Pad16)*%
X100250000Y-49450000D03*
D14*
%TO.P,U2,17,RXD*%
%TO.N,/UART_RX*%
X100550000Y-48950000D03*
%TO.P,U2,18,TXD*%
%TO.N,/UART_TX*%
X100550000Y-48450000D03*
%TO.P,U2,19,~{RXT}/GPIO.3*%
%TO.N,Net-(D4-Pad1)*%
X100550000Y-47950000D03*
%TO.P,U2,20,~{TXT}/GPIO.2*%
%TO.N,Net-(D3-Pad1)*%
X100550000Y-47450000D03*
D15*
%TO.P,U2,21,GND*%
%TO.N,GND*%
X99000000Y-48200000D03*
%TD*%
D16*
%TO.P,U5,1,A0*%
%TO.N,GND*%
X101975000Y-54137500D03*
%TO.P,U5,2,A1*%
X101325000Y-54137500D03*
%TO.P,U5,3,A2*%
X100675000Y-54137500D03*
%TO.P,U5,4,P0*%
%TO.N,TCA9534_P0*%
X100025000Y-54137500D03*
%TO.P,U5,5,P1*%
%TO.N,TCA9534_P1*%
X99375000Y-54137500D03*
%TO.P,U5,6,P2*%
%TO.N,TCA9534_P2*%
X98725000Y-54137500D03*
%TO.P,U5,7,P3*%
%TO.N,TCA9534_P3*%
X98075000Y-54137500D03*
%TO.P,U5,8,GND*%
%TO.N,GND*%
X97425000Y-54137500D03*
%TO.P,U5,9,P4*%
%TO.N,TCA9534_P4*%
X97425000Y-59862500D03*
%TO.P,U5,10,P5*%
%TO.N,TCA9534_P5*%
X98075000Y-59862500D03*
%TO.P,U5,11,P6*%
%TO.N,TCA9534_P6*%
X98725000Y-59862500D03*
%TO.P,U5,12,P7*%
%TO.N,TCA9534_P7*%
X99375000Y-59862500D03*
%TO.P,U5,13,~{INT}*%
%TO.N,GPIO21{slash}TCA9534_INT*%
X100025000Y-59862500D03*
%TO.P,U5,14,SCL*%
%TO.N,I2C_SCL*%
X100675000Y-59862500D03*
%TO.P,U5,15,SDA*%
%TO.N,I2C_SDA*%
X101325000Y-59862500D03*
%TO.P,U5,16,VDD*%
%TO.N,+3.3V*%
X101975000Y-59862500D03*
%TD*%
D17*
%TO.P,D1,1,K*%
%TO.N,Net-(D1-Pad1)*%
X111400000Y-39700000D03*
%TO.P,D1,2,A*%
%TO.N,Net-(D1-Pad2)*%
X112975000Y-39700000D03*
%TD*%
D18*
%TO.P,C10,1*%
%TO.N,+3.3V*%
X92700000Y-69825000D03*
%TO.P,C10,2*%
%TO.N,GND*%
X92700000Y-71375000D03*
%TD*%
D19*
%TO.P,U6,1,~{CS}*%
%TO.N,GPIO4{slash}ADC_CS*%
X108280000Y-58200000D03*
%TO.P,U6,2,VA*%
%TO.N,+3.3V*%
X108280000Y-57700000D03*
%TO.P,U6,3,GND*%
%TO.N,GND*%
X108280000Y-57200000D03*
%TO.P,U6,4,IN4*%
%TO.N,ADC_IN4*%
X108280000Y-56700000D03*
%TO.P,U6,5,IN3*%
%TO.N,ADC_IN3*%
X108280000Y-56200000D03*
%TO.P,U6,6,IN2*%
%TO.N,ADC_IN2*%
X103980000Y-56200000D03*
%TO.P,U6,7,IN1*%
%TO.N,ADC_IN1*%
X103980000Y-56700000D03*
%TO.P,U6,8,DIN*%
%TO.N,SPI_MOSI*%
X103980000Y-57200000D03*
%TO.P,U6,9,DOUT*%
%TO.N,SPI_MISO*%
X103980000Y-57700000D03*
%TO.P,U6,10,SCLK*%
%TO.N,SPI_SCK*%
X103980000Y-58200000D03*
%TD*%
D20*
%TO.P,Y1,1*%
%TO.N,Net-(C13-Pad1)*%
X90000000Y-60725000D03*
%TO.P,Y1,2*%
%TO.N,Net-(C12-Pad1)*%
X90000000Y-63163400D03*
%TD*%
D21*
%TO.P,C3,1*%
%TO.N,VBUS*%
X95500000Y-47800000D03*
%TO.P,C3,2*%
%TO.N,GND*%
X93950000Y-47800000D03*
%TD*%
D22*
%TO.P,R13,1*%
%TO.N,Net-(R13-Pad1)*%
X103800000Y-54325000D03*
%TO.P,R13,2*%
%TO.N,+3.3V*%
X103800000Y-52675000D03*
%TD*%
D21*
%TO.P,C7,1*%
%TO.N,+3.3V*%
X95500000Y-44600000D03*
%TO.P,C7,2*%
%TO.N,GND*%
X93950000Y-44600000D03*
%TD*%
D23*
%TO.P,SW3,1,1*%
%TO.N,/GPI34{slash}BTN*%
X90299999Y-55649998D03*
%TO.P,SW3,2,2*%
%TO.N,unconnected-(SW3-Pad2)*%
X91900001Y-55649998D03*
%TO.P,SW3,3,3*%
%TO.N,unconnected-(SW3-Pad3)*%
X90299999Y-51550002D03*
%TO.P,SW3,4,4*%
%TO.N,GND*%
X91900001Y-51550002D03*
D24*
%TO.P,SW3,5,5*%
X89700000Y-53600000D03*
%TD*%
D25*
%TO.P,R14,1*%
%TO.N,Net-(JP2-Pad2)*%
X107700000Y-47600000D03*
%TO.P,R14,2*%
%TO.N,+3.3V*%
X106050000Y-47600000D03*
%TD*%
D22*
%TO.P,R3,1*%
%TO.N,GND*%
X109400000Y-49225000D03*
%TO.P,R3,2*%
%TO.N,Net-(R3-Pad2)*%
X109400000Y-47575000D03*
%TD*%
%TO.P,R15,1*%
%TO.N,Net-(JP3-Pad2)*%
X90350000Y-50000000D03*
%TO.P,R15,2*%
%TO.N,+3.3V*%
X90350000Y-48350000D03*
%TD*%
%TO.P,R5,1*%
%TO.N,Net-(D2-Pad4)*%
X92000000Y-50025000D03*
%TO.P,R5,2*%
%TO.N,GND*%
X92000000Y-48375000D03*
%TD*%
D26*
%TO.P,R4,1*%
%TO.N,VBUS*%
X93900000Y-49875000D03*
%TO.P,R4,2*%
%TO.N,Net-(D2-Pad4)*%
X93900000Y-51525000D03*
%TD*%
D27*
%TO.P,R2,1*%
%TO.N,VBUS*%
X107575000Y-45900000D03*
%TO.P,R2,2*%
%TO.N,Net-(D1-Pad2)*%
X109225000Y-45900000D03*
%TD*%
D18*
%TO.P,C11,1*%
%TO.N,+3.3V*%
X94500000Y-69825000D03*
%TO.P,C11,2*%
%TO.N,GND*%
X94500000Y-71375000D03*
%TD*%
D28*
%TO.P,C5,1*%
%TO.N,/VBAT*%
X105800000Y-42400000D03*
%TO.P,C5,2*%
%TO.N,GND*%
X105800000Y-40850000D03*
%TD*%
D18*
%TO.P,C1,1*%
%TO.N,VBUS*%
X105800000Y-44050000D03*
%TO.P,C1,2*%
%TO.N,GND*%
X105800000Y-45600000D03*
%TD*%
D29*
%TO.P,D2,1,A*%
%TO.N,GND*%
X99000000Y-44700000D03*
D30*
%TO.P,D2,2,K*%
%TO.N,/USB_D+*%
X99000000Y-43000000D03*
%TO.P,D2,3,K*%
%TO.N,/USB_D-*%
X97000000Y-43000000D03*
%TO.P,D2,4,K*%
%TO.N,Net-(D2-Pad4)*%
X97000000Y-44900000D03*
%TD*%
D31*
%TO.P,U7,1,VOUT*%
%TO.N,DAC_VOUT*%
X95850000Y-53445000D03*
%TO.P,U7,2,GND*%
%TO.N,GND*%
X94900000Y-53445000D03*
%TO.P,U7,3,VDD*%
%TO.N,+3.3V*%
X93950000Y-53445000D03*
%TO.P,U7,4,SDA*%
%TO.N,I2C_SDA*%
X93950000Y-55955000D03*
%TO.P,U7,5,SCL*%
%TO.N,I2C_SCL*%
X94900000Y-55955000D03*
%TO.P,U7,6,A0*%
%TO.N,GND*%
X95850000Y-55955000D03*
%TD*%
D26*
%TO.P,R6,1*%
%TO.N,Net-(R6-Pad1)*%
X95700000Y-49875000D03*
%TO.P,R6,2*%
%TO.N,+3.3V*%
X95700000Y-51525000D03*
%TD*%
D22*
%TO.P,R1,1*%
%TO.N,GND*%
X100500000Y-44550000D03*
%TO.P,R1,2*%
%TO.N,Net-(J1-PadA5)*%
X100500000Y-42900000D03*
%TD*%
D10*
%TO.P,SW1,1,1*%
%TO.N,Net-(C9-Pad1)*%
X86050002Y-69099999D03*
%TO.P,SW1,2,2*%
%TO.N,unconnected-(SW1-Pad2)*%
X86050002Y-70700001D03*
%TO.P,SW1,3,3*%
%TO.N,unconnected-(SW1-Pad3)*%
X90149998Y-69099999D03*
%TO.P,SW1,4,4*%
%TO.N,GND*%
X90149998Y-70700001D03*
D11*
%TO.P,SW1,5,5*%
X88100000Y-68500000D03*
%TD*%
D28*
%TO.P,C13,1*%
%TO.N,Net-(C13-Pad1)*%
X89700000Y-59000000D03*
%TO.P,C13,2*%
%TO.N,GND*%
X89700000Y-57450000D03*
%TD*%
%TO.P,C15,1*%
%TO.N,+3.3V*%
X95800000Y-59375000D03*
%TO.P,C15,2*%
%TO.N,GND*%
X95800000Y-57825000D03*
%TD*%
D32*
%TO.P,J2,1,1*%
%TO.N,/VBAT*%
X108387500Y-36600000D03*
D33*
%TO.P,J2,2,2*%
%TO.N,GND*%
X108387500Y-34600000D03*
%TD*%
D17*
%TO.P,D4,1,K*%
%TO.N,Net-(D4-Pad1)*%
X102887500Y-50800000D03*
%TO.P,D4,2,A*%
%TO.N,Net-(D4-Pad2)*%
X104462500Y-50800000D03*
%TD*%
D34*
%TO.P,U3,1,VIN*%
%TO.N,/VBAT*%
X104150000Y-43162500D03*
%TO.P,U3,2,GND*%
%TO.N,GND*%
X103200000Y-43162500D03*
%TO.P,U3,3,EN*%
%TO.N,/VBAT*%
X102250000Y-43162500D03*
%TO.P,U3,4,NC*%
%TO.N,unconnected-(U3-Pad4)*%
X102250000Y-45437500D03*
%TO.P,U3,5,VOUT*%
%TO.N,+3.3V*%
X104150000Y-45437500D03*
%TD*%
D26*
%TO.P,R19,1*%
%TO.N,/GPI34{slash}BTN*%
X92300000Y-57775000D03*
%TO.P,R19,2*%
%TO.N,+3.3V*%
X92300000Y-59425000D03*
%TD*%
D27*
%TO.P,R10,1*%
%TO.N,Net-(C9-Pad1)*%
X89575000Y-66825000D03*
%TO.P,R10,2*%
%TO.N,+3.3V*%
X91225000Y-66825000D03*
%TD*%
D28*
%TO.P,C14,1*%
%TO.N,+3.3V*%
X94000000Y-59375000D03*
%TO.P,C14,2*%
%TO.N,GND*%
X94000000Y-57825000D03*
%TD*%
D35*
%TO.P,C9,1*%
%TO.N,Net-(C9-Pad1)*%
X89625000Y-65225000D03*
%TO.P,C9,2*%
%TO.N,GND*%
X91175000Y-65225000D03*
%TD*%
D36*
%TO.P,D6,1,K*%
%TO.N,GND*%
X92300000Y-37525000D03*
%TO.P,D6,2,A*%
%TO.N,Net-(D6-Pad2)*%
X92300000Y-39100000D03*
%TD*%
D26*
%TO.P,R7,1*%
%TO.N,Net-(J1-PadB5)*%
X105800000Y-37650000D03*
%TO.P,R7,2*%
%TO.N,GND*%
X105800000Y-39300000D03*
%TD*%
D35*
%TO.P,C12,1*%
%TO.N,Net-(C12-Pad1)*%
X92125000Y-62700000D03*
%TO.P,C12,2*%
%TO.N,GND*%
X93675000Y-62700000D03*
%TD*%
D17*
%TO.P,D3,1,K*%
%TO.N,Net-(D3-Pad1)*%
X102887500Y-49200000D03*
%TO.P,D3,2,A*%
%TO.N,Net-(D3-Pad2)*%
X104462500Y-49200000D03*
%TD*%
D21*
%TO.P,C2,1*%
%TO.N,VBUS*%
X95500000Y-46200000D03*
%TO.P,C2,2*%
%TO.N,GND*%
X93950000Y-46200000D03*
%TD*%
D25*
%TO.P,R11,1*%
%TO.N,Net-(JP1-Pad1)*%
X99050000Y-51400000D03*
%TO.P,R11,2*%
%TO.N,+3.3V*%
X97400000Y-51400000D03*
%TD*%
D21*
%TO.P,C8,1*%
%TO.N,+3.3V*%
X104450000Y-47600000D03*
%TO.P,C8,2*%
%TO.N,GND*%
X102900000Y-47600000D03*
%TD*%
D37*
%TO.P,J1,A1,GND1.1*%
%TO.N,GND*%
X102050000Y-41037790D03*
%TO.P,J1,A2,SSTXP1*%
%TO.N,unconnected-(J1-PadA2)*%
X101550000Y-41037790D03*
%TO.P,J1,A3,SSTXN1*%
%TO.N,unconnected-(J1-PadA3)*%
X101050000Y-41037790D03*
%TO.P,J1,A4,VBUS1.1*%
%TO.N,VBUS*%
X100550000Y-41037790D03*
%TO.P,J1,A5,CC1*%
%TO.N,Net-(J1-PadA5)*%
X100050000Y-41037790D03*
%TO.P,J1,A6,DP1*%
%TO.N,/USB_D+*%
X99550000Y-41037790D03*
%TO.P,J1,A7,DN1*%
%TO.N,/USB_D-*%
X99050000Y-41037790D03*
%TO.P,J1,A8,SBU1*%
%TO.N,unconnected-(J1-PadA8)*%
X98550000Y-41037790D03*
%TO.P,J1,A9,VBUS1.2*%
%TO.N,VBUS*%
X98050000Y-41037790D03*
%TO.P,J1,A10,SSRXN2*%
%TO.N,unconnected-(J1-PadA10)*%
X97550000Y-41037790D03*
%TO.P,J1,A11,SSRXP2*%
%TO.N,unconnected-(J1-PadA11)*%
X97050000Y-41037790D03*
%TO.P,J1,A12,GND1.2*%
%TO.N,GND*%
X96550000Y-41037790D03*
D38*
%TO.P,J1,B1,GND2.1*%
X96250000Y-39917790D03*
%TO.P,J1,B2,SSTXP2*%
%TO.N,unconnected-(J1-PadB2)*%
X96900000Y-39217790D03*
%TO.P,J1,B3,SSTXN2*%
%TO.N,unconnected-(J1-PadB3)*%
X97700000Y-39217790D03*
%TO.P,J1,B4,VBUS2.1*%
%TO.N,unconnected-(J1-PadB4)*%
X98100000Y-39917790D03*
%TO.P,J1,B5,CC2*%
%TO.N,Net-(J1-PadB5)*%
X98500000Y-39217790D03*
%TO.P,J1,B6,DP2*%
%TO.N,unconnected-(J1-PadB6)*%
X98900000Y-39917790D03*
%TO.P,J1,B7,DN2*%
%TO.N,unconnected-(J1-PadB7)*%
X99700000Y-39917790D03*
%TO.P,J1,B8,SBU2*%
%TO.N,unconnected-(J1-PadB8)*%
X100100000Y-39217790D03*
%TO.P,J1,B9,VBUS2.2*%
%TO.N,unconnected-(J1-PadB9)*%
X100500000Y-39917790D03*
%TO.P,J1,B10,SSRXN1*%
%TO.N,unconnected-(J1-PadB10)*%
X100900000Y-39217790D03*
%TO.P,J1,B11,SSRXP1*%
%TO.N,unconnected-(J1-PadB11)*%
X101700000Y-39217790D03*
%TO.P,J1,B12,GND2.2*%
%TO.N,GND*%
X102350000Y-39917790D03*
D39*
%TO.P,J1,S1,SHIELD*%
X103800000Y-40717790D03*
%TO.P,J1,S2,SHIELD*%
X94800000Y-40717790D03*
%TO.P,J1,S3,SHIELD*%
X103800000Y-35117790D03*
%TO.P,J1,S4,SHIELD*%
X94800000Y-35117790D03*
%TD*%
D40*
%TO.P,LS1,1*%
%TO.N,+3.3V*%
X106850000Y-67400000D03*
%TO.P,LS1,2*%
%TO.N,Net-(LS1-Pad2)*%
X98150000Y-67400000D03*
%TD*%
D27*
%TO.P,R12,1*%
%TO.N,Net-(C13-Pad1)*%
X92075000Y-61100000D03*
%TO.P,R12,2*%
%TO.N,Net-(C12-Pad1)*%
X93725000Y-61100000D03*
%TD*%
D25*
%TO.P,R8,1*%
%TO.N,+3.3V*%
X107700000Y-49200000D03*
%TO.P,R8,2*%
%TO.N,Net-(D3-Pad2)*%
X106050000Y-49200000D03*
%TD*%
D21*
%TO.P,C17,1*%
%TO.N,+3.3V*%
X108600000Y-59900000D03*
%TO.P,C17,2*%
%TO.N,GND*%
X107050000Y-59900000D03*
%TD*%
%TO.P,C6,1*%
%TO.N,+3.3V*%
X95500000Y-43000000D03*
%TO.P,C6,2*%
%TO.N,GND*%
X93950000Y-43000000D03*
%TD*%
D35*
%TO.P,C4,1*%
%TO.N,/VBAT*%
X107500000Y-39800000D03*
%TO.P,C4,2*%
%TO.N,GND*%
X109050000Y-39800000D03*
%TD*%
D41*
%TO.P,J4,1,VTref*%
%TO.N,+3.3V*%
X87165000Y-36460000D03*
D42*
%TO.P,J4,2,SWDIO/TMS*%
%TO.N,/DEBUG_TMS*%
X88435000Y-36460000D03*
%TO.P,J4,3,GND*%
%TO.N,GND*%
X87165000Y-37730000D03*
%TO.P,J4,4,SWDCLK/TCK*%
%TO.N,/DEBUG_TCK*%
X88435000Y-37730000D03*
%TO.P,J4,5,GND*%
%TO.N,GND*%
X87165000Y-39000000D03*
%TO.P,J4,6,SWO/TDO*%
%TO.N,/DEBUG_TDO*%
X88435000Y-39000000D03*
%TO.P,J4,7,KEY*%
%TO.N,unconnected-(J4-Pad7)*%
X87165000Y-40270000D03*
%TO.P,J4,8,NC/TDI*%
%TO.N,/DEBUG_TDI*%
X88435000Y-40270000D03*
%TO.P,J4,9,GNDDetect*%
%TO.N,GND*%
X87165000Y-41540000D03*
%TO.P,J4,10,~{RESET}*%
%TO.N,unconnected-(J4-Pad10)*%
X88435000Y-41540000D03*
%TD*%
D43*
%TO.P,Q1,1,B*%
%TO.N,Net-(Q1-Pad1)*%
X96250000Y-65462500D03*
%TO.P,Q1,2,E*%
%TO.N,GND*%
X94350000Y-65462500D03*
%TO.P,Q1,3,C*%
%TO.N,Net-(LS1-Pad2)*%
X95300000Y-67337500D03*
%TD*%
D25*
%TO.P,R9,1*%
%TO.N,+3.3V*%
X107700000Y-50800000D03*
%TO.P,R9,2*%
%TO.N,Net-(D4-Pad2)*%
X106050000Y-50800000D03*
%TD*%
D27*
%TO.P,R16,1*%
%TO.N,Net-(D5-Pad2)*%
X105475000Y-54400000D03*
%TO.P,R16,2*%
%TO.N,Net-(JP4-Pad2)*%
X107125000Y-54400000D03*
%TD*%
D26*
%TO.P,R20,1*%
%TO.N,Net-(D6-Pad2)*%
X92300000Y-40975000D03*
%TO.P,R20,2*%
%TO.N,VBUS*%
X92300000Y-42625000D03*
%TD*%
%TO.P,R18,1*%
%TO.N,Net-(LS1-Pad2)*%
X96200000Y-69775000D03*
%TO.P,R18,2*%
%TO.N,+3.3V*%
X96200000Y-71425000D03*
%TD*%
D34*
%TO.P,U1,1,STAT*%
%TO.N,Net-(D1-Pad1)*%
X109400000Y-41762500D03*
%TO.P,U1,2,VSS*%
%TO.N,GND*%
X108450000Y-41762500D03*
%TO.P,U1,3,VBAT*%
%TO.N,/VBAT*%
X107500000Y-41762500D03*
%TO.P,U1,4,VDD*%
%TO.N,VBUS*%
X107500000Y-44037500D03*
%TO.P,U1,5,PROG*%
%TO.N,Net-(R3-Pad2)*%
X109400000Y-44037500D03*
%TD*%
D44*
%TO.P,D5,1,K*%
%TO.N,GND*%
X107087500Y-52600000D03*
%TO.P,D5,2,A*%
%TO.N,Net-(D5-Pad2)*%
X105512500Y-52600000D03*
%TD*%
D21*
%TO.P,C16,1*%
%TO.N,+3.3V*%
X108575000Y-61500000D03*
%TO.P,C16,2*%
%TO.N,GND*%
X107025000Y-61500000D03*
%TD*%
D26*
%TO.P,R17,1*%
%TO.N,Net-(Q1-Pad1)*%
X92750000Y-66575000D03*
%TO.P,R17,2*%
%TO.N,GPIO27{slash}PIEZO*%
X92750000Y-68225000D03*
%TD*%
D45*
%TO.P,U4,39_10*%
%TO.N,N/C*%
X97200000Y-64740000D03*
%TO.P,U4,39_11*%
X98600000Y-64740000D03*
%TO.P,U4,39_12*%
X96500000Y-64040000D03*
%TO.P,U4,39_14*%
X99300000Y-64040000D03*
%TO.P,U4,39_17*%
X96500000Y-62640000D03*
%TO.P,U4,39_19*%
X99300000Y-62640000D03*
%TO.P,U4,39_20*%
X97200000Y-61940000D03*
%TO.P,U4,39_21*%
X98600000Y-61940000D03*
%TD*%
D46*
%TO.P,J3,1,Pin_1*%
%TO.N,DAC_VOUT*%
X86800000Y-47575000D03*
D47*
%TO.P,J3,2,Pin_2*%
%TO.N,ADC_IN1*%
X86800000Y-50115000D03*
%TO.P,J3,3,Pin_3*%
%TO.N,TCA9534_P3*%
X86800000Y-52655000D03*
%TO.P,J3,4,Pin_4*%
%TO.N,TCA9534_P2*%
X86800000Y-55195000D03*
%TO.P,J3,5,Pin_5*%
%TO.N,I2C_SCL*%
X86800000Y-57735000D03*
%TO.P,J3,6,Pin_6*%
%TO.N,I2C_SDA*%
X86800000Y-60275000D03*
%TO.P,J3,7,Pin_7*%
%TO.N,UART_RX1*%
X86800000Y-62815000D03*
%TO.P,J3,8,Pin_8*%
%TO.N,UART_TX1*%
X86800000Y-65355000D03*
%TD*%
D46*
%TO.P,J5,1,Pin_1*%
%TO.N,/VBAT*%
X112200000Y-42475000D03*
D47*
%TO.P,J5,2,Pin_2*%
%TO.N,GND*%
X112200000Y-45015000D03*
%TO.P,J5,3,Pin_3*%
%TO.N,ADC_IN3*%
X112200000Y-47555000D03*
%TO.P,J5,4,Pin_4*%
%TO.N,GPIO17*%
X112200000Y-50095000D03*
%TO.P,J5,5,Pin_5*%
%TO.N,SPI_SCK*%
X112200000Y-52635000D03*
%TO.P,J5,6,Pin_6*%
%TO.N,SPI_MOSI*%
X112200000Y-55175000D03*
%TO.P,J5,7,Pin_7*%
%TO.N,SPI_MISO*%
X112200000Y-57715000D03*
%TO.P,J5,8,Pin_8*%
%TO.N,GPIO21{slash}TCA9534_INT*%
X112200000Y-60255000D03*
%TO.P,J5,9,Pin_9*%
%TO.N,/UART_TX*%
X112200000Y-62795000D03*
%TO.P,J5,10,Pin_10*%
%TO.N,/UART_RX*%
X112200000Y-65335000D03*
%TD*%
D48*
%TO.N,VBUS*%
X92800000Y-43650000D03*
X106700000Y-45100000D03*
X101350000Y-42100000D03*
X96450000Y-46650000D03*
%TO.N,GND*%
X99000000Y-33000000D03*
X95250000Y-60960000D03*
X88050000Y-67450000D03*
X101600000Y-67310000D03*
X89400000Y-43500000D03*
X100330000Y-67310000D03*
X88700000Y-46600000D03*
X87750000Y-59000000D03*
X102870000Y-71120000D03*
X99400000Y-69000000D03*
X97500000Y-57400000D03*
X99060000Y-71120000D03*
X103124000Y-60452000D03*
X108000000Y-33000000D03*
X98950000Y-58450000D03*
X102870000Y-68580000D03*
X96000000Y-36000000D03*
X105410000Y-61722000D03*
X101600000Y-71120000D03*
X96520000Y-60960000D03*
X104140000Y-64770000D03*
X106680000Y-71120000D03*
X95325000Y-54675000D03*
X105410000Y-71120000D03*
X102000000Y-36000000D03*
X104140000Y-60960000D03*
X88899998Y-69450002D03*
X102000000Y-33000000D03*
X111000000Y-36000000D03*
X87000000Y-45000000D03*
X111000000Y-33000000D03*
X92700000Y-44600000D03*
X110300000Y-69800000D03*
X100330000Y-71120000D03*
X100330000Y-68580000D03*
X108400000Y-43050000D03*
X110750000Y-45400000D03*
X88200000Y-61500000D03*
X105000000Y-33000000D03*
X93000000Y-33000000D03*
X90000000Y-33000000D03*
X91900000Y-52750000D03*
X104300000Y-69700000D03*
X91950000Y-44900000D03*
X104140000Y-66040000D03*
X101600000Y-64770000D03*
X95050000Y-62700000D03*
X96000000Y-33000000D03*
X90000000Y-36000000D03*
X99250000Y-55950000D03*
X91350000Y-47250000D03*
X101600000Y-68580000D03*
X105410000Y-66040000D03*
X93100000Y-65050000D03*
X92450000Y-56800000D03*
X87700000Y-53950000D03*
X100330000Y-64770000D03*
X87000000Y-33000000D03*
X97050000Y-50150000D03*
X91200000Y-39100000D03*
X106000000Y-55350000D03*
X102870000Y-67310000D03*
X87650000Y-64000000D03*
X104140000Y-59690000D03*
X99000000Y-36000000D03*
X101450000Y-61850000D03*
X104140000Y-71120000D03*
%TO.N,+3.3V*%
X90350000Y-47450000D03*
X91850000Y-54550000D03*
X92250000Y-65100000D03*
X92250000Y-60200500D03*
X96450000Y-45900000D03*
X103749500Y-46600000D03*
X91750000Y-69800000D03*
X102750000Y-59350000D03*
%TO.N,Net-(C9-Pad1)*%
X88000000Y-66450000D03*
%TO.N,Net-(C12-Pad1)*%
X88200000Y-62700000D03*
%TO.N,Net-(C13-Pad1)*%
X89100000Y-61850000D03*
%TO.N,Net-(D2-Pad4)*%
X96691912Y-44058088D03*
X95550000Y-48800000D03*
%TO.N,/UART_RX*%
X100850000Y-50050000D03*
X109450000Y-67300000D03*
X105550000Y-65000000D03*
%TO.N,/UART_TX*%
X101650000Y-50400000D03*
X106650000Y-65100000D03*
X109750000Y-65700000D03*
%TO.N,/DEBUG_TMS*%
X89250000Y-42750000D03*
%TO.N,/DEBUG_TCK*%
X91150000Y-45050000D03*
X96600000Y-50700000D03*
X90855000Y-40150000D03*
%TO.N,/DEBUG_TDI*%
X89050000Y-47300000D03*
X88849500Y-53250000D03*
%TO.N,Net-(JP1-Pad1)*%
X100250000Y-51250000D03*
%TO.N,GPIO21{slash}TCA9534_INT*%
X109750000Y-63500000D03*
X100550000Y-63350000D03*
X100000000Y-58500000D03*
X102250000Y-52000000D03*
%TO.N,I2C_SCL*%
X92950000Y-52050000D03*
X103550000Y-67950000D03*
X100675000Y-61575000D03*
X94900000Y-56950000D03*
%TO.N,Net-(JP2-Pad2)*%
X104700000Y-46600000D03*
%TO.N,I2C_SDA*%
X93900000Y-56950500D03*
X93850000Y-54750000D03*
X98800000Y-57600000D03*
%TO.N,Net-(JP3-Pad2)*%
X89050000Y-49650000D03*
%TO.N,TCA9534_P0*%
X110100500Y-50335898D03*
X100250000Y-52050000D03*
%TO.N,Net-(JP4-Pad2)*%
X108161444Y-53361444D03*
%TO.N,GPIO27{slash}PIEZO*%
X91850000Y-68200000D03*
X88400000Y-58150000D03*
%TO.N,Net-(R13-Pad1)*%
X106150000Y-57000000D03*
%TO.N,/GPI34{slash}BTN*%
X92700000Y-58600000D03*
X92951056Y-64201056D03*
%TO.N,/ESP32_BOOT*%
X110850000Y-56450000D03*
%TO.N,UART_RX1*%
X88699500Y-59750000D03*
%TO.N,GPIO4{slash}ADC_CS*%
X106850000Y-56400000D03*
X106850000Y-58100000D03*
%TO.N,GPIO17*%
X106200000Y-56100000D03*
%TO.N,SPI_SCK*%
X109650000Y-56350000D03*
X104550000Y-59150000D03*
%TO.N,SPI_MOSI*%
X110300500Y-57700000D03*
X105800000Y-60200000D03*
%TO.N,SPI_MISO*%
X105250000Y-59650000D03*
%TO.N,UART_TX1*%
X105000000Y-68450000D03*
%TO.N,TCA9534_P2*%
X97859267Y-56609267D03*
%TO.N,TCA9534_P3*%
X97400000Y-56150000D03*
%TO.N,ADC_IN3*%
X109500000Y-54250000D03*
%TO.N,ADC_IN1*%
X99250000Y-56950000D03*
%TO.N,DAC_VOUT*%
X96600000Y-52125498D03*
%TD*%
D49*
%TO.N,VBUS*%
X98050000Y-41037790D02*
X98050000Y-41637790D01*
X95537210Y-41712790D02*
X97975000Y-41712790D01*
X105800000Y-44050000D02*
X107487500Y-44050000D01*
X107500000Y-44037500D02*
X107500000Y-45825000D01*
X96450000Y-47400000D02*
X96400000Y-47450000D01*
X98050000Y-41637790D02*
X97975000Y-41712790D01*
X93900000Y-49875000D02*
X93900000Y-49400000D01*
X101100000Y-42100000D02*
X101350000Y-42100000D01*
X106700000Y-45100000D02*
X106775000Y-45100000D01*
X100550000Y-41550000D02*
X101100000Y-42100000D01*
X92300000Y-43150000D02*
X92800000Y-43650000D01*
X96450000Y-46650000D02*
X96450000Y-47400000D01*
X95500000Y-46200000D02*
X95500000Y-47800000D01*
X100550000Y-41037790D02*
X100550000Y-41550000D01*
X93900000Y-49400000D02*
X95500000Y-47800000D01*
X107487500Y-44050000D02*
X107500000Y-44037500D01*
X95050000Y-42200000D02*
X92725000Y-42200000D01*
X96400000Y-47450000D02*
X97450000Y-47450000D01*
X92300000Y-42625000D02*
X92300000Y-43150000D01*
X95500000Y-47800000D02*
X95850000Y-47450000D01*
X95850000Y-47450000D02*
X96400000Y-47450000D01*
X95537210Y-41712790D02*
X95050000Y-42200000D01*
X106775000Y-45100000D02*
X107575000Y-45900000D01*
X92725000Y-42200000D02*
X92300000Y-42625000D01*
X107500000Y-45825000D02*
X107575000Y-45900000D01*
%TO.N,GND*%
X107025000Y-61500000D02*
X107025000Y-59925000D01*
X93950000Y-43000000D02*
X93950000Y-47800000D01*
X92300000Y-37525000D02*
X92392790Y-37525000D01*
X95850000Y-55955000D02*
X95850000Y-55200000D01*
X111815000Y-45400000D02*
X112200000Y-45015000D01*
X107025000Y-59925000D02*
X107050000Y-59900000D01*
X91749998Y-51550002D02*
X89700000Y-53600000D01*
X88100000Y-68650003D02*
X88899998Y-69450002D01*
X91200000Y-50850001D02*
X91900001Y-51550002D01*
X90149998Y-70700001D02*
X92025001Y-70700001D01*
X110200000Y-56750000D02*
X109750000Y-57200000D01*
X108450000Y-41762500D02*
X108450000Y-43000000D01*
X101975000Y-53052818D02*
X103650000Y-51377818D01*
X97425000Y-53125000D02*
X98250000Y-52300000D01*
X110750000Y-48600000D02*
X110750000Y-45400000D01*
X103200000Y-47300000D02*
X102900000Y-47600000D01*
X93675000Y-62700000D02*
X93675000Y-64787500D01*
X89300000Y-57050000D02*
X89300000Y-54000000D01*
X91900000Y-52750000D02*
X91900001Y-51550002D01*
X105632000Y-61500000D02*
X105410000Y-61722000D01*
X99250000Y-45900000D02*
X99000000Y-45650000D01*
X91175000Y-65200000D02*
X93675000Y-62700000D01*
X95050000Y-62700000D02*
X93675000Y-62700000D01*
X108450000Y-41762500D02*
X108450000Y-40400000D01*
X102050000Y-40217790D02*
X102350000Y-39917790D01*
X109400000Y-51200000D02*
X109400000Y-49225000D01*
X91900001Y-51550002D02*
X91749998Y-51550002D01*
X100500000Y-44550000D02*
X100700000Y-44350000D01*
X108450000Y-43000000D02*
X108400000Y-43050000D01*
X102396751Y-44350000D02*
X103200000Y-43546751D01*
X96550000Y-41037790D02*
X96550000Y-40217790D01*
X103200000Y-43546751D02*
X104103249Y-44450000D01*
X92700000Y-71375000D02*
X94500000Y-71375000D01*
X104650000Y-44450000D02*
X105800000Y-45600000D01*
X95850000Y-55200000D02*
X95325000Y-54675000D01*
X89300000Y-54000000D02*
X89700000Y-53600000D01*
X111200001Y-70700001D02*
X110300000Y-69800000D01*
X91175000Y-65225000D02*
X91175000Y-65200000D01*
X100675000Y-54137500D02*
X101975000Y-54137500D01*
X103800000Y-40717790D02*
X105667790Y-40717790D01*
X92000000Y-48375000D02*
X93375000Y-48375000D01*
X104103249Y-44450000D02*
X104650000Y-44450000D01*
X98250000Y-52300000D02*
X98250000Y-49750000D01*
X97187500Y-54375000D02*
X97425000Y-54137500D01*
X108000000Y-52600000D02*
X109400000Y-51200000D01*
X102050000Y-41037790D02*
X102050000Y-40217790D01*
X103200000Y-43162500D02*
X103200000Y-47300000D01*
X110125000Y-49225000D02*
X110750000Y-48600000D01*
X108280000Y-57200000D02*
X109750000Y-57200000D01*
X109400000Y-49225000D02*
X110125000Y-49225000D01*
X107087500Y-52600000D02*
X108000000Y-52600000D01*
X110300000Y-69100000D02*
X110900000Y-68500000D01*
X99000000Y-48200000D02*
X98250000Y-48950000D01*
X103650000Y-48350000D02*
X102900000Y-47600000D01*
X95800000Y-57825000D02*
X95800000Y-56005000D01*
X93375000Y-48375000D02*
X93950000Y-47800000D01*
X88899998Y-69450002D02*
X90149998Y-70700001D01*
X101975000Y-54137500D02*
X101975000Y-53052818D01*
X99250000Y-47950000D02*
X99000000Y-48200000D01*
X94900000Y-53445000D02*
X94900000Y-54250000D01*
X103200000Y-43162500D02*
X103200000Y-43546751D01*
X107025000Y-61500000D02*
X105632000Y-61500000D01*
X97425000Y-54137500D02*
X97425000Y-53125000D01*
X109400000Y-51200000D02*
X109400000Y-53150000D01*
X99000000Y-45650000D02*
X99000000Y-44700000D01*
X110300000Y-69800000D02*
X110300000Y-69100000D01*
X110750000Y-45400000D02*
X111815000Y-45400000D01*
X93675000Y-64787500D02*
X94350000Y-65462500D01*
X100700000Y-44350000D02*
X102300000Y-44350000D01*
X94000000Y-57825000D02*
X95800000Y-57825000D01*
X105667790Y-40717790D02*
X105800000Y-40850000D01*
X92000000Y-48375000D02*
X91975000Y-48375000D01*
X100350000Y-44700000D02*
X100500000Y-44550000D01*
X91200000Y-49150000D02*
X91200000Y-50850001D01*
X92392790Y-37525000D02*
X94800000Y-35117790D01*
X99250000Y-46650000D02*
X99250000Y-47950000D01*
X88100000Y-68500000D02*
X88100000Y-68650003D01*
X94900000Y-54250000D02*
X95025000Y-54375000D01*
X92025001Y-70700001D02*
X92700000Y-71375000D01*
X102300000Y-44350000D02*
X102396751Y-44350000D01*
X103650000Y-51377818D02*
X103650000Y-48350000D01*
X99250000Y-46650000D02*
X99250000Y-45900000D01*
X89700000Y-57450000D02*
X89300000Y-57050000D01*
X110200000Y-53950000D02*
X110200000Y-56750000D01*
X91975000Y-48375000D02*
X91200000Y-49150000D01*
X108450000Y-40400000D02*
X109050000Y-39800000D01*
X98250000Y-48950000D02*
X98250000Y-49750000D01*
X95800000Y-56005000D02*
X95850000Y-55955000D01*
X95025000Y-54375000D02*
X97187500Y-54375000D01*
X109400000Y-53150000D02*
X110200000Y-53950000D01*
X105800000Y-40850000D02*
X105800000Y-39300000D01*
X92700000Y-44600000D02*
X93950000Y-44600000D01*
X112949998Y-70700001D02*
X111200001Y-70700001D01*
X99000000Y-44700000D02*
X100350000Y-44700000D01*
X95325000Y-54675000D02*
X94900000Y-54250000D01*
X96550000Y-40217790D02*
X96250000Y-39917790D01*
%TO.N,/VBAT*%
X104150000Y-42400000D02*
X104150000Y-43162500D01*
X107500000Y-39800000D02*
X108387500Y-38912500D01*
X105037500Y-43162500D02*
X105800000Y-42400000D01*
X102250000Y-43162500D02*
X102250000Y-42350000D01*
X103850000Y-42100000D02*
X104150000Y-42400000D01*
X102500000Y-42100000D02*
X103850000Y-42100000D01*
X108387500Y-38912500D02*
X108387500Y-36600000D01*
X107500000Y-41762500D02*
X107500000Y-39800000D01*
X102250000Y-42350000D02*
X102500000Y-42100000D01*
X105800000Y-42400000D02*
X106862500Y-42400000D01*
X104150000Y-43162500D02*
X105037500Y-43162500D01*
X106862500Y-42400000D02*
X107500000Y-41762500D01*
%TO.N,+3.3V*%
X92250000Y-59475000D02*
X92300000Y-59425000D01*
X108575000Y-61675000D02*
X107950000Y-62300000D01*
X94600000Y-69825000D02*
X96200000Y-71425000D01*
X86990000Y-36460000D02*
X87165000Y-36460000D01*
X94000000Y-59375000D02*
X94000000Y-59122182D01*
X107950000Y-62300000D02*
X103350000Y-62300000D01*
X106050000Y-47600000D02*
X106100000Y-47600000D01*
X94475000Y-69800000D02*
X94500000Y-69825000D01*
X93200000Y-55950000D02*
X93200000Y-54195000D01*
X93950000Y-53445000D02*
X93950000Y-53064164D01*
X107700000Y-49200000D02*
X107700000Y-50800000D01*
X103350000Y-62300000D02*
X101975000Y-60925000D01*
X90350000Y-48350000D02*
X90350000Y-47450000D01*
X93200000Y-58322182D02*
X93200000Y-55950000D01*
X96525000Y-45625000D02*
X96525000Y-45825000D01*
X96875000Y-71425000D02*
X98100000Y-70200000D01*
X93200000Y-54195000D02*
X93950000Y-53445000D01*
X92250000Y-60200500D02*
X92250000Y-59475000D01*
X104875000Y-51600000D02*
X103800000Y-52675000D01*
X106000000Y-47650000D02*
X106050000Y-47600000D01*
X94000000Y-59122182D02*
X93200000Y-58322182D01*
X92389803Y-54550000D02*
X91850000Y-54550000D01*
X103749500Y-46899500D02*
X104450000Y-47600000D01*
X108315000Y-57735000D02*
X109435000Y-57735000D01*
X103749500Y-46600000D02*
X103749500Y-46899500D01*
X104150000Y-47650000D02*
X106000000Y-47650000D01*
X104150000Y-45437500D02*
X104150000Y-47650000D01*
X102237500Y-59862500D02*
X102750000Y-59350000D01*
X106100000Y-47600000D02*
X107700000Y-49200000D01*
X101975000Y-60925000D02*
X101975000Y-59862500D01*
X92300000Y-59425000D02*
X95750000Y-59425000D01*
X95700000Y-51525000D02*
X97275000Y-51525000D01*
X91525000Y-66825000D02*
X92100000Y-67400000D01*
X96200000Y-71425000D02*
X96875000Y-71425000D01*
X96525000Y-45825000D02*
X96450000Y-45900000D01*
X109800000Y-59500000D02*
X109400000Y-59900000D01*
X109400000Y-59900000D02*
X108600000Y-59900000D01*
X108600000Y-59900000D02*
X108600000Y-61475000D01*
X93950000Y-53064164D02*
X95489164Y-51525000D01*
X92250000Y-65800000D02*
X92250000Y-65100000D01*
X94500000Y-69825000D02*
X94600000Y-69825000D01*
X85800000Y-42900000D02*
X85800000Y-37650000D01*
X92100000Y-67400000D02*
X93450000Y-67400000D01*
X90350000Y-47450000D02*
X85800000Y-42900000D01*
X108600000Y-61475000D02*
X108575000Y-61500000D01*
X96525000Y-45625000D02*
X97750000Y-46850000D01*
X85800000Y-37650000D02*
X86990000Y-36460000D01*
X106900000Y-51600000D02*
X104875000Y-51600000D01*
X93200000Y-55360197D02*
X92389803Y-54550000D01*
X91225000Y-66825000D02*
X92250000Y-65800000D01*
X107700000Y-50800000D02*
X106900000Y-51600000D01*
X94500000Y-68450000D02*
X94500000Y-69825000D01*
X109800000Y-58100000D02*
X109800000Y-59500000D01*
X95500000Y-44600000D02*
X95500000Y-43000000D01*
X91225000Y-66825000D02*
X91525000Y-66825000D01*
X91750000Y-69800000D02*
X94475000Y-69800000D01*
X95500000Y-44600000D02*
X96525000Y-45625000D01*
X98100000Y-70200000D02*
X102300000Y-70200000D01*
X101975000Y-59862500D02*
X102237500Y-59862500D01*
X93200000Y-55950000D02*
X93200000Y-55360197D01*
X109435000Y-57735000D02*
X109800000Y-58100000D01*
X108280000Y-57700000D02*
X108315000Y-57735000D01*
X95489164Y-51525000D02*
X95700000Y-51525000D01*
X95750000Y-59425000D02*
X95800000Y-59375000D01*
X97750000Y-46850000D02*
X97750000Y-46950000D01*
X108575000Y-61500000D02*
X108575000Y-61675000D01*
X97275000Y-51525000D02*
X97400000Y-51400000D01*
X102300000Y-70200000D02*
X105100000Y-67400000D01*
X105100000Y-67400000D02*
X106850000Y-67400000D01*
X93450000Y-67400000D02*
X94500000Y-68450000D01*
%TO.N,Net-(C9-Pad1)*%
X86050002Y-68499998D02*
X88000000Y-66550000D01*
X88000000Y-66550000D02*
X88000000Y-66450000D01*
X89625000Y-65225000D02*
X89625000Y-66775000D01*
X89625000Y-66775000D02*
X89575000Y-66825000D01*
X89200000Y-66450000D02*
X89575000Y-66825000D01*
X86050002Y-69099999D02*
X86050002Y-68499998D01*
X88000000Y-66450000D02*
X89200000Y-66450000D01*
%TO.N,Net-(C12-Pad1)*%
X90000000Y-63163400D02*
X88663400Y-63163400D01*
X92125000Y-62700000D02*
X90463400Y-62700000D01*
X88663400Y-63163400D02*
X88200000Y-62700000D01*
X90463400Y-62700000D02*
X90000000Y-63163400D01*
X92125000Y-62700000D02*
X93725000Y-61100000D01*
%TO.N,Net-(C13-Pad1)*%
X89700000Y-60425000D02*
X90000000Y-60725000D01*
X91700000Y-60725000D02*
X92075000Y-61100000D01*
X90000000Y-60725000D02*
X90000000Y-60950000D01*
X90000000Y-60725000D02*
X91700000Y-60725000D01*
X90000000Y-60950000D02*
X89100000Y-61850000D01*
X89700000Y-59000000D02*
X89700000Y-60425000D01*
%TO.N,Net-(D1-Pad1)*%
X109400000Y-41700000D02*
X111400000Y-39700000D01*
X109400000Y-41762500D02*
X109400000Y-41700000D01*
%TO.N,Net-(D1-Pad2)*%
X111750000Y-41000000D02*
X111050000Y-41000000D01*
X110350000Y-41700000D02*
X110350000Y-44775000D01*
X111050000Y-41000000D02*
X110350000Y-41700000D01*
X110350000Y-44775000D02*
X109225000Y-45900000D01*
X112975000Y-39700000D02*
X112975000Y-39775000D01*
X112975000Y-39775000D02*
X111750000Y-41000000D01*
D50*
%TO.N,/USB_D+*%
X97650000Y-43300000D02*
X97650000Y-43708734D01*
X98750000Y-46050000D02*
X98750000Y-46650000D01*
X98150000Y-44200000D02*
X98150000Y-45450000D01*
X99000000Y-43000000D02*
X97950000Y-43000000D01*
X98141266Y-44200000D02*
X98150000Y-44200000D01*
X98150000Y-45450000D02*
X98750000Y-46050000D01*
X99550000Y-42450000D02*
X99000000Y-43000000D01*
X97950000Y-43000000D02*
X97650000Y-43300000D01*
X97650000Y-43708734D02*
X98141266Y-44200000D01*
X99550000Y-41037790D02*
X99550000Y-42450000D01*
%TO.N,/USB_D-*%
X98600000Y-42150000D02*
X97750000Y-42150000D01*
X97750000Y-42150000D02*
X97000000Y-42900000D01*
X99050000Y-41700000D02*
X98600000Y-42150000D01*
X97000000Y-42900000D02*
X97000000Y-43000000D01*
X99050000Y-41037790D02*
X99050000Y-41700000D01*
X98250000Y-46650000D02*
X98250000Y-46200000D01*
X98250000Y-46200000D02*
X97737210Y-45687210D01*
X97737210Y-45687210D02*
X97737210Y-44361630D01*
X97737210Y-44361630D02*
X97000000Y-43624420D01*
X97000000Y-43624420D02*
X97000000Y-43000000D01*
D49*
%TO.N,Net-(D2-Pad4)*%
X95752817Y-48800000D02*
X96602817Y-47950000D01*
X92000000Y-50025000D02*
X92400000Y-50025000D01*
X94750000Y-49300000D02*
X95250000Y-48800000D01*
X95250000Y-48800000D02*
X95550000Y-48800000D01*
X94750000Y-50675000D02*
X94750000Y-49300000D01*
X95550000Y-48800000D02*
X95752817Y-48800000D01*
X92400000Y-50025000D02*
X93900000Y-51525000D01*
X97000000Y-44366176D02*
X96691912Y-44058088D01*
X96602817Y-47950000D02*
X97450000Y-47950000D01*
X97000000Y-44900000D02*
X97000000Y-44366176D01*
X93900000Y-51525000D02*
X94750000Y-50675000D01*
%TO.N,Net-(D3-Pad1)*%
X101400000Y-47450000D02*
X102887500Y-48937500D01*
X102887500Y-48937500D02*
X102887500Y-49200000D01*
X100550000Y-47450000D02*
X101400000Y-47450000D01*
%TO.N,Net-(D3-Pad2)*%
X104462500Y-49200000D02*
X106050000Y-49200000D01*
%TO.N,Net-(D4-Pad1)*%
X100550000Y-47950000D02*
X101263604Y-47950000D01*
X102100000Y-50012500D02*
X102887500Y-50800000D01*
X101263604Y-47950000D02*
X102100000Y-48786396D01*
X102100000Y-48786396D02*
X102100000Y-50012500D01*
%TO.N,Net-(D4-Pad2)*%
X104462500Y-50800000D02*
X106050000Y-50800000D01*
%TO.N,Net-(D5-Pad2)*%
X105512500Y-52600000D02*
X105512500Y-54362500D01*
X105512500Y-54362500D02*
X105475000Y-54400000D01*
%TO.N,Net-(J1-PadA5)*%
X100500000Y-42250000D02*
X100500000Y-42900000D01*
X100050000Y-41037790D02*
X100050000Y-41800000D01*
X100050000Y-41800000D02*
X100500000Y-42250000D01*
%TO.N,Net-(J1-PadB5)*%
X100067790Y-37650000D02*
X105800000Y-37650000D01*
X98500000Y-39217790D02*
X100067790Y-37650000D01*
%TO.N,/UART_RX*%
X100850000Y-49250000D02*
X100850000Y-50050000D01*
X100550000Y-48950000D02*
X100850000Y-49250000D01*
X109450000Y-67300000D02*
X110235000Y-67300000D01*
X110235000Y-67300000D02*
X112200000Y-65335000D01*
%TO.N,/UART_TX*%
X100575000Y-48475000D02*
X101152208Y-48475000D01*
X109750000Y-65245000D02*
X112200000Y-62795000D01*
X101650000Y-48972792D02*
X101650000Y-50400000D01*
X101152208Y-48475000D02*
X101650000Y-48972792D01*
X109750000Y-65700000D02*
X109750000Y-65245000D01*
X100550000Y-48450000D02*
X100575000Y-48475000D01*
%TO.N,/DEBUG_TMS*%
X89950000Y-37050000D02*
X89950000Y-42050000D01*
X89950000Y-42050000D02*
X89250000Y-42750000D01*
X89360000Y-36460000D02*
X89950000Y-37050000D01*
X88435000Y-36460000D02*
X89360000Y-36460000D01*
%TO.N,/DEBUG_TCK*%
X90855000Y-40150000D02*
X90855000Y-44755000D01*
X90855000Y-44755000D02*
X91150000Y-45050000D01*
%TO.N,/DEBUG_TDI*%
X88849500Y-53250000D02*
X88849500Y-51199500D01*
X88350000Y-48000000D02*
X89050000Y-47300000D01*
X88849500Y-51199500D02*
X88350000Y-50700000D01*
X88350000Y-50700000D02*
X88350000Y-48000000D01*
%TO.N,Net-(JP1-Pad1)*%
X99050000Y-51400000D02*
X100100000Y-51400000D01*
X100100000Y-51400000D02*
X100250000Y-51250000D01*
%TO.N,GPIO21{slash}TCA9534_INT*%
X100000000Y-58500000D02*
X100000000Y-59837500D01*
X100000000Y-59837500D02*
X100025000Y-59862500D01*
X100025000Y-62825000D02*
X100550000Y-63350000D01*
X100025000Y-59862500D02*
X100025000Y-62825000D01*
%TO.N,I2C_SCL*%
X100675000Y-62425000D02*
X103550000Y-65300000D01*
X100675000Y-61575000D02*
X100675000Y-62425000D01*
X100675000Y-59862500D02*
X100675000Y-61575000D01*
X103550000Y-65300000D02*
X103550000Y-67950000D01*
X94900000Y-55955000D02*
X94900000Y-56950000D01*
%TO.N,Net-(JP2-Pad2)*%
X107700000Y-47600000D02*
X106700000Y-46600000D01*
X106700000Y-46600000D02*
X104700000Y-46600000D01*
%TO.N,I2C_SDA*%
X93850000Y-55855000D02*
X93950000Y-55955000D01*
X101325000Y-59047182D02*
X99877818Y-57600000D01*
X99877818Y-57600000D02*
X98800000Y-57600000D01*
X101325000Y-59862500D02*
X101325000Y-59047182D01*
X93900000Y-56950500D02*
X93900000Y-56005000D01*
X93850000Y-54750000D02*
X93850000Y-55855000D01*
X93900000Y-56005000D02*
X93950000Y-55955000D01*
%TO.N,Net-(JP3-Pad2)*%
X89400000Y-50000000D02*
X89050000Y-49650000D01*
X90350000Y-50000000D02*
X89400000Y-50000000D01*
%TO.N,TCA9534_P0*%
X100025000Y-54137500D02*
X100025000Y-52275000D01*
X100025000Y-52275000D02*
X100250000Y-52050000D01*
%TO.N,Net-(JP4-Pad2)*%
X107125000Y-54397888D02*
X108161444Y-53361444D01*
X107125000Y-54400000D02*
X107125000Y-54397888D01*
%TO.N,GPIO27{slash}PIEZO*%
X91850000Y-68200000D02*
X92725000Y-68200000D01*
X92725000Y-68200000D02*
X92750000Y-68225000D01*
%TO.N,Net-(LS1-Pad2)*%
X95300000Y-67337500D02*
X95362500Y-67400000D01*
X95362500Y-67400000D02*
X98150000Y-67400000D01*
X95300000Y-68875000D02*
X96200000Y-69775000D01*
X95300000Y-67337500D02*
X95300000Y-68875000D01*
%TO.N,Net-(Q1-Pad1)*%
X94646751Y-66575000D02*
X95759251Y-65462500D01*
X95759251Y-65462500D02*
X96250000Y-65462500D01*
X92750000Y-66575000D02*
X94646751Y-66575000D01*
%TO.N,Net-(R3-Pad2)*%
X109400000Y-44037500D02*
X109312500Y-44037500D01*
X108400000Y-46575000D02*
X109400000Y-47575000D01*
X109312500Y-44037500D02*
X108400000Y-44950000D01*
X108400000Y-44950000D02*
X108400000Y-46575000D01*
%TO.N,Net-(R6-Pad1)*%
X95700000Y-49875000D02*
X95700000Y-49489213D01*
X96739213Y-48450000D02*
X97450000Y-48450000D01*
X95700000Y-49489213D02*
X96739213Y-48450000D01*
%TO.N,Net-(R13-Pad1)*%
X103800000Y-54325000D02*
X103800000Y-54650000D01*
X103800000Y-54650000D02*
X106150000Y-57000000D01*
%TO.N,/GPI34{slash}BTN*%
X92300000Y-57649999D02*
X92300000Y-57775000D01*
X92700000Y-58600000D02*
X92700000Y-58175000D01*
X90299999Y-55649998D02*
X92300000Y-57649999D01*
X92700000Y-58175000D02*
X92300000Y-57775000D01*
%TO.N,/ESP32_BOOT*%
X110850000Y-63400000D02*
X110850000Y-56450000D01*
X108850002Y-69099999D02*
X108850002Y-65399998D01*
X108850002Y-65399998D02*
X110850000Y-63400000D01*
%TO.N,GPIO4{slash}ADC_CS*%
X106950000Y-58200000D02*
X106850000Y-58100000D01*
X108280000Y-58200000D02*
X106950000Y-58200000D01*
%TO.N,SPI_SCK*%
X103980000Y-58200000D02*
X103980000Y-58580000D01*
X103980000Y-58580000D02*
X104550000Y-59150000D01*
%TO.N,SPI_MOSI*%
X105550000Y-57200000D02*
X103980000Y-57200000D01*
X105800000Y-57450000D02*
X105550000Y-57200000D01*
X105800000Y-60200000D02*
X105800000Y-57450000D01*
%TO.N,SPI_MISO*%
X105250000Y-57800000D02*
X105250000Y-59650000D01*
X105150000Y-57700000D02*
X105250000Y-57800000D01*
X103980000Y-57700000D02*
X105150000Y-57700000D01*
%TO.N,TCA9534_P2*%
X98725000Y-55743534D02*
X97859267Y-56609267D01*
X98725000Y-54137500D02*
X98725000Y-55743534D01*
%TO.N,TCA9534_P3*%
X98075000Y-55475000D02*
X97400000Y-56150000D01*
X98075000Y-54137500D02*
X98075000Y-55475000D01*
%TO.N,ADC_IN3*%
X108280000Y-56200000D02*
X108280000Y-55470000D01*
X108280000Y-55470000D02*
X109500000Y-54250000D01*
%TO.N,ADC_IN1*%
X103980000Y-56700000D02*
X99500000Y-56700000D01*
X99500000Y-56700000D02*
X99250000Y-56950000D01*
%TO.N,DAC_VOUT*%
X95850000Y-53445000D02*
X95850000Y-52875498D01*
X95850000Y-52875498D02*
X96600000Y-52125498D01*
%TO.N,Net-(D6-Pad2)*%
X92300000Y-40975000D02*
X92300000Y-39100000D01*
%TD*%
M02*
