M48
; DRILL file {KiCad (6.0.7-1)-1} date Sunday, 20 November 2022 at 09:12:52 pm
; FORMAT={-:-/ absolute / metric / decimal}
; #@! TF.CreationDate,2022-11-20T21:12:52+11:00
; #@! TF.GenerationSoftware,Kicad,Pcbnew,(6.0.7-1)-1
; #@! TF.FileFunction,Plated,1,4,PTH
FMAT,2
METRIC
; #@! TA.AperFunction,Plated,PTH,ComponentDrill
T1C0.200
; #@! TA.AperFunction,Plated,PTH,ViaDrill
T2C0.250
; #@! TA.AperFunction,Plated,PTH,ComponentDrill
T3C0.400
; #@! TA.AperFunction,Plated,PTH,ComponentDrill
T4C0.500
; #@! TA.AperFunction,Plated,PTH,ComponentDrill
T5C0.700
; #@! TA.AperFunction,Plated,PTH,ComponentDrill
T6C0.800
; #@! TA.AperFunction,Plated,PTH,ComponentDrill
T7C1.000
%
G90
G05
T1
X96.5Y-62.64
X96.5Y-64.04
X97.2Y-61.94
X97.2Y-64.74
X98.6Y-61.94
X98.6Y-64.74
X99.3Y-62.64
X99.3Y-64.04
T2
X87.0Y-33.0
X87.0Y-45.0
X87.65Y-64.0
X87.7Y-53.95
X87.75Y-59.0
X88.0Y-66.45
X88.05Y-67.45
X88.2Y-61.5
X88.2Y-62.7
X88.4Y-58.15
X88.7Y-59.75
X88.7Y-46.6
X88.849Y-53.25
X88.9Y-69.45
X89.05Y-47.3
X89.05Y-49.65
X89.1Y-61.85
X89.25Y-42.75
X89.4Y-43.5
X90.0Y-33.0
X90.0Y-36.0
X90.35Y-47.45
X90.855Y-40.15
X91.15Y-45.05
X91.2Y-39.1
X91.35Y-47.25
X91.75Y-69.8
X91.85Y-54.55
X91.85Y-68.2
X91.9Y-52.75
X91.95Y-44.9
X92.25Y-60.2
X92.25Y-65.1
X92.45Y-56.8
X92.7Y-44.6
X92.7Y-58.6
X92.8Y-43.65
X92.95Y-52.05
X92.951Y-64.201
X93.0Y-33.0
X93.1Y-65.05
X93.85Y-54.75
X93.9Y-56.95
X94.9Y-56.95
X95.05Y-62.7
X95.25Y-60.96
X95.325Y-54.675
X95.55Y-48.8
X96.0Y-33.0
X96.0Y-36.0
X96.45Y-45.9
X96.45Y-46.65
X96.52Y-60.96
X96.6Y-50.7
X96.6Y-52.125
X96.692Y-44.058
X97.05Y-50.15
X97.4Y-56.15
X97.5Y-57.4
X97.859Y-56.609
X98.8Y-57.6
X98.95Y-58.45
X99.0Y-33.0
X99.0Y-36.0
X99.06Y-71.12
X99.25Y-55.95
X99.25Y-56.95
X99.4Y-69.0
X100.0Y-58.5
X100.25Y-51.25
X100.25Y-52.05
X100.33Y-64.77
X100.33Y-67.31
X100.33Y-68.58
X100.33Y-71.12
X100.55Y-63.35
X100.675Y-61.575
X100.85Y-50.05
X101.35Y-42.1
X101.45Y-61.85
X101.6Y-64.77
X101.6Y-67.31
X101.6Y-68.58
X101.6Y-71.12
X101.65Y-50.4
X102.0Y-33.0
X102.0Y-36.0
X102.25Y-52.0
X102.75Y-59.35
X102.87Y-67.31
X102.87Y-68.58
X102.87Y-71.12
X103.124Y-60.452
X103.55Y-67.95
X103.749Y-46.6
X104.14Y-59.69
X104.14Y-60.96
X104.14Y-64.77
X104.14Y-66.04
X104.14Y-71.12
X104.3Y-69.7
X104.55Y-59.15
X104.7Y-46.6
X105.0Y-33.0
X105.0Y-68.45
X105.25Y-59.65
X105.41Y-61.722
X105.41Y-66.04
X105.41Y-71.12
X105.55Y-65.0
X105.8Y-60.2
X106.0Y-55.35
X106.15Y-57.0
X106.2Y-56.1
X106.65Y-65.1
X106.68Y-71.12
X106.7Y-45.1
X106.85Y-56.4
X106.85Y-58.1
X108.0Y-33.0
X108.161Y-53.361
X108.4Y-43.05
X109.45Y-67.3
X109.5Y-54.25
X109.65Y-56.35
X109.75Y-63.5
X109.75Y-65.7
X110.1Y-50.336
X110.3Y-69.8
X110.3Y-57.7
X110.75Y-45.4
X110.85Y-56.45
X111.0Y-33.0
X111.0Y-36.0
T3
X96.25Y-39.918
X96.9Y-39.218
X97.7Y-39.218
X98.1Y-39.918
X98.5Y-39.218
X98.9Y-39.918
X99.7Y-39.918
X100.1Y-39.218
X100.5Y-39.918
X100.9Y-39.218
X101.7Y-39.218
X102.35Y-39.918
T5
X87.165Y-36.46
X87.165Y-37.73
X87.165Y-39.0
X87.165Y-40.27
X87.165Y-41.54
X88.435Y-36.46
X88.435Y-37.73
X88.435Y-39.0
X88.435Y-40.27
X88.435Y-41.54
T6
X108.387Y-34.6
X108.387Y-36.6
T7
X86.8Y-47.575
X86.8Y-50.115
X86.8Y-52.655
X86.8Y-55.195
X86.8Y-57.735
X86.8Y-60.275
X86.8Y-62.815
X86.8Y-65.355
X112.2Y-42.475
X112.2Y-45.015
X112.2Y-47.555
X112.2Y-50.095
X112.2Y-52.635
X112.2Y-55.175
X112.2Y-57.715
X112.2Y-60.255
X112.2Y-62.795
X112.2Y-65.335
T4
G00X94.8Y-35.518
M15
G01X94.8Y-34.718
M16
G05
G00X94.8Y-41.018
M15
G01X94.8Y-40.418
M16
G05
G00X103.8Y-35.518
M15
G01X103.8Y-34.718
M16
G05
G00X103.8Y-41.018
M15
G01X103.8Y-40.418
M16
G05
T0
M30
