%TF.GenerationSoftware,KiCad,Pcbnew,(6.0.7-1)-1*%
%TF.CreationDate,2022-11-20T21:12:54+11:00*%
%TF.ProjectId,esp32-clover,65737033-322d-4636-9c6f-7665722e6b69,rev?*%
%TF.SameCoordinates,Original*%
%TF.FileFunction,Soldermask,Bot*%
%TF.FilePolarity,Negative*%
%FSLAX46Y46*%
G04 Gerber Fmt 4.6, Leading zero omitted, Abs format (unit mm)*
G04 Created by KiCad (PCBNEW (6.0.7-1)-1) date 2022-11-20 21:12:54*
%MOMM*%
%LPD*%
G01*
G04 APERTURE LIST*
%ADD10R,1.308000X1.308000*%
%ADD11C,1.308000*%
%ADD12C,0.650000*%
%ADD13O,1.000000X2.000000*%
%ADD14R,1.100000X1.100000*%
%ADD15C,1.100000*%
%ADD16R,1.500000X1.000000*%
%ADD17R,1.500000X0.900000*%
%ADD18R,0.900000X1.500000*%
%ADD19R,0.900000X0.900000*%
%ADD20R,1.700000X1.700000*%
%ADD21O,1.700000X1.700000*%
G04 APERTURE END LIST*
D10*
%TO.C,J2*%
X108387500Y-36600000D03*
D11*
X108387500Y-34600000D03*
%TD*%
D12*
%TO.C,J1*%
X103025000Y-39217790D03*
X95575000Y-39217790D03*
X96250000Y-39917790D03*
X96900000Y-39217790D03*
X97700000Y-39217790D03*
X98100000Y-39917790D03*
X98500000Y-39217790D03*
X98900000Y-39917790D03*
X99700000Y-39917790D03*
X100100000Y-39217790D03*
X100500000Y-39917790D03*
X100900000Y-39217790D03*
X101700000Y-39217790D03*
X102350000Y-39917790D03*
D13*
X103800000Y-40717790D03*
X94800000Y-40717790D03*
X103800000Y-35117790D03*
X94800000Y-35117790D03*
%TD*%
D14*
%TO.C,J4*%
X87165000Y-36460000D03*
D15*
X88435000Y-36460000D03*
X87165000Y-37730000D03*
X88435000Y-37730000D03*
X87165000Y-39000000D03*
X88435000Y-39000000D03*
X87165000Y-40270000D03*
X88435000Y-40270000D03*
X87165000Y-41540000D03*
X88435000Y-41540000D03*
%TD*%
D16*
%TO.C,JP2*%
X93000000Y-50850000D03*
X93000000Y-49550000D03*
%TD*%
D17*
%TO.C,U4*%
X90650000Y-71060000D03*
X90650000Y-69790000D03*
X90650000Y-68520000D03*
X90650000Y-67250000D03*
X90650000Y-65980000D03*
X90650000Y-64710000D03*
X90650000Y-63440000D03*
X90650000Y-62170000D03*
X90650000Y-60900000D03*
X90650000Y-59630000D03*
X90650000Y-58360000D03*
X90650000Y-57090000D03*
X90650000Y-55820000D03*
X90650000Y-54550000D03*
D18*
X93685000Y-53300000D03*
X94955000Y-53300000D03*
X96225000Y-53300000D03*
X97495000Y-53300000D03*
X98765000Y-53300000D03*
X100035000Y-53300000D03*
X101305000Y-53300000D03*
X102575000Y-53300000D03*
X103845000Y-53300000D03*
X105115000Y-53300000D03*
D17*
X108150000Y-54550000D03*
X108150000Y-55820000D03*
X108150000Y-57090000D03*
X108150000Y-58360000D03*
X108150000Y-59630000D03*
X108150000Y-60900000D03*
X108150000Y-62170000D03*
X108150000Y-63440000D03*
X108150000Y-64710000D03*
X108150000Y-65980000D03*
X108150000Y-67250000D03*
X108150000Y-68520000D03*
X108150000Y-69790000D03*
X108150000Y-71060000D03*
D19*
X96500000Y-64740000D03*
X97900000Y-64740000D03*
X99300000Y-64740000D03*
X96500000Y-63340000D03*
X97900000Y-63340000D03*
X99300000Y-63340000D03*
X96500000Y-61940000D03*
X97900000Y-61940000D03*
X99300000Y-61940000D03*
%TD*%
D16*
%TO.C,JP3*%
X90200000Y-50850000D03*
X90200000Y-49550000D03*
%TD*%
D20*
%TO.C,J3*%
X86800000Y-47575000D03*
D21*
X86800000Y-50115000D03*
X86800000Y-52655000D03*
X86800000Y-55195000D03*
X86800000Y-57735000D03*
X86800000Y-60275000D03*
X86800000Y-62815000D03*
X86800000Y-65355000D03*
%TD*%
D16*
%TO.C,JP4*%
X109000000Y-49800000D03*
X109000000Y-51100000D03*
%TD*%
D20*
%TO.C,J5*%
X112200000Y-42475000D03*
D21*
X112200000Y-45015000D03*
X112200000Y-47555000D03*
X112200000Y-50095000D03*
X112200000Y-52635000D03*
X112200000Y-55175000D03*
X112200000Y-57715000D03*
X112200000Y-60255000D03*
X112200000Y-62795000D03*
X112200000Y-65335000D03*
%TD*%
D16*
%TO.C,JP1*%
X103000000Y-49650000D03*
X103000000Y-50950000D03*
%TD*%
M02*
